<svg width="64" height="64" viewBox="0 0 64 64" fill="none" xmlns="http://www.w3.org/2000/svg">
<path d="M31.5296 39.1232L27.8018 42.8511L16.6131 31.665L27.7992 20.4789L31.527 24.2093L26.7104 29.0286H46.5806V34.3013H26.7104L31.5296 39.1232Z" fill="#8D8D8D" fill-opacity="0.3"/>
<path fill-rule="evenodd" clip-rule="evenodd" d="M11.1613 52.1709C-0.164569 40.8451 -0.164569 22.4855 11.1613 11.1596C22.4871 -0.166171 40.8467 -0.166171 52.1725 11.1596C63.4983 22.4855 63.4983 40.8451 52.1725 52.1709C40.8467 63.4967 22.4871 63.4967 11.1613 52.1709ZM14.8891 48.4431C10.4393 43.9934 7.93947 37.9582 7.93947 31.6653C7.93947 25.3724 10.4393 19.3372 14.8891 14.8875C19.3388 10.4377 25.374 7.93787 31.6669 7.93787C37.9598 7.93787 43.995 10.4377 48.4447 14.8875C52.8945 19.3372 55.3943 25.3724 55.3943 31.6653C55.3943 37.9582 52.8945 43.9934 48.4447 48.4431C43.995 52.8929 37.9598 55.3927 31.6669 55.3927C25.374 55.3927 19.3388 52.8929 14.8891 48.4431Z" fill="#8D8D8D" fill-opacity="0.3"/>
</svg>
