<svg width="64" height="64" viewBox="0 0 64 64" fill="none" xmlns="http://www.w3.org/2000/svg">
<path d="M32.4704 24.8739L36.1982 21.1461L47.387 32.3322L36.2009 43.5182L32.4731 39.7878L37.2897 34.9685H17.4194V29.6958L37.2897 29.6958L32.4704 24.8739Z" fill="#14213D"/>
<path fill-rule="evenodd" clip-rule="evenodd" d="M52.839 11.8279C64.1648 23.1537 64.1648 41.5134 52.839 52.8392C41.5132 64.165 23.1536 64.165 11.8277 52.8392C0.501919 41.5134 0.501919 23.1537 11.8277 11.8279C23.1536 0.502102 41.5132 0.502102 52.839 11.8279ZM49.1112 15.5557C53.5609 20.0055 56.0608 26.0407 56.0608 32.3336C56.0608 38.6265 53.5609 44.6616 49.1112 49.1114C44.6614 53.5611 38.6263 56.061 32.3334 56.061C26.0405 56.061 20.0053 53.5611 15.5556 49.1114C11.1058 44.6616 8.60595 38.6265 8.60595 32.3336C8.60595 26.0407 11.1058 20.0055 15.5556 15.5557C20.0053 11.106 26.0405 8.60614 32.3334 8.60614C38.6263 8.60614 44.6614 11.106 49.1112 15.5557Z" fill="#14213D"/>
</svg>
