<svg width="82" height="82" viewBox="0 0 82 82" fill="none" xmlns="http://www.w3.org/2000/svg">
<path d="M44.321 39.3708H63.7243C66.2406 39.3708 68.2881 37.3234 68.2881 34.807V34.069C68.2881 29.4334 65.6103 25.4488 61.7486 23.4603C63.6781 21.4999 64.8774 18.817 64.8774 15.8522C64.8774 9.86875 60.0086 5 54.0226 5C48.0392 5 43.1705 9.86875 43.1705 15.8522C43.1705 18.8144 44.3697 21.4974 46.2967 23.4577C42.4325 25.4462 39.7572 29.4309 39.7572 34.0664V34.8044C39.7572 37.3234 41.8046 39.3708 44.321 39.3708ZM54.0226 9.6125C57.4641 9.6125 60.2649 12.4108 60.2649 15.8522C60.2649 19.2936 57.4641 22.0944 54.0226 22.0944C50.5812 22.0944 47.783 19.2936 47.783 15.8522C47.783 12.4108 50.5812 9.6125 54.0226 9.6125ZM44.3697 34.0664C44.3697 30.0074 47.6702 26.7069 51.7292 26.7069H56.3135C60.3725 26.7069 63.673 30.0074 63.673 34.0664V34.7557L44.3697 34.807V34.0664ZM73.2491 50.5433L72.9826 50.2589C70.3714 47.5042 66.1766 47.0096 62.9991 49.0776L56.1905 53.5158C56.27 53.0674 56.3289 52.6138 56.3289 52.1449C56.3289 48.4574 53.7075 45.2287 50.0943 44.4702L39.6393 42.2767C35.1806 41.3414 30.4758 42.2741 26.7192 44.8289L24.946 46.0359C24.764 43.0378 22.2912 40.6444 19.2495 40.6444H13.4378C9.41977 40.6444 6.15002 43.9141 6.15002 47.9347V68.9523C6.15002 72.9703 9.41977 76.2426 13.4378 76.2426H19.2521C22.2169 76.2426 24.6359 73.9697 24.9255 71.0792L38.9859 74.6283C40.3312 74.9716 41.7226 75.1407 43.1115 75.1407C44.3748 75.1407 45.6407 74.9972 46.8733 74.7154L58.671 72.0068C61.6384 71.3252 64.37 69.8492 66.5635 67.7428L72.9775 61.5826C76.0678 58.6075 76.1857 53.6516 73.2491 50.5433ZM20.3719 70.5052C20.3719 71.1227 19.8696 71.625 19.2521 71.625H13.4378C11.9618 71.625 10.7625 70.4258 10.7625 68.9497V47.9321C10.7625 46.4561 11.9643 45.2569 13.4378 45.2569H19.2521C19.8696 45.2569 20.3719 45.7566 20.3719 46.3767V70.5052ZM69.7795 58.2539L63.3681 64.4116C61.7742 65.9439 59.7908 67.0151 57.6383 67.5096L45.8406 70.2182C43.9674 70.6487 41.9891 70.6256 40.1185 70.1541L24.9818 66.3309V51.5863L29.315 48.6394C32.0415 46.7816 35.4625 46.1153 38.6912 46.7867L49.1488 48.9802C50.635 49.2928 51.7138 50.6228 51.7138 52.1398C51.7138 53.9207 50.2686 55.3711 48.4851 55.3711H41.2742C40.0006 55.3711 38.968 56.4037 38.968 57.6773C38.968 58.9509 40.0006 59.9836 41.2742 59.9836H52.3775C53.8996 59.9836 55.3782 59.5428 56.6595 58.71L65.5155 52.9367C66.8275 52.0834 68.5571 52.2884 69.6206 53.4159L69.8871 53.7003C71.1043 54.9867 71.053 57.029 69.7795 58.2539Z" fill="#FCA311" fill-opacity="0.8"/>
</svg>
