<svg width="82" height="82" viewBox="0 0 82 82" fill="none" xmlns="http://www.w3.org/2000/svg">
<path d="M74.7271 43.6161C74.7271 35.7123 72.1268 28.2756 67.2073 22.1099C62.5948 16.3291 56.1804 12.1416 49.0781 10.257V2.84998C49.0781 1.27853 47.7997 0 46.2281 0H34.2105C32.6389 0 31.3605 1.27853 31.3605 2.84998V10.2566C16.2578 14.2571 5.71147 27.9722 5.71147 43.6161C5.71147 53.9339 10.2748 63.628 18.2315 70.2128C18.4609 70.4032 18.7496 70.5073 19.0477 70.507C19.3114 70.5071 19.5687 70.4259 19.7846 70.2743C20.0004 70.1227 20.1642 69.9083 20.2536 69.6602C20.343 69.4121 20.3537 69.1424 20.2841 68.888C20.2146 68.6336 20.0683 68.4069 19.8651 68.2387C12.4986 62.1424 8.27381 53.1677 8.27381 43.6161C8.27381 29.3613 17.7317 16.8364 31.3602 12.915V14.8678C31.3602 16.4394 32.6387 17.7178 34.2102 17.7178H46.2278C47.7994 17.7178 49.0778 16.4392 49.0778 14.8678V12.914C62.7401 16.8324 72.1641 29.2633 72.1641 43.6161C72.1641 61.2308 57.8335 75.5614 40.2189 75.5614H2.66882C2.32901 75.5614 2.00312 75.6964 1.76284 75.9367C1.52256 76.1769 1.38757 76.5028 1.38757 76.8427C1.38757 77.1825 1.52256 77.5083 1.76284 77.7486C2.00312 77.9889 2.32901 78.1239 2.66882 78.1239H40.2194C49.4367 78.1239 58.1024 74.5345 64.62 68.0168C71.1377 61.4992 74.7271 52.8335 74.7271 43.6161ZM46.5156 14.8678C46.5156 15.0236 46.384 15.1553 46.2281 15.1553H34.2105C34.1345 15.1543 34.062 15.1237 34.0083 15.07C33.9546 15.0163 33.924 14.9437 33.923 14.8678V2.84998C33.923 2.69415 34.0546 2.5625 34.2105 2.5625H46.2281C46.384 2.5625 46.5156 2.69415 46.5156 2.84998V14.8678ZM80.6124 76.8427C80.6124 77.0373 80.568 77.2295 80.4827 77.4044C80.3973 77.5794 80.2732 77.7326 80.1197 77.8524L75.1563 81.7284C74.9316 81.9045 74.6542 82.0001 74.3687 81.9998C74.1018 82.0001 73.8415 81.917 73.6241 81.7621C73.4068 81.6072 73.2432 81.3884 73.1562 81.136C73.0693 80.8837 73.0633 80.6105 73.1391 80.3546C73.2149 80.0987 73.3687 79.8729 73.5791 79.7086L75.6086 78.1237H62.5219C62.1821 78.1237 61.8562 77.9887 61.616 77.7485C61.3757 77.5082 61.2407 77.1823 61.2407 76.8425C61.2407 76.5027 61.3757 76.1768 61.616 75.9365C61.8562 75.6962 62.1821 75.5612 62.5219 75.5612H75.6086L73.5791 73.9763C73.3113 73.7672 73.1376 73.4602 73.0961 73.1229C73.0546 72.7857 73.1488 72.4457 73.3579 72.1779C73.4615 72.0453 73.5902 71.9344 73.7366 71.8515C73.883 71.7686 74.0443 71.7154 74.2113 71.6948C74.3783 71.6743 74.5477 71.6869 74.7099 71.7318C74.872 71.7767 75.0237 71.8532 75.1563 71.9568L80.1197 75.8327C80.2732 75.9526 80.3973 76.1058 80.4827 76.2808C80.568 76.4558 80.6124 76.6479 80.6124 76.8427ZM17.5597 39.4193C17.318 39.5122 17.1102 39.6763 16.9636 39.8897C16.8171 40.1032 16.7387 40.3561 16.7387 40.615V46.6237C16.7387 46.8826 16.8172 47.1355 16.9637 47.3489C17.1103 47.5624 17.318 47.7264 17.5597 47.8195L20.6206 48.9977C21.0679 50.6313 21.7191 52.202 22.5588 53.6728L21.2266 56.6724C21.1215 56.909 21.0906 57.172 21.1379 57.4265C21.1852 57.6811 21.3086 57.9154 21.4917 58.0984L25.7404 62.3471C25.9235 62.5302 26.1578 62.6535 26.4123 62.7008C26.6669 62.7481 26.9298 62.7172 27.1665 62.6121L30.1672 61.2795C31.6376 62.1188 33.2079 62.7698 34.8409 63.2172L36.0194 66.2792C36.1125 66.5209 36.2765 66.7286 36.49 66.8752C36.7034 67.0217 36.9562 67.1002 37.2152 67.1002H43.2239C43.4828 67.1002 43.7357 67.0217 43.9491 66.8752C44.1626 66.7286 44.3266 66.5209 44.4196 66.2792L45.5977 63.2182C47.2313 62.7709 48.8021 62.1198 50.273 61.2801L53.2726 62.6123C53.5092 62.7174 53.7722 62.7483 54.0267 62.701C54.2813 62.6537 54.5155 62.5303 54.6986 62.3472L58.9473 58.0984C59.1303 57.9154 59.2537 57.6811 59.301 57.4265C59.3483 57.172 59.3174 56.909 59.2123 56.6724L57.8796 53.6719C58.7191 52.2014 59.3701 50.6312 59.8174 48.9982L62.8794 47.8196C63.121 47.7266 63.3288 47.5626 63.4754 47.3491C63.6219 47.1357 63.7004 46.8828 63.7004 46.6239V40.6153C63.7004 40.3564 63.6219 40.1035 63.4754 39.8901C63.3288 39.6766 63.121 39.5126 62.8794 39.4196L59.8183 38.2413C59.3711 36.6077 58.7199 35.0369 57.8803 33.566L59.2125 30.5665C59.3176 30.3298 59.3485 30.0669 59.3012 29.8123C59.2538 29.5578 59.1305 29.3235 58.9474 29.1404L54.6981 24.8915C54.515 24.7084 54.2808 24.5851 54.0262 24.5378C53.7717 24.4905 53.5088 24.5214 53.2721 24.6264L50.2714 25.9591C48.801 25.1197 47.2308 24.4687 45.5977 24.0214L44.4192 20.9593C44.3261 20.7177 44.1621 20.5099 43.9486 20.3634C43.7352 20.2168 43.4823 20.1384 43.2234 20.1384H37.2148C36.9559 20.1384 36.7031 20.2168 36.4896 20.3634C36.2762 20.5099 36.1121 20.7177 36.0191 20.9593L34.8405 24.0212C33.2075 24.4685 31.6373 25.1195 30.1668 25.9589L27.1662 24.6263C26.9295 24.5212 26.6666 24.4903 26.412 24.5376C26.1575 24.5849 25.9232 24.7082 25.7401 24.8913L21.4915 29.1401C21.3084 29.3232 21.1851 29.5574 21.1378 29.812C21.0904 30.0666 21.1214 30.3295 21.2264 30.5661L22.5589 33.5663C21.7194 35.037 21.0684 36.6074 20.6211 38.2407L17.5597 39.4193ZM22.9448 39.4957C23.3795 37.6681 24.1035 35.9218 25.0894 34.3228C25.1985 34.1455 25.2628 33.9444 25.2768 33.7367C25.2907 33.5291 25.2539 33.3211 25.1695 33.1309L23.9256 30.3304L26.9303 27.3257L29.7312 28.5698C29.9214 28.6542 30.1293 28.6911 30.337 28.6771C30.5446 28.6632 30.7458 28.5989 30.9229 28.4897C32.522 27.5041 34.2682 26.7801 36.0955 26.3452C36.298 26.297 36.4856 26.2003 36.6423 26.0633C36.7989 25.9263 36.9199 25.7532 36.9946 25.559L38.0946 22.7012H42.3438L43.444 25.559C43.5187 25.7532 43.6396 25.9263 43.7963 26.0633C43.953 26.2003 44.1406 26.297 44.3431 26.3452C46.1705 26.7801 47.9166 27.504 49.5156 28.4897C49.6929 28.5988 49.894 28.6631 50.1016 28.6771C50.3093 28.691 50.5172 28.6541 50.7074 28.5696L53.5083 27.3257L56.513 30.3302L55.2696 33.1301C55.1851 33.3203 55.1482 33.5283 55.1622 33.7359C55.1761 33.9436 55.2405 34.1448 55.3497 34.322C56.3356 35.9214 57.0596 37.6681 57.4945 39.496C57.5426 39.6984 57.6394 39.8861 57.7764 40.0427C57.9134 40.1994 58.0865 40.3203 58.2807 40.3951L61.1375 41.4947V45.744L58.2797 46.8441C58.0855 46.9189 57.9124 47.0398 57.7754 47.1964C57.6385 47.3531 57.5417 47.5408 57.4935 47.7432C57.0587 49.5706 56.3347 51.3168 55.349 52.9158C55.2399 53.093 55.1756 53.2941 55.1617 53.5017C55.1477 53.7094 55.1845 53.9173 55.2689 54.1075L56.513 56.9085L53.5083 59.9132L50.7085 58.6697C50.5183 58.5852 50.3103 58.5484 50.1026 58.5623C49.895 58.5763 49.6938 58.6406 49.5166 58.7498C47.9172 59.7357 46.1705 60.4598 44.3426 60.8946C44.1402 60.9428 43.9525 61.0396 43.7958 61.1765C43.6392 61.3135 43.5182 61.4866 43.4435 61.6808L42.3438 64.5377H38.0947L36.9946 61.6799C36.9199 61.4856 36.7989 61.3126 36.6423 61.1756C36.4856 61.0386 36.298 60.9418 36.0955 60.8936C34.2682 60.4587 32.522 59.7348 30.9229 58.7492C30.7457 58.64 30.5446 58.5757 30.337 58.5618C30.1293 58.5478 29.9214 58.5847 29.7312 58.6692L26.9303 59.9132L23.9256 56.9086L25.169 54.1088C25.2535 53.9186 25.2904 53.7106 25.2764 53.5029C25.2625 53.2953 25.1981 53.0941 25.0889 52.9169C24.1029 51.3175 23.3789 49.5708 22.9441 47.7429C22.8959 47.5405 22.7992 47.3528 22.6622 47.1962C22.5252 47.0396 22.3521 46.9187 22.1579 46.8439L19.3011 45.7443V41.495L22.1584 40.3952C22.3526 40.3204 22.5257 40.1993 22.6627 40.0426C22.7997 39.8859 22.8965 39.6982 22.9448 39.4957ZM40.2192 56.2956C47.2089 56.2956 52.8954 50.6091 52.8954 43.6194C52.8954 36.6297 47.2089 30.9431 40.2192 30.9431C33.2295 30.9431 27.543 36.6297 27.543 43.6194C27.543 50.6091 33.2295 56.2956 40.2192 56.2956ZM40.2192 33.5056C45.7959 33.5056 50.3329 38.0427 50.3329 43.6194C50.3329 49.1962 45.7959 53.7331 40.2192 53.7331C34.6426 53.7331 30.1055 49.196 30.1055 43.6194C30.1057 38.0426 34.6426 33.5056 40.2192 33.5056ZM44.3482 7.38753L40.6645 11.9416C40.5443 12.09 40.3925 12.2098 40.2202 12.2921C40.0478 12.3743 39.8593 12.417 39.6683 12.4171C39.3285 12.4171 39.0027 12.2821 38.7624 12.0418L36.1807 9.46027C36.0596 9.34179 35.9631 9.20045 35.8969 9.04444C35.8308 8.88842 35.7962 8.72084 35.7953 8.55138C35.7943 8.38192 35.827 8.21395 35.8914 8.05721C35.9558 7.90046 36.0507 7.75805 36.1705 7.63823C36.2903 7.5184 36.4328 7.42353 36.5895 7.35912C36.7462 7.29471 36.9142 7.26203 37.0837 7.26298C37.2531 7.26393 37.4207 7.29848 37.5767 7.36464C37.7327 7.43081 37.8741 7.52726 37.9926 7.64842L39.5675 9.22324L42.356 5.77603C42.4612 5.64326 42.5916 5.53264 42.7398 5.45059C42.888 5.36854 43.0509 5.31669 43.2193 5.29802C43.3876 5.27936 43.558 5.29425 43.7205 5.34185C43.8831 5.38945 44.0346 5.4688 44.1662 5.57532C44.2979 5.68184 44.4072 5.81342 44.4877 5.96243C44.5682 6.11144 44.6184 6.27494 44.6353 6.44346C44.6522 6.61199 44.6356 6.7822 44.5863 6.94424C44.537 7.10629 44.4561 7.25695 44.3482 7.38753Z" fill="#FCA311"/>
</svg>
