<svg width="82" height="82" viewBox="0 0 82 82" fill="none" xmlns="http://www.w3.org/2000/svg">
<path d="M36.7586 22.9283V21.5805C36.7586 20.5024 38.4208 20.5024 38.4208 21.5805V22.9283C38.4208 24.0064 36.7586 24.0064 36.7586 22.9283ZM39.1396 27.8249C41.1162 28.6785 42.7785 27.8699 42.8684 27.8249C43.9017 27.4655 43.3176 25.8931 42.2844 26.2525C42.1047 26.2975 41.1613 26.8814 39.7687 26.2525C38.7802 25.8482 38.1513 27.3756 39.1396 27.8249ZM48.5736 59.9907C48.5736 64.3033 45.0695 67.8524 40.7119 67.8524C36.3992 67.8524 32.8501 64.3483 32.8501 59.9907C32.8501 55.678 36.3542 52.1289 40.7119 52.1289C45.0695 52.1289 48.6186 55.633 48.5736 59.9907ZM46.9115 59.9907C46.9115 56.5764 44.1262 53.7912 40.712 53.7912C37.2978 53.7912 34.5125 56.5764 34.5125 59.9907C34.5125 63.4049 37.2978 66.1901 40.712 66.1901C44.1711 66.1901 46.9563 63.4049 46.9115 59.9907ZM76.6961 74.5011V76.0735C76.6961 76.5228 76.3367 76.8822 75.8875 76.8822H52.5719H29.2564H5.94065C5.49141 76.8822 5.13202 76.5228 5.13202 76.0735V74.5011C5.13202 71.4013 7.64775 68.9306 10.7026 68.9306H22.6075V65.8307C17.576 70.2783 9.53455 66.6842 9.53455 59.9457C9.53455 53.2071 17.576 49.6132 22.6075 54.0606V47.6364C22.6075 47.1871 22.9669 46.8277 23.4161 46.8277H27.1897V37.1242C27.1897 33.3056 30.2895 30.2059 34.108 30.2059H35.1413C33.4792 28.9481 32.311 27.0613 32.0415 24.9049H30.4691C28.7169 24.9049 27.2794 23.5124 27.2794 21.7602C27.3244 21.4907 26.7403 18.5257 29.6154 17.7619V16.0997C29.6154 10.7537 33.9731 6.44098 39.2741 6.44098H42.5086C47.8547 6.44098 52.1673 10.7987 52.1673 16.0997V17.7619C54.9976 18.5256 54.4585 21.5805 54.5034 21.7602C54.5034 23.5124 53.0658 24.9049 51.3137 24.9049H49.7413C49.4268 27.0613 48.3037 28.9481 46.6415 30.2059H47.6748C51.4934 30.2059 54.5931 33.3057 54.5931 37.1242V46.8277H58.4117C58.8609 46.8277 59.2203 47.1871 59.2203 47.6364V53.791C64.4315 49.7479 71.9338 53.4766 71.9338 59.9905C71.9338 66.5494 64.3866 70.1883 59.2203 66.19V68.9753H71.1252C74.1803 68.9754 76.6961 71.4912 76.6961 74.5011ZM64.0276 66.1901C67.4418 66.1901 70.227 63.4049 70.227 59.9907C70.227 54.0157 62.59 51.5 59.0409 56.3069C56.031 60.305 58.9061 66.1901 64.0276 66.1901ZM45.3841 31.8232C46.7318 34.9678 47.3159 35.3272 46.9115 36.0012C46.5073 36.6751 45.9232 36.2707 42.5988 36.4056L43.8118 46.7831H48.1695V41.8863C48.1695 40.8081 49.8318 40.8081 49.8318 41.8863V46.7831H52.9316V37.1242C52.9316 34.2491 50.5956 31.868 47.6754 31.868L45.3841 31.8232ZM42.6885 32.0479V31.8682C42.7335 31.8682 41.8799 31.8682 41.835 31.8682C41.9697 31.8682 39.7235 31.8682 39.2294 31.8682V32.0479C39.2294 32.9912 39.9931 33.755 40.9366 33.755C41.8799 33.755 42.6437 32.9912 42.6885 32.0479ZM40.8467 35.8215L39.5438 46.7829H42.1494L40.8467 35.8215ZM44.9347 34.7433L44.1261 32.9912C43.9464 33.71 43.4971 34.2941 42.913 34.7433H44.9347ZM49.9663 20.143L49.8316 20.8618V23.2428H51.3142C52.1678 23.2428 52.8416 22.5689 52.8416 21.7602V20.7719C52.8414 19.1995 50.6851 18.7054 49.9663 20.143ZM31.9518 20.7719C31.9518 18.7953 28.9418 18.7953 28.9418 20.7719V21.7602C28.9418 22.5689 29.6157 23.2428 30.4692 23.2428H31.9518V20.7719ZM32.7154 18.5706L38.9149 14.168C40.7119 12.9102 40.9365 19.5589 48.3489 19.9633C48.6634 18.7953 49.6518 17.9866 50.5503 17.7621V16.0998C50.5503 11.6973 46.9563 8.1034 42.5538 8.1034H39.3193C34.9168 8.1034 31.3228 11.6973 31.3228 16.0998V17.7171C31.6821 17.8518 32.3112 18.1662 32.7154 18.5706ZM38.5107 30.0262C39.544 30.2958 40.3526 30.1609 41.7452 30.2059C45.2044 30.2059 48.1244 27.4206 48.1244 23.8267V21.6254C46.9115 21.5805 45.7433 21.3558 44.6653 20.9515C45.2492 21.3558 44.9349 21.8949 45.0247 22.9281C45.0247 24.0063 43.3624 24.0063 43.3624 22.9281V21.5804C43.3624 21.0861 43.7668 20.6819 44.3508 20.7718C40.7569 19.2444 39.499 16.4141 39.1396 15.9648L33.6139 19.8733V20.7718V23.7816C33.6139 26.7917 35.6355 29.3523 38.5107 30.0262ZM37.7469 33.1259L36.9831 34.7431H38.9149C38.3758 34.3389 37.9266 33.7998 37.7469 33.1259ZM28.8071 46.7829H31.9069V41.8861C31.9069 40.8079 33.5692 40.8079 33.5692 41.8861V46.7829H37.837L39.0949 36.4054H35.6357C35.0068 36.4054 34.6024 35.7765 34.8719 35.2374L36.4443 31.868H34.1083C31.2332 31.868 28.8521 34.2041 28.8521 37.1242L28.8071 46.7829ZM22.6973 63.2252C25.2581 59.182 22.2481 53.7912 17.3963 53.7912C13.9821 53.7912 11.1968 56.5764 11.1968 59.9907C11.1968 66.235 19.4628 68.571 22.6973 63.2252ZM28.4476 74.546C28.4476 72.704 27.1449 71.0868 25.3029 70.7274C24.8088 70.5927 25.7073 70.6375 10.7026 70.6375C8.54623 70.6375 6.79412 72.3896 6.79412 74.546V75.2648H28.4476V74.546ZM51.7183 74.546C51.7183 72.3896 49.9662 70.6375 47.8098 70.6375H33.9731C31.8168 70.6375 30.0647 72.3896 30.0647 74.546V75.2648H51.7181V74.546H51.7183ZM57.6034 68.9304V64.393C55.7166 61.7426 55.8064 58.1037 57.6034 55.4981V48.445H43.1827C43.1379 48.445 43.1379 48.445 43.1379 48.445H38.6455C38.6005 48.445 38.6005 48.445 38.6005 48.445H24.2697V56.082C25.6174 58.4181 25.6623 61.4729 24.2697 63.8539V68.9753C24.4494 68.9753 24.9885 68.9304 25.6174 69.0651C27.1449 69.3797 28.4477 70.323 29.2564 71.6258C30.2447 70.0534 31.9518 68.9754 33.9734 68.9754H47.81C49.8316 68.9754 51.5836 70.0536 52.6169 71.6258C54.4137 68.6609 57.5585 68.9304 57.6034 68.9304ZM75.034 74.546C75.034 72.3896 73.2819 70.6375 71.1255 70.6375C64.881 70.6375 61.2871 70.6375 57.289 70.6375C55.1326 70.6375 53.3805 72.3896 53.3805 74.546V75.2648H75.034V74.546ZM7.37821 31.7782V23.647C7.37821 22.3892 8.41154 21.4009 9.6244 21.4009H23.8653C25.1232 21.4009 26.1115 22.434 26.1115 23.647V31.7783C26.1115 33.0362 25.0784 34.0245 23.8653 34.0245H19.0136C18.9687 35.1477 19.373 36.5853 18.2049 36.5853C17.7557 36.5853 17.8904 36.4506 14.1618 34.0245H9.6244C8.41154 34.0245 7.37821 33.0362 7.37821 31.7782ZM9.04047 31.7333C9.04047 32.0479 9.31002 32.3173 9.6244 32.3173C16.1833 32.5868 13.3082 31.5086 17.3963 34.1592V33.1709C17.3963 32.7217 17.7557 32.3623 18.2049 32.3623H23.8653C24.1797 32.3623 24.4493 32.0927 24.4493 31.7783V23.647C24.4493 23.3325 24.1797 23.0631 23.8653 23.0631H9.6244C9.30986 23.0631 9.04047 23.3327 9.04047 23.647V31.7333ZM11.601 29.3973C13.2183 29.3973 13.2183 26.9714 11.601 26.9714C9.98379 26.9714 9.98379 29.3973 11.601 29.3973ZM16.5427 29.3973C18.1599 29.3973 18.1599 26.9714 16.5427 26.9714C14.9254 26.9714 14.9254 29.3973 16.5427 29.3973ZM22.7423 28.1843C22.7423 27.5103 22.2032 26.9714 21.5293 26.9714C20.8554 26.9714 20.3163 27.5105 20.3163 28.1843C20.3164 29.8015 22.7423 29.8015 22.7423 28.1843Z" fill="#FCA311"/>
</svg>
