<svg width="82" height="82" viewBox="0 0 82 82" fill="none" xmlns="http://www.w3.org/2000/svg">
<path d="M5.125 41C5.1275 42.6851 5.54451 44.3437 6.33928 45.8295C7.13405 47.3154 8.28217 48.5829 9.68241 49.5203C8.67121 51.1131 8.02468 52.9098 7.7891 54.7817C7.55351 56.6537 7.73471 58.5545 8.31971 60.3482C8.90472 62.1419 9.87905 63.7841 11.173 65.1572C12.4669 66.5303 14.0484 67.6003 15.8042 68.2906C16.4077 70.3393 17.6406 72.1461 19.3284 73.4548C21.0161 74.7635 23.0729 75.5079 25.2073 75.5822C25.9315 77.1171 27.0767 78.4146 28.5098 79.3238C29.9429 80.2329 31.6047 80.7162 33.3018 80.7174C34.9989 80.7187 36.6614 80.2377 38.0958 79.3306C39.5301 78.4235 40.6773 77.1276 41.4036 75.5938H47.4062C47.7461 75.5938 48.0719 75.4588 48.3122 75.2185C48.5525 74.9782 48.6875 74.6523 48.6875 74.3125V72.1344C52.151 71.3169 55.4593 69.944 58.4839 68.069L60.0214 69.6065C60.2617 69.8467 60.5875 69.9816 60.9273 69.9816C61.267 69.9816 61.5929 69.8467 61.8331 69.6065L70.8928 60.548C71.133 60.3078 71.268 59.9819 71.268 59.6422C71.268 59.3025 71.133 58.9766 70.8928 58.7364L69.3553 57.1989C71.228 54.175 72.5992 50.8681 73.4156 47.4063H75.5938C75.9336 47.4063 76.2595 47.2713 76.4997 47.031C76.74 46.7907 76.875 46.4648 76.875 46.125V33.3125C76.875 32.9727 76.74 32.6468 76.4997 32.4065C76.2595 32.1662 75.9336 32.0313 75.5938 32.0313H73.4156C72.5989 28.5677 71.2264 25.2594 69.3515 22.2348L70.889 20.6973C71.1292 20.4571 71.2641 20.1312 71.2641 19.7915C71.2641 19.4517 71.1292 19.1259 70.889 18.8856L61.837 9.82207C61.5967 9.58188 61.2709 9.44694 60.9311 9.44694C60.5914 9.44694 60.2655 9.58188 60.0253 9.82207L58.4878 11.3596C55.4616 9.48696 52.1519 8.11706 48.6875 7.30314V5.12501C48.6875 4.7852 48.5525 4.45931 48.3122 4.21903C48.0719 3.97875 47.7461 3.84376 47.4062 3.84376H40.3081C39.3921 2.8182 38.2175 2.05752 36.9069 1.64125C35.5964 1.22498 34.1981 1.16839 32.8582 1.47741C31.5183 1.78642 30.286 2.44969 29.2901 3.39788C28.2943 4.34608 27.5714 5.54437 27.1971 6.86751C25.848 6.41776 24.4114 6.29478 23.0055 6.50869C21.5996 6.7226 20.2646 7.26729 19.1104 8.09793C17.9561 8.92857 17.0156 10.0214 16.3662 11.2866C15.7168 12.5517 15.3771 13.9529 15.375 15.375C15.375 15.4878 15.375 15.5992 15.375 15.7094C13.698 16.1408 12.1578 16.9904 10.8985 18.1788C9.63911 19.3672 8.70173 20.8556 8.17402 22.5048C7.6463 24.154 7.54548 25.9101 7.88098 27.6089C8.21648 29.3077 8.97734 30.8936 10.0924 32.2183C8.57987 33.1322 7.32825 34.4202 6.45819 35.9584C5.58814 37.4965 5.12899 39.2328 5.125 41ZM42.2812 20.5654C47.4882 20.8795 52.3788 23.1693 55.9545 26.9673C59.5303 30.7653 61.5215 35.7849 61.5215 41.0013C61.5215 46.2177 59.5303 51.2373 55.9545 55.0353C52.3788 58.8333 47.4882 61.1231 42.2812 61.4372V48.6875H44.1583L46.3364 51.9611C46.4538 52.1371 46.6129 52.2812 46.7996 52.3807C46.9863 52.4802 47.1947 52.5319 47.4062 52.5313H48.9232C49.2255 53.3861 49.8202 54.1066 50.6023 54.5654C51.3844 55.0242 52.3035 55.1917 53.1972 55.0384C54.0908 54.8851 54.9015 54.4208 55.486 53.7275C56.0704 53.0343 56.3909 52.1567 56.3909 51.25C56.3909 50.3433 56.0704 49.4658 55.486 48.7725C54.9015 48.0793 54.0908 47.6149 53.1972 47.4616C52.3035 47.3083 51.3844 47.4758 50.6023 47.9346C49.8202 48.3934 49.2255 49.1139 48.9232 49.9688H48.0917L45.9136 46.6952C45.7962 46.5192 45.6371 46.375 45.4504 46.2756C45.2637 46.1761 45.0553 46.1243 44.8438 46.125H42.2812V42.2813H51.4857C51.788 43.1361 52.3827 43.8566 53.1648 44.3154C53.9469 44.7742 54.866 44.9417 55.7597 44.7884C56.6533 44.6351 57.464 44.1708 58.0485 43.4775C58.6329 42.7843 58.9534 41.9067 58.9534 41C58.9534 40.0933 58.6329 39.2158 58.0485 38.5225C57.464 37.8293 56.6533 37.3649 55.7597 37.2116C54.866 37.0583 53.9469 37.2258 53.1648 37.6846C52.3827 38.1434 51.788 38.8639 51.4857 39.7188H42.2812V35.875H44.8438C45.0546 35.875 45.2623 35.823 45.4482 35.7236C45.6342 35.6241 45.7927 35.4803 45.9098 35.3049L48.0917 32.0313H48.9232C49.2255 32.8861 49.8202 33.6066 50.6023 34.0654C51.3844 34.5242 52.3035 34.6917 53.1972 34.5384C54.0908 34.3851 54.9015 33.9208 55.486 33.2275C56.0704 32.5343 56.3909 31.6567 56.3909 30.75C56.3909 29.8433 56.0704 28.9658 55.486 28.2725C54.9015 27.5793 54.0908 27.1149 53.1972 26.9616C52.3035 26.8083 51.3844 26.9758 50.6023 27.4346C49.8202 27.8934 49.2255 28.6139 48.9232 29.4688H47.4062C47.1954 29.4687 46.9877 29.5208 46.8018 29.6202C46.6158 29.7197 46.4573 29.8635 46.3402 30.0389L44.1583 33.3125H42.2812V20.5654ZM51.25 51.25C51.25 50.9966 51.3251 50.7489 51.4659 50.5382C51.6067 50.3275 51.8068 50.1633 52.0409 50.0663C52.2751 49.9693 52.5327 49.9439 52.7812 49.9934C53.0297 50.0428 53.258 50.1648 53.4372 50.344C53.6164 50.5232 53.7384 50.7515 53.7879 51.0001C53.8373 51.2486 53.8119 51.5062 53.715 51.7403C53.618 51.9744 53.4538 52.1745 53.2431 52.3153C53.0324 52.4561 52.7847 52.5313 52.5312 52.5313C52.1914 52.5313 51.8656 52.3963 51.6253 52.156C51.385 51.9157 51.25 51.5898 51.25 51.25ZM53.8125 41C53.8125 40.7466 53.8876 40.4989 54.0284 40.2882C54.1692 40.0775 54.3693 39.9133 54.6034 39.8163C54.8376 39.7193 55.0952 39.6939 55.3437 39.7434C55.5922 39.7928 55.8205 39.9148 55.9997 40.094C56.1789 40.2732 56.3009 40.5015 56.3504 40.75C56.3998 40.9986 56.3744 41.2562 56.2775 41.4903C56.1805 41.7244 56.0163 41.9245 55.8056 42.0653C55.5949 42.2061 55.3472 42.2813 55.0938 42.2813C54.7539 42.2813 54.4281 42.1463 54.1878 41.906C53.9475 41.6657 53.8125 41.3398 53.8125 41ZM51.25 30.75C51.25 30.4966 51.3251 30.2489 51.4659 30.0382C51.6067 29.8275 51.8068 29.6633 52.0409 29.5663C52.2751 29.4693 52.5327 29.4439 52.7812 29.4934C53.0297 29.5428 53.258 29.6648 53.4372 29.844C53.6164 30.0232 53.7384 30.2515 53.7879 30.5C53.8373 30.7486 53.8119 31.0062 53.715 31.2403C53.618 31.4744 53.4538 31.6745 53.2431 31.8153C53.0324 31.9561 52.7847 32.0313 52.5312 32.0313C52.1914 32.0313 51.8656 31.8963 51.6253 31.656C51.385 31.4157 51.25 31.0898 51.25 30.75ZM46.125 6.40626V8.32814C46.1249 8.6235 46.2269 8.90982 46.4137 9.13863C46.6005 9.36744 46.8606 9.52469 47.15 9.58376C51.0061 10.367 54.674 11.8898 57.9509 14.0681C58.1975 14.2315 58.4929 14.3045 58.7872 14.2749C59.0814 14.2452 59.3563 14.1147 59.5653 13.9054L60.9298 12.5409L68.1779 19.7889L66.8133 21.1534C66.6041 21.3624 66.4735 21.6373 66.4439 21.9316C66.4142 22.2258 66.4873 22.5213 66.6506 22.7678C68.829 26.0447 70.3518 29.7126 71.135 33.5688C71.1941 33.8582 71.3513 34.1183 71.5801 34.305C71.8089 34.4918 72.0953 34.5938 72.3906 34.5938H74.3125V44.8438H72.3906C72.0953 44.8437 71.8089 44.9457 71.5801 45.1325C71.3513 45.3193 71.1941 45.5794 71.135 45.8688C70.3518 49.7249 68.829 53.3928 66.6506 56.6697C66.4874 56.916 66.4144 57.2111 66.4438 57.505C66.4732 57.799 66.6033 58.0737 66.8121 58.2828L68.1779 59.6499L60.9298 66.8966L59.5653 65.5308C59.3562 65.3217 59.0812 65.1915 58.7869 65.162C58.4927 65.1326 58.1973 65.2059 57.9509 65.3694C54.6741 67.5479 51.0062 69.0708 47.15 69.8538C46.8606 69.9128 46.6005 70.0701 46.4137 70.2989C46.2269 70.5277 46.1249 70.814 46.125 71.1094V73.0313H42.1787C42.2434 72.6072 42.2777 72.179 42.2812 71.75V63.9972C48.1709 63.6862 53.7168 61.1276 57.7758 56.8486C61.8348 52.5697 64.0975 46.8966 64.0975 40.9987C64.0975 35.1009 61.8348 29.4278 57.7758 25.1488C53.7168 20.8699 48.1709 18.3112 42.2812 18.0003V8.96876C42.279 8.09527 42.1274 7.22859 41.8328 6.40626H46.125ZM12.7267 33.7853C12.9394 33.7074 13.1278 33.5745 13.2724 33.4002C13.4171 33.2258 13.5129 33.0162 13.5502 32.7927C13.5874 32.5692 13.5648 32.3398 13.4845 32.128C13.4042 31.9161 13.2691 31.7293 13.0931 31.5867C11.9257 30.6414 11.0616 29.3741 10.6079 27.9422C10.1542 26.5102 10.1309 24.9765 10.5409 23.5315C10.951 22.0864 11.7762 20.7935 12.9143 19.8132C14.0525 18.8329 15.4534 18.2083 16.9432 18.0169C17.1186 17.9951 17.2875 17.9372 17.4394 17.847C17.5912 17.7567 17.7228 17.636 17.8258 17.4925C17.9288 17.3489 18.001 17.1856 18.0379 17.0128C18.0747 16.84 18.0755 16.6615 18.04 16.4884C17.9686 16.1217 17.9343 15.7486 17.9375 15.375C17.9395 13.6766 18.6151 12.0483 19.8161 10.8474C21.0171 9.64639 22.6453 8.9708 24.3438 8.96876C25.4691 8.96379 26.5752 9.26067 27.5469 9.82848C27.7383 9.94153 27.9558 10.0028 28.178 10.0064C28.4003 10.0099 28.6197 9.9556 28.8146 9.84871C29.0095 9.74182 29.1732 9.58606 29.2897 9.39674C29.4062 9.20742 29.4714 8.99105 29.479 8.76889C29.558 7.44771 30.1452 6.20835 31.1174 5.31029C32.0896 4.41224 33.3716 3.92513 34.6949 3.95096C36.0182 3.97679 37.2801 4.51355 38.2166 5.44887C39.153 6.38418 39.6913 7.64551 39.7188 8.96876V23.7544C38.3136 22.4848 36.4875 21.7818 34.5938 21.7813V24.3438C35.953 24.3438 37.2565 24.8837 38.2177 25.8448C39.1788 26.806 39.7188 28.1095 39.7188 29.4688V71.75C39.7155 73.2603 39.1786 74.7209 38.2031 75.8739C37.2276 77.0269 35.876 77.7981 34.3871 78.0515C32.8982 78.3048 31.3676 78.024 30.0656 77.2585C28.7637 76.493 27.774 75.2922 27.2714 73.8679C27.1773 73.615 27.0078 73.3971 26.7857 73.2437C26.5636 73.0904 26.2997 73.0091 26.0299 73.0108C25.9659 73.0108 25.9021 73.0159 25.839 73.0261C25.7678 73.0317 25.6964 73.0334 25.625 73.0313C23.8775 73.0413 22.1795 72.4515 20.8144 71.3604C19.4494 70.2693 18.4999 68.743 18.1246 67.0363C18.0761 66.82 17.9723 66.6201 17.8234 66.4559C17.6745 66.2917 17.4856 66.169 17.2751 66.0997C15.7002 65.5801 14.2753 64.6854 13.123 63.4927C11.9707 62.3001 11.1256 60.8451 10.6605 59.2533C10.1954 57.6615 10.1242 55.9804 10.4531 54.355C10.7821 52.7295 11.5012 51.2084 12.5486 49.9226C12.6723 49.7716 12.7599 49.5943 12.8046 49.4042C12.8493 49.2141 12.85 49.0164 12.8066 48.826C12.7632 48.6356 12.6769 48.4577 12.5542 48.3058C12.4316 48.1539 12.2758 48.032 12.0988 47.9495C10.7295 47.3024 9.5818 46.2652 8.79984 44.968C8.01788 43.6709 7.6365 42.1718 7.70357 40.6587C7.77063 39.1456 8.28316 37.686 9.17681 36.4632C10.0705 35.2404 11.3054 34.3087 12.7267 33.7853Z" fill="#FCA311"/>
<path d="M24.3438 47.4062C26.382 47.4083 28.3361 48.2189 29.7774 49.6601C31.2186 51.1014 32.0292 53.0555 32.0312 55.0938H34.5938C34.5907 52.3762 33.5098 49.7709 31.5882 47.8493C29.6666 45.9277 27.0613 44.8468 24.3438 44.8438V47.4062ZM23.0625 58.9375H20.5C20.502 60.9757 21.3126 62.9299 22.7539 64.3711C24.1951 65.8124 26.1493 66.623 28.1875 66.625V64.0625C26.8283 64.0625 25.5247 63.5225 24.5636 62.5614C23.6025 61.6003 23.0625 60.2967 23.0625 58.9375ZM28.1875 23.0625V20.5C25.8097 20.5027 23.53 21.4485 21.8486 23.1299C20.1673 24.8113 19.2215 27.0909 19.2188 29.4688H21.7812C21.7833 27.7703 22.4589 26.1421 23.6598 24.9411C24.8608 23.7401 26.4891 23.0645 28.1875 23.0625Z" fill="#FCA311"/>
</svg>
