<svg width="82" height="82" viewBox="0 0 82 82" fill="none" xmlns="http://www.w3.org/2000/svg">
<g clip-path="url(#clip0_671_4728)">
<path d="M73.459 27.1611C73.3395 7.36149 51.8145 -6.54432 33.4157 3.14192C32.8159 2.61354 32.0498 2.3122 31.2507 2.29035C30.4516 2.2685 29.6702 2.52752 29.0424 3.02233C28.9736 2.1961 28.5962 1.42609 27.9851 0.865712C27.3741 0.305335 26.5744 -0.00426849 25.7453 -0.00141497H22.0895C21.2604 -0.00426849 20.4607 0.305335 19.8496 0.865712C19.2386 1.42609 18.8611 2.1961 18.7924 3.02233C18.1488 2.50932 17.3417 2.24586 16.5194 2.28038C15.6971 2.31491 14.9149 2.6451 14.3165 3.21025L11.754 5.78983C11.1696 6.37421 10.8259 7.1568 10.7911 7.98258C10.7563 8.80835 11.0329 9.61708 11.5661 10.2486C10.7399 10.3173 9.96988 10.6948 9.40951 11.3058C8.84913 11.9169 8.53952 12.7166 8.54238 13.5457V17.2015C8.53952 18.0306 8.84913 18.8303 9.40951 19.4413C9.96988 20.0524 10.7399 20.4298 11.5661 20.4986C11.0679 21.0997 10.7906 21.8533 10.7803 22.634C10.7803 24.3423 11.6515 24.8719 14.3336 27.554C14.9319 28.1191 15.7141 28.4493 16.5364 28.4838C17.3588 28.5184 18.1659 28.2549 18.8095 27.7419C18.8581 31.0413 19.5004 34.3051 20.7057 37.3769C24.4128 46.8069 30.597 47.4219 32.3907 59.4827C31.4196 60.3985 30.8442 61.6571 30.7867 62.9907C30.7293 64.3242 31.1945 65.6276 32.0832 66.6235C31.4252 67.3592 30.9936 68.2692 30.8403 69.2443C30.687 70.2193 30.8185 71.2179 31.219 72.12C31.6196 73.0221 32.2721 73.7893 33.0981 74.3295C33.9242 74.8697 34.8887 75.1599 35.8757 75.1652H37.7549C38.147 77.0961 39.1945 78.8321 40.7201 80.079C42.2457 81.3259 44.1554 82.0071 46.1257 82.0071C48.096 82.0071 50.0058 81.3259 51.5313 80.079C53.0569 78.8321 54.1045 77.0961 54.4965 75.1652H56.3757C57.3627 75.1599 58.3272 74.8697 59.1533 74.3295C59.9793 73.7893 60.6319 73.0221 61.0324 72.12C61.4329 71.2179 61.5644 70.2193 61.4111 69.2443C61.2578 68.2692 60.8262 67.3592 60.1682 66.6235C61.0536 65.618 61.51 64.3058 61.4398 62.9679C61.3695 61.63 60.7782 60.3729 59.7924 59.4656C62.0645 44.8081 73.5445 44.2615 73.459 27.1611ZM16.674 25.0427L14.2482 22.6169C14.6765 22.1545 14.9633 21.5789 15.0746 20.9585C15.1859 20.3381 15.117 19.6988 14.8761 19.1163C14.6352 18.5339 14.2324 18.0327 13.7154 17.6721C13.1984 17.3115 12.5889 17.1067 11.959 17.0819V13.6652C12.5889 13.6404 13.1984 13.4356 13.7154 13.075C14.2324 12.7145 14.6352 12.2133 14.8761 11.6308C15.117 11.0483 15.1859 10.409 15.0746 9.7886C14.9633 9.16819 14.6765 8.59267 14.2482 8.13024L16.674 5.70441C17.1365 6.13273 17.712 6.41952 18.3324 6.53081C18.9528 6.64209 19.5921 6.5732 20.1746 6.33231C20.7571 6.09141 21.2583 5.6886 21.6189 5.1716C21.9794 4.6546 22.1842 4.04508 22.209 3.41525H25.6257C25.6505 4.04508 25.8553 4.6546 26.2159 5.1716C26.5765 5.6886 27.0777 6.09141 27.6602 6.33231C28.2426 6.5732 28.8819 6.64209 29.5023 6.53081C30.1228 6.41952 30.6983 6.13273 31.1607 5.70441L33.5865 8.13024C33.1582 8.59267 32.8714 9.16819 32.7601 9.7886C32.6489 10.409 32.7178 11.0483 32.9587 11.6308C33.1995 12.2133 33.6024 12.7145 34.1194 13.075C34.6364 13.4356 35.2459 13.6404 35.8757 13.6652V17.0819C35.2459 17.1067 34.6364 17.3115 34.1194 17.6721C33.6024 18.0327 33.1995 18.5339 32.9587 19.1163C32.7178 19.6988 32.6489 20.3381 32.7601 20.9585C32.8714 21.5789 33.1582 22.1545 33.5865 22.6169L31.1607 25.0427C30.6983 24.6144 30.1228 24.3276 29.5023 24.2163C28.8819 24.105 28.2426 24.1739 27.6602 24.4148C27.0777 24.6557 26.5765 25.0585 26.2159 25.5755C25.8553 26.0925 25.6505 26.7021 25.6257 27.3319H22.209C22.1842 26.7021 21.9794 26.0925 21.6189 25.5755C21.2583 25.0585 20.7571 24.6557 20.1746 24.4148C19.5921 24.1739 18.9528 24.105 18.3324 24.2163C17.712 24.3276 17.1365 24.6144 16.674 25.0427ZM41.2911 75.1652H50.9603C50.6081 76.1662 49.9539 77.0333 49.0879 77.6467C48.2219 78.26 47.1869 78.5895 46.1257 78.5895C45.0645 78.5895 44.0295 78.26 43.1635 77.6467C42.2975 77.0333 41.6433 76.1662 41.2911 75.1652ZM56.3757 71.7485H35.8757C35.4226 71.7485 34.9881 71.5685 34.6677 71.2482C34.3474 70.9278 34.1674 70.4933 34.1674 70.0402C34.1674 69.5871 34.3474 69.1526 34.6677 68.8322C34.9881 68.5118 35.4226 68.3318 35.8757 68.3318H56.3757C56.8288 68.3318 57.2633 68.5118 57.5837 68.8322C57.9041 69.1526 58.084 69.5871 58.084 70.0402C58.084 70.4933 57.9041 70.9278 57.5837 71.2482C57.2633 71.5685 56.8288 71.7485 56.3757 71.7485ZM56.3757 64.9152H35.8757C35.4226 64.9152 34.9881 64.7352 34.6677 64.4148C34.3474 64.0945 34.1674 63.6599 34.1674 63.2069C34.1674 62.7538 34.3474 62.3192 34.6677 61.9989C34.9881 61.6785 35.4226 61.4985 35.8757 61.4985H56.3757C56.8288 61.4985 57.2633 61.6785 57.5837 61.9989C57.9041 62.3192 58.084 62.7538 58.084 63.2069C58.084 63.6599 57.9041 64.0945 57.5837 64.4148C57.2633 64.7352 56.8288 64.9152 56.3757 64.9152ZM35.8757 58.0819V37.3769L46.1257 36.0956V58.0819H35.8757ZM48.9615 32.884C48.3295 32.3031 47.8682 32.4398 46.1257 32.6619V25.6236H56.3757V58.0819H49.5424C49.5424 32.286 49.7986 33.6015 48.9615 32.884ZM59.7924 49.284V23.9152C59.7924 23.4622 59.6124 23.0276 59.292 22.7073C58.9716 22.3869 58.5371 22.2069 58.084 22.2069H44.4174C43.9643 22.2069 43.5298 22.3869 43.2094 22.7073C42.889 23.0276 42.709 23.4622 42.709 23.9152V33.089L33.9624 34.1652C33.5457 34.2156 33.1621 34.4176 32.8849 34.7326C32.6076 35.0477 32.456 35.4538 32.459 35.8735V49.096C28.9399 42.6556 23.9174 40.5544 22.4824 30.7486H25.7453C26.5744 30.7514 27.3741 30.4418 27.9851 29.8814C28.5962 29.321 28.9736 28.551 29.0424 27.7248C29.686 28.2378 30.4931 28.5013 31.3154 28.4668C32.1377 28.4322 32.9199 28.102 33.5182 27.5369L36.0978 24.9573C36.6798 24.3707 37.0204 23.587 37.052 22.7612C37.0837 21.9355 36.8041 21.128 36.2686 20.4986C37.0949 20.4298 37.8649 20.0524 38.4252 19.4413C38.9856 18.8303 39.2952 18.0306 39.2924 17.2015V13.5457C39.2952 12.7166 38.9856 11.9169 38.4252 11.3058C37.8649 10.6948 37.0949 10.3173 36.2686 10.2486C36.8262 9.59677 37.1062 8.75249 37.0487 7.89669C36.9913 7.04088 36.6008 6.24164 35.9611 5.67025C39.5993 3.99623 43.5982 3.25783 47.5943 3.52212C51.5905 3.78641 55.4573 5.04502 58.8433 7.18359C62.2294 9.32216 65.0275 12.2729 66.9832 15.7677C68.939 19.2626 69.9906 23.1907 70.0424 27.1952C70.0859 33.0396 67.9757 38.6953 64.1145 43.0827C62.448 44.9829 60.9983 47.0628 59.7924 49.284Z" fill="#FCA311" fill-opacity="0.8"/>
<path d="M30.7509 15.3753C30.7509 14.0238 30.3501 12.7027 29.5993 11.5789C28.8484 10.4552 27.7812 9.57935 26.5326 9.06215C25.2839 8.54495 23.91 8.40963 22.5844 8.6733C21.2589 8.93696 20.0413 9.58777 19.0857 10.5434C18.13 11.4991 17.4792 12.7167 17.2155 14.0422C16.9519 15.3677 17.0872 16.7417 17.6044 17.9903C18.1216 19.239 18.9974 20.3062 20.1212 21.057C21.2449 21.8079 22.5661 22.2086 23.9176 22.2086C25.7299 22.2086 27.468 21.4887 28.7495 20.2072C30.031 18.9257 30.7509 17.1876 30.7509 15.3753ZM23.9176 18.792C23.2418 18.792 22.5812 18.5916 22.0194 18.2162C21.4575 17.8407 21.0196 17.3071 20.761 16.6828C20.5024 16.0585 20.4347 15.3715 20.5665 14.7088C20.6984 14.046 21.0238 13.4372 21.5016 12.9594C21.9794 12.4815 22.5882 12.1561 23.251 12.0243C23.9138 11.8925 24.6008 11.9601 25.2251 12.2187C25.8494 12.4773 26.383 12.9153 26.7584 13.4771C27.1338 14.039 27.3342 14.6996 27.3342 15.3753C27.3342 16.2815 26.9743 17.1505 26.3335 17.7913C25.6928 18.432 24.8237 18.792 23.9176 18.792Z" fill="#FCA311" fill-opacity="0.8"/>
</g>
<defs>
<clipPath id="clip0_671_4728">
<rect width="82" height="81.9999" rx="22.5" fill="white"/>
</clipPath>
</defs>
</svg>
