<svg width="82" height="82" viewBox="0 0 82 82" fill="none" xmlns="http://www.w3.org/2000/svg">
<path d="M47.0347 64.6518H12.9919C11.4415 64.6518 10.1859 63.3962 10.1859 61.8459V12.569C10.1859 11.0315 11.4415 9.77588 12.9919 9.77588H20.4103C20.9228 9.77588 21.3456 10.1987 21.3456 10.7112C21.3456 11.2237 20.9228 11.6465 20.4103 11.6465H12.9919C12.4794 11.6465 12.0694 12.0565 12.0694 12.5562V61.8331C12.0694 62.3456 12.4794 62.7556 12.9919 62.7556H47.0347C47.5472 62.7556 47.97 63.1784 47.97 63.6909C47.97 64.2034 47.56 64.6518 47.0347 64.6518ZM58.9503 45.369C58.4378 45.369 58.015 44.9462 58.015 44.4337V12.569C58.015 12.0693 57.605 11.6593 57.1053 11.6593H49.6868C49.1743 11.6593 48.7515 11.2365 48.7515 10.724C48.7515 10.2115 49.1743 9.78869 49.6868 9.78869H57.1053C58.6428 9.78869 59.8984 11.0443 59.8984 12.5818V44.4337C59.8984 44.9462 59.4756 45.369 58.9503 45.369Z" fill="#FCA311"/>
<path d="M49.7638 14.965H20.3334C19.8209 14.965 19.3981 14.5422 19.3981 14.0297V11.6209C19.3981 8.08469 22.2681 5.21469 25.8044 5.21469H28.9819C29.4303 2.26781 31.98 0 35.0422 0C38.1172 0 40.6669 2.26781 41.1153 5.20187H44.2928C47.8291 5.20187 50.6991 8.07188 50.6991 11.6081V14.0169C50.6991 14.5422 50.2891 14.965 49.7638 14.965ZM21.2688 13.0944H48.8284V11.6209C48.8284 9.1225 46.7913 7.08531 44.2928 7.08531H40.2569C39.7444 7.08531 39.3216 6.6625 39.3216 6.15C39.3216 3.7925 37.4125 1.88344 35.055 1.88344C32.6975 1.88344 30.7884 3.7925 30.7884 6.15C30.7884 6.6625 30.3656 7.08531 29.8531 7.08531H25.8172C23.3188 7.08531 21.2816 9.1225 21.2816 11.6209V13.0944H21.2688Z" fill="#FCA311"/>
<path d="M35.0422 8.8663C33.3382 8.8663 31.9544 7.48255 31.9544 5.77849C31.9544 4.07442 33.3382 2.69067 35.0422 2.69067C36.7463 2.69067 38.13 4.07442 38.13 5.77849C38.13 7.48255 36.7463 8.8663 35.0422 8.8663ZM35.0422 4.5613C34.376 4.5613 33.825 5.09942 33.825 5.77849C33.825 6.45755 34.3631 6.99567 35.0422 6.99567C35.7085 6.99567 36.2594 6.45755 36.2594 5.77849C36.2594 5.09942 35.7085 4.5613 35.0422 4.5613ZM28.021 31.1472H19.885C18.8472 31.1472 18.0016 30.3016 18.0016 29.2638V21.1279C18.0016 20.09 18.8472 19.2444 19.885 19.2444H28.021C29.0588 19.2444 29.9044 20.09 29.9044 21.1279V29.2638C29.8916 30.3016 29.046 31.1472 28.021 31.1472ZM19.8722 21.1279V29.2638H28.0082V21.1279H19.8722ZM50.6094 23.4982H33.3125C32.8 23.4982 32.3772 23.0754 32.3772 22.5629C32.3772 22.0504 32.8 21.6275 33.3125 21.6275H50.6094C51.1219 21.6275 51.5447 22.0504 51.5447 22.5629C51.5447 23.0882 51.1219 23.4982 50.6094 23.4982ZM50.6094 28.7641H33.3125C32.8 28.7641 32.3772 28.3413 32.3772 27.8288C32.3772 27.3163 32.8 26.8935 33.3125 26.8935H50.6094C51.1219 26.8935 51.5447 27.3163 51.5447 27.8288C51.5447 28.3413 51.1219 28.7641 50.6094 28.7641ZM50.6094 36.3619H33.3125C32.8 36.3619 32.3772 35.9391 32.3772 35.4266C32.3772 34.9141 32.8 34.4913 33.3125 34.4913H50.6094C51.1219 34.4913 51.5447 34.9141 51.5447 35.4266C51.5447 35.9391 51.1219 36.3619 50.6094 36.3619ZM50.6094 41.615H33.3125C32.8 41.615 32.3772 41.1922 32.3772 40.6797C32.3772 40.1672 32.8 39.7444 33.3125 39.7444H50.6094C51.1219 39.7444 51.5447 40.1672 51.5447 40.6797C51.5447 41.1922 51.1219 41.615 50.6094 41.615ZM44.1391 49.2257H33.3125C32.8 49.2257 32.3772 48.8029 32.3772 48.2904C32.3772 47.7779 32.8 47.355 33.3125 47.355H44.1391C44.6516 47.355 45.0744 47.7779 45.0744 48.2904C45.0744 48.8029 44.6516 49.2257 44.1391 49.2257ZM44.1391 54.4788H33.3125C32.8 54.4788 32.3772 54.056 32.3772 53.5435C32.3772 53.031 32.8 52.6082 33.3125 52.6082H44.1391C44.6516 52.6082 45.0744 53.031 45.0744 53.5435C45.0744 54.056 44.6516 54.4788 44.1391 54.4788Z" fill="#FCA311"/>
<path d="M23.0881 27.7262C22.8447 27.7262 22.6013 27.6365 22.4219 27.4572L20.8844 25.9197C20.5128 25.5481 20.5128 24.9587 20.8844 24.5872C21.2559 24.2156 21.8453 24.2156 22.2169 24.5872L23.1138 25.484L26.0991 22.6397C26.4706 22.2809 27.0728 22.2937 27.4316 22.6653C27.7903 23.0369 27.7775 23.639 27.4059 23.9978L23.7544 27.4828C23.5494 27.6494 23.3188 27.7262 23.0881 27.7262Z" fill="#14213D"/>
<path d="M28.021 44.2416H19.885C18.8472 44.2416 18.0016 43.3959 18.0016 42.3581V34.2222C18.0016 33.1844 18.8472 32.3387 19.885 32.3387H28.021C29.0588 32.3387 29.9044 33.1844 29.9044 34.2222V42.3581C29.8916 43.3959 29.046 44.2416 28.021 44.2416ZM19.8722 34.2222V42.3581H28.0082V34.2222H19.8722Z" fill="#FCA311"/>
<path d="M23.0881 40.8334C22.8447 40.8334 22.6013 40.7437 22.4219 40.5643L20.8844 39.0268C20.5128 38.6553 20.5128 38.0659 20.8844 37.6943C21.2559 37.3228 21.8453 37.3228 22.2169 37.6943L23.1138 38.5912L26.0991 35.7468C26.4706 35.3881 27.0728 35.4009 27.4316 35.7725C27.7903 36.144 27.7775 36.7462 27.4059 37.105L23.7544 40.59C23.5494 40.7437 23.3188 40.8334 23.0881 40.8334Z" fill="#14213D"/>
<path d="M28.021 57.3487H19.885C18.8472 57.3487 18.0016 56.5031 18.0016 55.4653V47.3294C18.0016 46.2915 18.8472 45.4459 19.885 45.4459H28.021C29.0588 45.4459 29.9044 46.2915 29.9044 47.3294V55.4653C29.8916 56.5031 29.046 57.3487 28.021 57.3487ZM19.8722 47.3294V55.4653H28.0082V47.3294H19.8722Z" fill="#FCA311"/>
<path d="M23.0881 53.9406C22.8447 53.9406 22.6013 53.851 22.4219 53.6716L20.8844 52.1341C20.5128 51.7625 20.5128 51.1731 20.8844 50.8016C21.2559 50.43 21.8453 50.43 22.2169 50.8016L23.1138 51.6985L26.0991 48.8541C26.4706 48.4953 27.0728 48.5081 27.4316 48.8797C27.7903 49.2513 27.7775 49.8535 27.4059 50.2122L23.7544 53.6972C23.5494 53.851 23.3188 53.9406 23.0881 53.9406Z" fill="#14213D"/>
<path d="M68.9184 82H48.995C47.3934 82 46.0994 80.7059 46.0994 79.1044V46.3812C46.0994 44.7797 47.3934 43.4856 48.995 43.4856H68.9184C70.52 43.4856 71.8141 44.7797 71.8141 46.3812V79.1044C71.8012 80.7059 70.5072 82 68.9184 82ZM48.995 45.3562C48.4312 45.3562 47.9828 45.8175 47.9828 46.3684V79.0915C47.9828 79.6553 48.4441 80.1037 48.995 80.1037H68.9184C69.4822 80.1037 69.9306 79.6425 69.9306 79.0915V46.3812C69.9306 45.8175 69.4694 45.369 68.9184 45.369H48.995V45.3562Z" fill="#FCA311"/>
<path d="M68.4572 75.2094H49.4562C48.9437 75.2094 48.5209 74.7865 48.5209 74.274V48.9181C48.5209 48.4056 48.9437 47.9828 49.4562 47.9828H68.4572C68.9697 47.9828 69.3925 48.4056 69.3925 48.9181V74.2612C69.3925 74.7865 68.9697 75.2094 68.4572 75.2094ZM50.3916 73.3259H67.5219V49.8534H50.3916V73.3259ZM58.9503 80.0781C57.6306 80.0781 56.5544 79.0019 56.5544 77.6822C56.5544 76.3625 57.6306 75.2862 58.9503 75.2862C60.27 75.2862 61.3463 76.3625 61.3463 77.6822C61.3463 79.0019 60.27 80.0781 58.9503 80.0781ZM58.9503 77.1697C58.6684 77.1697 58.4378 77.4003 58.4378 77.6822C58.4378 77.964 58.6684 78.1947 58.9503 78.1947C59.2322 78.1947 59.4628 77.964 59.4628 77.6822C59.4756 77.4003 59.2322 77.1697 58.9503 77.1697Z" fill="#FCA311"/>
<path d="M61.5769 47.6112H56.3366C55.8241 47.6112 55.4012 47.1884 55.4012 46.6759C55.4012 46.1634 55.8241 45.7406 56.3366 45.7406H61.5769C62.0894 45.7406 62.5122 46.1634 62.5122 46.6759C62.5122 47.1884 62.0894 47.6112 61.5769 47.6112Z" fill="#FCA311"/>
<path d="M52.8014 58.091C52.5611 58.091 52.3208 57.9801 52.1679 57.7692C51.8948 57.4141 51.9604 56.9036 52.3208 56.6261C56.6354 53.2635 61.2558 53.2635 65.6797 56.615C66.0292 56.8814 66.1057 57.3919 65.8435 57.7581C65.5814 58.1132 65.0789 58.1909 64.7184 57.9246C60.8189 54.9726 57.0723 54.9726 53.2821 57.9246C53.1401 58.0356 52.9653 58.091 52.8014 58.091Z" fill="#14213D"/>
<path d="M54.5051 61.1889C54.2647 61.1889 54.0244 61.0779 53.8715 60.867C53.5984 60.5119 53.664 60.0014 54.0244 59.724C57.2358 57.2159 60.6875 57.2159 63.9862 59.7129C64.3358 59.9792 64.4122 60.4897 64.1501 60.8559C63.8879 61.2111 63.3855 61.2887 63.025 61.0224C60.2833 58.9471 57.6618 58.9471 54.9966 61.0224C54.8437 61.1334 54.6689 61.1889 54.5051 61.1889ZM56.5477 64.2185C56.3073 64.2185 56.067 64.1076 55.9141 63.8967C55.641 63.5416 55.7066 63.0311 56.067 62.7536C57.9349 61.2998 60.0212 61.2887 61.9436 62.7425C62.2932 63.0089 62.3696 63.5194 62.1075 63.8856C61.8453 64.2407 61.3429 64.3184 60.9824 64.0521C59.6389 63.0311 58.35 63.0311 57.0392 64.0521C56.8863 64.1631 56.7115 64.2185 56.5477 64.2185ZM59.0053 68.1028C57.9895 68.1028 57.1593 67.2593 57.1593 66.2272C57.1593 65.1952 57.9895 64.3517 59.0053 64.3517C60.0212 64.3517 60.8513 65.1952 60.8513 66.2272C60.8513 67.2704 60.0212 68.1028 59.0053 68.1028ZM59.0053 65.9831C58.8743 65.9831 58.765 66.0941 58.765 66.2272C58.765 66.5047 59.2456 66.5047 59.2456 66.2272C59.2456 66.0941 59.1364 65.9831 59.0053 65.9831Z" fill="#14213D"/>
</svg>
