<svg width="82" height="82" viewBox="0 0 82 82" fill="none" xmlns="http://www.w3.org/2000/svg">
<path d="M43.5625 30.75H46.125C46.125 23.6852 40.3773 17.9375 33.3125 17.9375V20.5C38.9641 20.5 43.5625 25.0984 43.5625 30.75ZM68.5469 24.3437H58.9375C56.1111 24.3437 53.8125 26.6423 53.8125 29.4687C53.8125 32.2952 56.1111 34.5937 58.9375 34.5937H68.5469C69.6065 34.5937 70.4688 35.456 70.4688 36.5156C70.4688 37.5752 69.6065 38.4375 68.5469 38.4375H55.0938V41H68.5469C71.0197 41 73.0312 38.9884 73.0312 36.5156C73.0312 34.0428 71.0197 32.0312 68.5469 32.0312H58.9375C57.5243 32.0312 56.375 30.882 56.375 29.4687C56.375 28.0555 57.5243 26.9062 58.9375 26.9062H68.5469C71.0197 26.9062 73.0312 24.8947 73.0312 22.4219C73.0312 19.9491 71.0197 17.9375 68.5469 17.9375H67.9062C65.7871 17.9375 64.0625 16.2129 64.0625 14.0937V8.21793L67.0004 11.1558L68.8121 9.34415L63.6871 4.21915L63.6794 4.22684C63.5628 4.11025 63.4308 4.00646 63.272 3.94112C62.7928 3.74125 62.2431 3.85143 61.8754 4.21915L56.7504 9.34415L58.5621 11.1558L61.5 8.21793V14.0937C61.5 17.6262 64.3738 20.5 67.9062 20.5H68.5469C69.6065 20.5 70.4688 21.3623 70.4688 22.4219C70.4688 23.4815 69.6065 24.3437 68.5469 24.3437Z" fill="#FCA311"/>
<path d="M7.15017 11.7713L5.66162 13.8555L14.6304 20.261L16.119 18.1767L7.15017 11.7713Z" fill="#FCA311"/>
<path d="M21.6764 2.05815L19.3223 3.06708L23.1662 12.0361L25.5203 11.0271L21.6764 2.05815Z" fill="#FCA311"/>
<path d="M12.8125 28.1875H2.5625V30.75H12.8125V28.1875Z" fill="#FCA311"/>
<path d="M74.3125 61.5H73.0312V52.5312C73.0312 51.8227 72.4585 51.25 71.75 51.25H60.2188C59.5102 51.25 58.9375 51.8227 58.9375 52.5312C58.9375 55.3577 56.6389 57.6562 53.8125 57.6562C50.9861 57.6562 48.6875 55.3577 48.6875 52.5312C48.6875 51.8227 48.1148 51.25 47.4062 51.25H44.608C44.2211 50.1648 43.3678 49.3102 42.2825 48.9232C42.2838 47.7112 42.8155 46.5952 43.7073 45.9379C48.3595 42.5093 51.25 36.6886 51.25 30.75C51.25 20.8588 43.2038 12.8125 33.3125 12.8125C23.4213 12.8125 15.375 20.8588 15.375 30.75C15.375 36.6886 18.2655 42.5093 22.919 45.9379C23.8108 46.5952 24.3425 47.7099 24.3438 48.9232C22.8562 49.4537 21.7812 50.8631 21.7812 52.5312C21.7812 53.4973 22.1515 54.3711 22.7422 55.0476C22.1515 55.7344 21.7812 56.6466 21.7812 57.6562C21.7812 59.7754 23.3777 61.5 25.3393 61.5H27.0357C27.6314 64.42 30.2183 66.625 33.3125 66.625C36.4067 66.625 38.9936 64.42 39.5893 61.5H39.7188V79.4375C39.7188 80.146 40.2915 80.7188 41 80.7188H71.75C72.4585 80.7188 73.0312 80.146 73.0312 79.4375V74.3125H74.3125C77.8449 74.3125 80.7188 71.4387 80.7188 67.9062C80.7188 64.3738 77.8449 61.5 74.3125 61.5ZM24.3438 52.5312C24.3438 51.824 24.9178 51.25 25.625 51.25H41C41.7073 51.25 42.2812 51.824 42.2812 52.5312C42.2812 53.2385 41.7073 53.8125 41 53.8125H25.625C24.9178 53.8125 24.3438 53.2385 24.3438 52.5312ZM17.9375 30.75C17.9375 22.272 24.8345 15.375 33.3125 15.375C41.7905 15.375 48.6875 22.272 48.6875 30.75C48.6875 35.8904 46.1967 40.9206 42.1852 43.8764C40.7027 44.9693 39.802 46.7554 39.7328 48.6875H26.8922C26.8217 46.7554 25.9223 44.9693 24.4398 43.8764C20.4283 40.9206 17.9375 35.8904 17.9375 30.75ZM24.3438 57.6562C24.3438 56.9618 24.7999 56.375 25.3393 56.375H25.625H41H41.2857C41.8251 56.375 42.2812 56.9618 42.2812 57.6562C42.2812 58.3507 41.8251 58.9375 41.2857 58.9375H25.3393C24.7999 58.9375 24.3438 58.3507 24.3438 57.6562ZM33.3125 64.0625C31.6443 64.0625 30.2349 62.9875 29.7045 61.5H36.9192C36.3901 62.9875 34.9807 64.0625 33.3125 64.0625ZM74.3125 71.75H71.75C71.0415 71.75 70.4688 72.3227 70.4688 73.0312V78.1562H42.2812V61.3283C43.756 60.8594 44.8438 59.4 44.8438 57.6562C44.8438 56.6466 44.4735 55.7344 43.8828 55.0476C44.198 54.6876 44.444 54.2725 44.608 53.8125H46.2313C46.8438 57.4436 50.0098 60.2188 53.8125 60.2188C57.6152 60.2188 60.7812 57.4436 61.3937 53.8125H70.4688V62.7812C70.4688 63.4898 71.0415 64.0625 71.75 64.0625H74.3125C76.4317 64.0625 78.1562 65.7871 78.1562 67.9062C78.1562 70.0254 76.4317 71.75 74.3125 71.75Z" fill="#FCA311"/>
</svg>
