<svg width="82" height="82" viewBox="0 0 82 82" fill="none" xmlns="http://www.w3.org/2000/svg">
<path d="M49.9688 44.8438H44.8438V47.4062H49.9688V44.8438Z" fill="#FCA311"/>
<path d="M57.6562 44.8438H52.5312V47.4062H57.6562V44.8438Z" fill="#FCA311"/>
<path d="M65.3438 44.8438H60.2188V47.4062H65.3438V44.8438Z" fill="#FCA311"/>
<path d="M2.83157 53.0309C2.69696 53.213 2.61301 53.4275 2.58825 53.6525C2.56349 53.8776 2.59882 54.1052 2.69063 54.3122C2.78697 54.5398 2.9471 54.7347 3.1517 54.8734C3.3563 55.012 3.59664 55.0886 3.84376 55.0938H14.7728L16.6563 60.6928L20.6153 70.9428C20.6689 71.069 20.7425 71.1858 20.8331 71.2887C20.6545 71.6927 20.5587 72.1284 20.5513 72.57V76.055C20.5544 76.9423 20.9048 77.7931 21.5274 78.4252C22.15 79.0574 22.9954 79.4208 23.8825 79.4375H37.6175C38.5136 79.4341 39.372 79.0767 40.0056 78.4431C40.6392 77.8094 40.9966 76.9511 41 76.055V72.57C40.9896 72.1287 40.8939 71.6936 40.7181 71.2887C40.8217 71.1738 40.9003 71.0385 40.9488 70.8916L43.1013 64.4853C43.4215 63.5232 43.5774 62.5139 43.5625 61.5V55.0938H78.1563C78.3964 55.0942 78.6318 55.0272 78.8357 54.9004C79.0396 54.7735 79.2037 54.5919 79.3094 54.3762C79.4012 54.1693 79.4365 53.9417 79.4118 53.7166C79.387 53.4915 79.3031 53.2771 79.1684 53.095L70.4688 41.8456V3.84375C70.4688 3.50394 70.3338 3.17805 70.0935 2.93777C69.8532 2.69749 69.5273 2.5625 69.1875 2.5625H12.8125C12.4727 2.5625 12.1468 2.69749 11.9065 2.93777C11.6662 3.17805 11.5313 3.50394 11.5313 3.84375V41.8456L2.83157 53.0309ZM6.40626 52.5312L13.3891 43.5625H20.5V47.8419V47.6625L19.2828 48.0469L20.5 47.6369C20.2354 46.8257 19.7212 46.1188 19.0309 45.6172C18.3407 45.1156 17.5095 44.8449 16.6563 44.8438C16.2635 44.8385 15.873 44.9036 15.5031 45.0359C15.0364 45.197 14.6061 45.4485 14.2367 45.7761C13.8674 46.1037 13.5663 46.5009 13.3506 46.945C12.874 47.9105 12.8003 49.0258 13.1456 50.0456L13.94 52.5312H6.40626ZM25.625 28.1875V24.4719C26.835 24.7186 27.9479 25.3097 28.8297 26.1742C29.7116 27.0387 30.3248 28.1396 30.5955 29.3444C30.8663 30.5492 30.783 31.8066 30.3558 32.9653C29.9286 34.1239 29.1756 35.1343 28.1875 35.875V33.5047C28.1875 32.4853 27.7825 31.5076 27.0617 30.7867C26.3409 30.0659 25.3632 29.6609 24.3438 29.6609C23.3243 29.6609 22.3467 30.0659 21.6258 30.7867C20.905 31.5076 20.5 32.4853 20.5 33.5047V35.875C19.5119 35.1343 18.7589 34.1239 18.3317 32.9653C17.9045 31.8066 17.8213 30.5492 18.092 29.3444C18.3628 28.1396 18.976 27.0387 19.8578 26.1742C20.7396 25.3097 21.8525 24.7186 23.0625 24.4719V28.1875H25.625ZM38.4375 76.055C38.4375 76.2725 38.3511 76.481 38.1973 76.6348C38.0436 76.7886 37.835 76.875 37.6175 76.875H23.8825C23.665 76.875 23.4565 76.7886 23.3027 76.6348C23.1489 76.481 23.0625 76.2725 23.0625 76.055V72.57C23.0625 72.3525 23.1489 72.144 23.3027 71.9902C23.4565 71.8364 23.665 71.75 23.8825 71.75H37.6175C37.835 71.75 38.0436 71.8364 38.1973 71.9902C38.3511 72.144 38.4375 72.3525 38.4375 72.57V76.055ZM41 61.5C40.9988 62.2009 40.8864 62.8972 40.6669 63.5628L38.7963 69.1875H22.6525L19.0138 59.8344L15.6825 49.5844L15.5928 49.2897L14.3116 49.6612L15.5288 49.2512C15.4591 49.0607 15.4289 48.8579 15.4399 48.6553C15.4509 48.4527 15.5029 48.2544 15.5928 48.0725C15.6593 47.9218 15.758 47.7875 15.8819 47.679C16.0059 47.5706 16.1521 47.4906 16.3103 47.4447C16.4208 47.4042 16.5395 47.391 16.6563 47.4062C16.9505 47.4327 17.2301 47.5471 17.4586 47.7344C17.687 47.9218 17.8539 48.1735 17.9375 48.4569L20.4359 56.1444V56.375H22.9984V33.5047C22.9898 33.3196 23.0178 33.1346 23.0808 32.9603C23.1438 32.786 23.2405 32.6258 23.3655 32.4889C23.4905 32.3521 23.6412 32.2412 23.809 32.1627C23.9769 32.0841 24.1586 32.0395 24.3438 32.0312C24.7062 32.0639 25.0421 32.2355 25.2809 32.5101C25.5197 32.7848 25.643 33.1412 25.625 33.5047V52.5312H28.1875V44.8438C28.1875 44.5039 28.3225 44.1781 28.5628 43.9378C28.8031 43.6975 29.1289 43.5625 29.4688 43.5625C29.8086 43.5625 30.1345 43.6975 30.3747 43.9378C30.615 44.1781 30.75 44.5039 30.75 44.8438V55.0938H33.3125V47.4062C33.3159 47.1824 33.373 46.9627 33.4791 46.7656C33.6189 46.5188 33.8368 46.3254 34.0984 46.2157C34.36 46.106 34.6507 46.0862 34.9247 46.1595C35.1988 46.2328 35.4408 46.395 35.6128 46.6206C35.7848 46.8462 35.877 47.1226 35.875 47.4062V57.6562H38.4375V49.9688C38.4351 49.7818 38.4736 49.5965 38.5504 49.426C38.6272 49.2555 38.7404 49.1039 38.8821 48.9818C39.0237 48.8597 39.1904 48.7701 39.3703 48.7192C39.5503 48.6684 39.7392 48.6576 39.9238 48.6875C40.246 48.7749 40.5286 48.9701 40.7244 49.2405C40.9202 49.5109 41.0175 49.8403 41 50.1737V61.5ZM43.5625 52.5312V50.1737C43.5925 49.5324 43.4614 48.8937 43.1811 48.316C42.9008 47.7384 42.4802 47.2401 41.9578 46.8668C41.4354 46.4935 40.8278 46.257 40.1905 46.1789C39.5532 46.1008 38.9065 46.1836 38.3094 46.4197C38.2225 46.0905 38.0888 45.7755 37.9122 45.4844C37.4634 44.6748 36.7295 44.0612 35.8533 43.7628C34.9771 43.4644 34.0212 43.5026 33.1716 43.87C33.1716 43.7675 33.1075 43.665 33.0819 43.5625H68.5597L75.5938 52.5312H43.5625ZM14.0938 5.125H67.9063V41H28.1875V38.8219C30.0273 37.9492 31.5154 36.4763 32.4071 34.6456C33.2987 32.8148 33.5408 30.7352 33.0935 28.7486C32.6462 26.762 31.5362 24.9867 29.946 23.7147C28.3558 22.4428 26.3801 21.7498 24.3438 21.7498C22.3074 21.7498 20.3317 22.4428 18.7415 23.7147C17.1513 24.9867 16.0413 26.762 15.594 28.7486C15.1468 30.7352 15.3888 32.8148 16.2805 34.6456C17.1721 36.4763 18.6602 37.9492 20.5 38.8219V41H14.0938V5.125Z" fill="#FCA311"/>
<path d="M53.8125 48.6875H48.6875V51.25H53.8125V48.6875Z" fill="#FCA311"/>
<path d="M61.5 48.6875H56.375V51.25H61.5V48.6875Z" fill="#FCA311"/>
<path d="M69.1875 48.6875H64.0625V51.25H69.1875V48.6875Z" fill="#FCA311"/>
<path d="M46.125 34.1709V35.875C46.125 36.8944 46.53 37.8721 47.2508 38.5929C47.9717 39.3138 48.9493 39.7188 49.9688 39.7188C50.9882 39.7188 51.9658 39.3138 52.6867 38.5929C53.4075 37.8721 53.8125 36.8944 53.8125 35.875V34.1709C55.7165 33.3282 57.3351 31.9512 58.4722 30.2069C59.6093 28.4626 60.216 26.4259 60.2188 24.3438C60.2188 21.6253 59.1388 19.0182 57.2166 17.0959C55.2943 15.1737 52.6872 14.0938 49.9688 14.0938C47.2503 14.0938 44.6432 15.1737 42.7209 17.0959C40.7987 19.0182 39.7188 21.6253 39.7188 24.3438C39.7199 26.4263 40.3259 28.4636 41.4632 30.2082C42.6005 31.9528 44.22 33.3295 46.125 34.1709ZM51.25 35.875C51.25 36.2148 51.115 36.5407 50.8747 36.781C50.6345 37.0213 50.3086 37.1562 49.9688 37.1562C49.6289 37.1562 49.303 37.0213 49.0628 36.781C48.8225 36.5407 48.6875 36.2148 48.6875 35.875V34.5938H51.25V35.875ZM48.6875 25.625C48.6875 25.3716 48.7626 25.1239 48.9034 24.9132C49.0442 24.7025 49.2443 24.5383 49.4784 24.4413C49.7126 24.3443 49.9702 24.3189 50.2187 24.3684C50.4672 24.4178 50.6955 24.5398 50.8747 24.719C51.0539 24.8982 51.1759 25.1265 51.2254 25.375C51.2748 25.6236 51.2494 25.8812 51.1525 26.1153C51.0555 26.3494 50.8913 26.5495 50.6806 26.6903C50.4699 26.8311 50.2222 26.9062 49.9688 26.9062C49.6289 26.9062 49.303 26.7713 49.0628 26.531C48.8225 26.2907 48.6875 25.9648 48.6875 25.625ZM49.9688 16.6562C52.0076 16.6562 53.9629 17.4662 55.4046 18.9079C56.8463 20.3496 57.6562 22.3049 57.6562 24.3438C57.6531 26.0129 57.143 27.6418 56.1934 29.0146C55.2439 30.3874 53.8998 31.4394 52.3391 32.0312H51.25V29.2381C52.1049 28.9359 52.8254 28.3412 53.2842 27.5591C53.7429 26.777 53.9105 25.8579 53.7571 24.9642C53.6038 24.0705 53.1395 23.2599 52.4462 22.6754C51.753 22.091 50.8755 21.7705 49.9688 21.7705C49.062 21.7705 48.1845 22.091 47.4913 22.6754C46.798 23.2599 46.3337 24.0705 46.1804 24.9642C46.027 25.8579 46.1946 26.777 46.6533 27.5591C47.1121 28.3412 47.8326 28.9359 48.6875 29.2381V32.0312H47.5984C46.0377 31.4394 44.6936 30.3874 43.7441 29.0146C42.7945 27.6418 42.2844 26.0129 42.2812 24.3438C42.2812 22.3049 43.0912 20.3496 44.5329 18.9079C45.9746 17.4662 47.9299 16.6562 49.9688 16.6562Z" fill="#FCA311"/>
<path d="M66.625 23.0625H61.5V25.625H66.625V23.0625Z" fill="#FCA311"/>
<path d="M38.4375 23.0625H33.3125V25.625H38.4375V23.0625Z" fill="#FCA311"/>
<path d="M57.6028 32.2213L56.1934 34.3481L60.4472 37.1669L61.8565 35.04L57.6028 32.2213Z" fill="#FCA311"/>
<path d="M37.8662 13.037L36.4448 15.1691L40.7091 18.012L42.1305 15.8798L37.8662 13.037Z" fill="#FCA311"/>
<path d="M41.5816 32.2509L37.3173 35.0938L38.7387 37.2259L43.003 34.383L41.5816 32.2509Z" fill="#FCA311"/>
<path d="M62.8843 13.025L58.62 15.8678L60.0414 17.9999L64.3057 15.1571L62.8843 13.025Z" fill="#FCA311"/>
<path d="M69.1875 71.75V66.625C69.1875 64.5861 68.3776 62.6308 66.9359 61.1891C65.4942 59.7474 63.5389 58.9375 61.5 58.9375C59.4612 58.9375 57.5058 59.7474 56.0641 61.1891C54.6224 62.6308 53.8125 64.5861 53.8125 66.625V71.75C53.8125 73.7889 54.6224 75.7442 56.0641 77.1859C57.5058 78.6276 59.4612 79.4375 61.5 79.4375C63.5389 79.4375 65.4942 78.6276 66.9359 77.1859C68.3776 75.7442 69.1875 73.7889 69.1875 71.75ZM66.4456 65.3438H62.7813V61.6794C63.6626 61.9094 64.4666 62.3702 65.1107 63.0143C65.7548 63.6584 66.2156 64.4624 66.4456 65.3438ZM60.2188 61.6794V65.3438H56.5544C56.7844 64.4624 57.2452 63.6584 57.8893 63.0143C58.5334 62.3702 59.3374 61.9094 60.2188 61.6794ZM56.375 71.75V67.9062H66.625V71.75C66.625 73.1092 66.085 74.4128 65.1239 75.3739C64.1628 76.335 62.8592 76.875 61.5 76.875C60.1408 76.875 58.8372 76.335 57.8761 75.3739C56.915 74.4128 56.375 73.1092 56.375 71.75ZM52.5313 66.625V64.0625C51.4584 64.2252 50.4794 64.7671 49.772 65.5898C49.0646 66.4126 48.6755 67.4618 48.6755 68.5469C48.6755 69.632 49.0646 70.6811 49.772 71.5039C50.4794 72.3267 51.4584 72.8686 52.5313 73.0312V70.4688C51.8522 70.4688 51.25 69.5719 51.25 68.5469C51.25 67.5219 51.8522 66.625 52.5313 66.625Z" fill="#FCA311"/>
<path d="M52.5312 60.2188C50.4353 60.3833 48.4785 61.3321 47.0512 62.8758C45.624 64.4194 44.8313 66.4445 44.8313 68.5469C44.8313 70.6492 45.624 72.6743 47.0512 74.218C48.4785 75.7617 50.4353 76.7105 52.5312 76.875V74.3125C51.1168 74.1489 49.8119 73.4711 48.8646 72.408C47.9174 71.3449 47.394 69.9707 47.394 68.5469C47.394 67.123 47.9174 65.7488 48.8646 64.6857C49.8119 63.6227 51.1168 62.9448 52.5312 62.7812V60.2188ZM75.5937 33.9531C75.6683 32.8511 75.3074 31.7638 74.5885 30.9252C73.8697 30.0866 72.8504 29.5636 71.75 29.4688V32.0312C72.429 32.0312 73.0312 32.9281 73.0312 33.9531C73.0312 34.9781 72.429 35.875 71.75 35.875V38.4375C72.8504 38.3427 73.8697 37.8197 74.5885 36.981C75.3074 36.1424 75.6683 35.0551 75.5937 33.9531Z" fill="#FCA311"/>
<path d="M71.75 25.625V28.1875C73.1926 28.2766 74.5413 28.933 75.5016 30.0133C76.4618 31.0936 76.9556 32.51 76.875 33.9531C76.9556 35.3962 76.4618 36.8126 75.5016 37.8929C74.5413 38.9732 73.1926 39.6296 71.75 39.7188V42.2812C73.872 42.1913 75.8721 41.2646 77.3127 39.7039C78.7534 38.1433 79.5173 36.0756 79.4375 33.9531C79.5173 31.8307 78.7534 29.763 77.3127 28.2023C75.8721 26.6416 73.872 25.715 71.75 25.625ZM10.25 32.0312V29.4688C9.14952 29.5636 8.13025 30.0866 7.41142 30.9252C6.6926 31.7638 6.33165 32.8511 6.40623 33.9531C6.33165 35.0551 6.6926 36.1424 7.41142 36.981C8.13025 37.8197 9.14952 38.3427 10.25 38.4375V35.875C9.57092 35.875 8.96873 34.9781 8.96873 33.9531C8.96873 32.9281 9.57092 32.0312 10.25 32.0312Z" fill="#FCA311"/>
<path d="M10.25 42.2812V39.7188C8.80738 39.6296 7.45865 38.9732 6.4984 37.8929C5.53814 36.8126 5.0444 35.3962 5.125 33.9531C5.0444 32.51 5.53814 31.0936 6.4984 30.0133C7.45865 28.933 8.80738 28.2766 10.25 28.1875V25.625C8.12796 25.715 6.1279 26.6416 4.68727 28.2023C3.24664 29.763 2.48269 31.8307 2.5625 33.9531C2.48269 36.0756 3.24664 38.1433 4.68727 39.7039C6.1279 41.2646 8.12796 42.1913 10.25 42.2812ZM70.4688 70.4688V73.0312C71.5416 72.8686 72.5206 72.3267 73.228 71.5039C73.9354 70.6811 74.3245 69.632 74.3245 68.5469C74.3245 67.4618 73.9354 66.4126 73.228 65.5898C72.5206 64.7671 71.5416 64.2252 70.4688 64.0625V66.625C71.1478 66.625 71.75 67.5219 71.75 68.5469C71.75 69.5719 71.1478 70.4688 70.4688 70.4688Z" fill="#FCA311"/>
<path d="M70.4688 60.2188V62.7812C71.8832 62.9448 73.1881 63.6227 74.1353 64.6857C75.0826 65.7488 75.6059 67.123 75.6059 68.5469C75.6059 69.9707 75.0826 71.3449 74.1353 72.408C73.1881 73.4711 71.8832 74.1489 70.4688 74.3125V76.875C72.5647 76.7105 74.5215 75.7617 75.9487 74.218C77.376 72.6743 78.1687 70.6492 78.1687 68.5469C78.1687 66.4445 77.376 64.4194 75.9487 62.8758C74.5215 61.3321 72.5647 60.3833 70.4688 60.2188Z" fill="#FCA311"/>
<path d="M51.25 7.6875H48.6875V12.8125H51.25V7.6875Z" fill="#FCA311"/>
</svg>
