<svg width="827" height="432" viewBox="0 0 827 432" fill="none" xmlns="http://www.w3.org/2000/svg">
<ellipse cx="78.8169" cy="180.232" rx="7.1975" ry="7.19751" transform="rotate(-33.6022 78.8169 180.232)" fill="#943F96"/>
<ellipse cx="128.204" cy="345.595" rx="7.1975" ry="7.19751" transform="rotate(-33.6022 128.204 345.595)" fill="#5380EA" fill-opacity="0.5"/>
<ellipse cx="233.686" cy="292.79" rx="7.1975" ry="7.19751" transform="rotate(-33.6022 233.686 292.79)" fill="#F0B80D" fill-opacity="0.5"/>
<ellipse cx="38.7834" cy="251.768" rx="4.79834" ry="4.79834" transform="rotate(-33.6022 38.7834 251.768)" fill="#F0B80D" fill-opacity="0.5"/>
<ellipse cx="276.326" cy="343.958" rx="4.79834" ry="4.79834" transform="rotate(-33.6022 276.326 343.958)" fill="#5380EA" fill-opacity="0.5"/>
<ellipse cx="153.158" cy="300.784" rx="4.79834" ry="4.79834" transform="rotate(-33.6022 153.158 300.784)" fill="#E49192"/>
<ellipse cx="214.557" cy="95.7985" rx="4.79834" ry="4.79834" transform="rotate(-33.6022 214.557 95.7985)" fill="#F0B80D" fill-opacity="0.5"/>
<ellipse cx="149.854" cy="116.329" rx="11.52" ry="11.52" transform="rotate(-33.6022 149.854 116.329)" fill="#E49192"/>
<ellipse cx="528.261" cy="169.838" rx="7.19751" ry="7.1975" transform="rotate(113.119 528.261 169.838)" fill="#5380EA" fill-opacity="0.5"/>
<ellipse cx="396.238" cy="58.6914" rx="7.19751" ry="7.1975" transform="rotate(113.119 396.238 58.6914)" fill="#5380EA" fill-opacity="0.5"/>
<ellipse cx="337.028" cy="160.715" rx="7.19751" ry="7.1975" transform="rotate(113.119 337.028 160.715)" fill="#F0B80D" fill-opacity="0.5"/>
<ellipse cx="522.478" cy="88.0656" rx="4.79834" ry="4.79834" transform="rotate(113.119 522.478 88.0656)" fill="#F0B80D" fill-opacity="0.5"/>
<ellipse cx="273.302" cy="141.334" rx="4.79834" ry="4.79834" transform="rotate(113.119 273.302 141.334)" fill="#5380EA" fill-opacity="0.5"/>
<ellipse cx="399.963" cy="109.847" rx="4.79834" ry="4.79834" transform="rotate(113.119 399.963 109.847)" fill="#E49192"/>
<ellipse cx="457.958" cy="316.174" rx="7.20001" ry="7.20001" transform="rotate(113.119 457.958 316.174)" fill="#F0B80D" fill-opacity="0.5"/>
<ellipse cx="512.76" cy="258.696" rx="4.79834" ry="4.79834" transform="rotate(113.119 512.76 258.696)" fill="#943F96"/>
<ellipse cx="739.41" cy="277.316" rx="11.52" ry="11.52" transform="rotate(161.815 739.41 277.316)" fill="#5380EA" fill-opacity="0.5"/>
<ellipse cx="741.219" cy="107.53" rx="7.1975" ry="7.19751" transform="rotate(161.815 741.219 107.53)" fill="#943F96"/>
<ellipse cx="625.491" cy="130.394" rx="7.20001" ry="7.20001" transform="rotate(161.815 625.491 130.394)" fill="#F0B80D" fill-opacity="0.5"/>
<ellipse cx="802.478" cy="221.754" rx="4.79834" ry="4.79834" transform="rotate(161.815 802.478 221.754)" fill="#F0B80D" fill-opacity="0.5"/>
<ellipse cx="597.991" cy="69.7293" rx="4.79834" ry="4.79834" transform="rotate(161.815 597.991 69.7293)" fill="#5380EA" fill-opacity="0.5"/>
<ellipse cx="705.249" cy="144.095" rx="4.79834" ry="4.79834" transform="rotate(161.815 705.249 144.095)" fill="#E49192"/>
<ellipse cx="591.565" cy="325.38" rx="4.79834" ry="4.79834" transform="rotate(161.815 591.565 325.38)" fill="#F0B80D" fill-opacity="0.5"/>
<ellipse cx="667.882" cy="327.08" rx="4.79834" ry="4.79834" transform="rotate(161.815 667.882 327.08)" fill="#E49192"/>
</svg>
