<svg width="56" height="56" viewBox="0 0 56 56" fill="none" xmlns="http://www.w3.org/2000/svg">
<g clip-path="url(#clip0_747_998)">
<mask id="path-1-outside-1_747_998" maskUnits="userSpaceOnUse" x="-1.0002" y="6.40771" width="58" height="43" fill="black">
<rect fill="white" x="-1.0002" y="6.40771" width="58" height="43"/>
<path d="M55.9386 32.2359C55.8598 32.1047 55.7198 32.0347 55.5711 32.0347H34.3436C34.1861 32.0347 34.0373 32.1222 33.9586 32.2709L31.0361 37.9584C30.2398 30.5297 27.0023 26.3909 21.4023 25.6472C21.1748 25.6122 20.9736 25.7609 20.9298 25.9797C20.6761 27.0647 20.1511 27.9134 19.4773 28.5697C18.8823 27.9572 18.9261 26.6272 19.0223 25.9797C20.2561 24.9209 21.0436 23.3547 21.0436 21.6134V17.1334C23.5723 14.9547 23.5548 11.0609 20.9561 7.57842C20.8861 7.48217 20.7811 7.42967 20.6673 7.41217C20.5536 7.39467 20.4398 7.42967 20.3436 7.49967L19.0923 8.45342C18.8036 8.67217 18.4273 8.77717 18.0423 8.75092C13.7723 8.41842 10.5086 9.50342 8.33855 11.9797C7.3323 13.1347 6.8598 14.7009 7.04355 16.2934L7.34105 18.8134C7.34105 18.8484 7.3498 18.8747 7.35855 18.9009V18.9097C7.70855 19.8809 8.44355 20.7384 9.5198 21.4734L9.52855 21.7097C9.5723 23.9234 10.8848 25.8309 12.7573 26.7584C12.9673 27.3797 13.2561 28.7097 12.8973 29.6722C11.4711 29.0947 10.2023 27.9572 9.7998 25.9884C9.75605 25.7872 9.58105 25.6472 9.3798 25.6472C4.2173 25.6297 -0.000198364 29.8472 -0.000198364 35.0272V38.5884C-0.000198364 38.8247 0.192302 39.0172 0.428552 39.0172H1.2073V42.9022C1.2073 45.0284 2.9398 46.7522 5.0573 46.7522H11.0598C11.2611 47.8109 12.1886 48.6072 13.2998 48.6072H47.7048C47.8711 48.6072 48.0198 48.5109 48.0898 48.3709L55.9473 32.6472C56.0173 32.5159 56.0173 32.3584 55.9386 32.2359ZM30.2661 39.0259C30.2748 39.1484 30.2923 39.2709 30.2923 39.4022L27.8073 44.2409H24.7973V39.0259H30.2661ZM7.9098 16.1709C7.7523 14.8234 8.14605 13.4934 8.9948 12.5222C10.7448 10.5272 13.2911 9.52092 16.5898 9.52092C17.0448 9.52092 17.5086 9.53842 17.9811 9.57342C18.5848 9.61717 19.1623 9.45092 19.6173 9.10092L20.5098 8.41842C22.5136 11.3409 22.5573 14.4734 20.6323 16.3022C18.6373 14.2722 16.8961 13.3972 15.2948 13.6334C13.9648 13.8347 12.8186 14.8234 11.8648 16.5909C11.0686 16.2584 10.3073 16.2234 9.5898 16.4684C8.93355 16.6959 8.42605 17.1247 8.0673 17.5359L7.9098 16.1709ZM10.4036 21.6834L10.3948 21.2197C10.3948 21.0797 10.3161 20.9397 10.1936 20.8609C9.2223 20.2397 8.58355 19.5572 8.25105 18.7784C8.44355 18.4284 8.98605 17.5972 9.8698 17.2909C10.4736 17.0809 11.1473 17.1684 11.8648 17.5447C11.9698 17.5972 12.0836 17.6059 12.1973 17.5709C12.3111 17.5359 12.3986 17.4572 12.4511 17.3522C13.3086 15.6197 14.3061 14.6572 15.4261 14.4909C16.7298 14.2984 18.3398 15.1647 20.1773 17.0722V21.5872C20.1773 24.2822 17.9811 26.4784 15.2861 26.4784C12.6436 26.4872 10.4561 24.3347 10.4036 21.6834ZM13.7723 27.1347C14.2536 27.2659 14.7698 27.3447 15.2948 27.3447C16.3186 27.3447 17.2723 27.0734 18.1036 26.6009C18.0861 27.3622 18.1911 28.4122 18.7948 29.0947C17.7273 29.8209 16.4323 30.1622 15.2073 30.1272C14.7348 30.1184 14.2361 30.0484 13.7373 29.9259C14.0786 28.9809 13.9386 27.8784 13.7723 27.1347ZM0.857302 35.0272C0.857302 30.4334 4.4973 26.6797 9.0473 26.5047C9.59855 28.6222 11.1386 29.9347 12.8711 30.5559C12.8798 30.5647 12.8886 30.5734 12.8973 30.5822C12.9498 30.6172 13.0111 30.6259 13.0723 30.6347C13.7636 30.8622 14.4811 30.9847 15.1811 31.0022C16.7298 31.0197 18.3748 30.5384 19.6611 29.5059C19.6873 29.4884 19.7048 29.4709 19.7311 29.4534C20.5886 28.7447 21.2798 27.7997 21.6473 26.5572C26.6786 27.3884 29.4786 31.2034 30.1786 38.1684H23.5373V34.1959C23.5373 33.9597 23.3448 33.7672 23.1086 33.7672C22.8723 33.7672 22.6798 33.9597 22.6798 34.1959V38.5972C22.6798 38.8334 22.8723 39.0259 23.1086 39.0259H23.9398V44.2409H17.5698V43.8997C17.5698 42.2897 16.2661 40.9859 14.6561 40.9859H6.97355V39.0259H7.6123C7.84855 39.0259 8.04105 38.8334 8.04105 38.5972V33.9859C8.04105 33.7497 7.84855 33.5572 7.6123 33.5572C7.37605 33.5572 7.18355 33.7497 7.18355 33.9859V38.1684H0.857302V35.0272ZM2.0648 42.9022V39.0259H6.1073V41.4234C6.1073 41.6597 6.2998 41.8522 6.53605 41.8522H14.6473C15.7761 41.8522 16.6948 42.7709 16.6948 43.8997V44.2409H11.4361C11.1998 44.2409 11.0073 44.4334 11.0073 44.6697V45.8947H5.0573C3.4123 45.8947 2.0648 44.5559 2.0648 42.9022ZM13.2998 47.7497C12.5123 47.7497 11.8736 47.1109 11.8736 46.3234V45.0984H27.3611L26.0048 47.7497H13.2998ZM47.4423 47.7497H26.9761L28.4548 44.8709L34.6061 32.8922H54.8711L47.4423 47.7497Z"/>
</mask>
<path d="M55.9386 32.2359C55.8598 32.1047 55.7198 32.0347 55.5711 32.0347H34.3436C34.1861 32.0347 34.0373 32.1222 33.9586 32.2709L31.0361 37.9584C30.2398 30.5297 27.0023 26.3909 21.4023 25.6472C21.1748 25.6122 20.9736 25.7609 20.9298 25.9797C20.6761 27.0647 20.1511 27.9134 19.4773 28.5697C18.8823 27.9572 18.9261 26.6272 19.0223 25.9797C20.2561 24.9209 21.0436 23.3547 21.0436 21.6134V17.1334C23.5723 14.9547 23.5548 11.0609 20.9561 7.57842C20.8861 7.48217 20.7811 7.42967 20.6673 7.41217C20.5536 7.39467 20.4398 7.42967 20.3436 7.49967L19.0923 8.45342C18.8036 8.67217 18.4273 8.77717 18.0423 8.75092C13.7723 8.41842 10.5086 9.50342 8.33855 11.9797C7.3323 13.1347 6.8598 14.7009 7.04355 16.2934L7.34105 18.8134C7.34105 18.8484 7.3498 18.8747 7.35855 18.9009V18.9097C7.70855 19.8809 8.44355 20.7384 9.5198 21.4734L9.52855 21.7097C9.5723 23.9234 10.8848 25.8309 12.7573 26.7584C12.9673 27.3797 13.2561 28.7097 12.8973 29.6722C11.4711 29.0947 10.2023 27.9572 9.7998 25.9884C9.75605 25.7872 9.58105 25.6472 9.3798 25.6472C4.2173 25.6297 -0.000198364 29.8472 -0.000198364 35.0272V38.5884C-0.000198364 38.8247 0.192302 39.0172 0.428552 39.0172H1.2073V42.9022C1.2073 45.0284 2.9398 46.7522 5.0573 46.7522H11.0598C11.2611 47.8109 12.1886 48.6072 13.2998 48.6072H47.7048C47.8711 48.6072 48.0198 48.5109 48.0898 48.3709L55.9473 32.6472C56.0173 32.5159 56.0173 32.3584 55.9386 32.2359ZM30.2661 39.0259C30.2748 39.1484 30.2923 39.2709 30.2923 39.4022L27.8073 44.2409H24.7973V39.0259H30.2661ZM7.9098 16.1709C7.7523 14.8234 8.14605 13.4934 8.9948 12.5222C10.7448 10.5272 13.2911 9.52092 16.5898 9.52092C17.0448 9.52092 17.5086 9.53842 17.9811 9.57342C18.5848 9.61717 19.1623 9.45092 19.6173 9.10092L20.5098 8.41842C22.5136 11.3409 22.5573 14.4734 20.6323 16.3022C18.6373 14.2722 16.8961 13.3972 15.2948 13.6334C13.9648 13.8347 12.8186 14.8234 11.8648 16.5909C11.0686 16.2584 10.3073 16.2234 9.5898 16.4684C8.93355 16.6959 8.42605 17.1247 8.0673 17.5359L7.9098 16.1709ZM10.4036 21.6834L10.3948 21.2197C10.3948 21.0797 10.3161 20.9397 10.1936 20.8609C9.2223 20.2397 8.58355 19.5572 8.25105 18.7784C8.44355 18.4284 8.98605 17.5972 9.8698 17.2909C10.4736 17.0809 11.1473 17.1684 11.8648 17.5447C11.9698 17.5972 12.0836 17.6059 12.1973 17.5709C12.3111 17.5359 12.3986 17.4572 12.4511 17.3522C13.3086 15.6197 14.3061 14.6572 15.4261 14.4909C16.7298 14.2984 18.3398 15.1647 20.1773 17.0722V21.5872C20.1773 24.2822 17.9811 26.4784 15.2861 26.4784C12.6436 26.4872 10.4561 24.3347 10.4036 21.6834ZM13.7723 27.1347C14.2536 27.2659 14.7698 27.3447 15.2948 27.3447C16.3186 27.3447 17.2723 27.0734 18.1036 26.6009C18.0861 27.3622 18.1911 28.4122 18.7948 29.0947C17.7273 29.8209 16.4323 30.1622 15.2073 30.1272C14.7348 30.1184 14.2361 30.0484 13.7373 29.9259C14.0786 28.9809 13.9386 27.8784 13.7723 27.1347ZM0.857302 35.0272C0.857302 30.4334 4.4973 26.6797 9.0473 26.5047C9.59855 28.6222 11.1386 29.9347 12.8711 30.5559C12.8798 30.5647 12.8886 30.5734 12.8973 30.5822C12.9498 30.6172 13.0111 30.6259 13.0723 30.6347C13.7636 30.8622 14.4811 30.9847 15.1811 31.0022C16.7298 31.0197 18.3748 30.5384 19.6611 29.5059C19.6873 29.4884 19.7048 29.4709 19.7311 29.4534C20.5886 28.7447 21.2798 27.7997 21.6473 26.5572C26.6786 27.3884 29.4786 31.2034 30.1786 38.1684H23.5373V34.1959C23.5373 33.9597 23.3448 33.7672 23.1086 33.7672C22.8723 33.7672 22.6798 33.9597 22.6798 34.1959V38.5972C22.6798 38.8334 22.8723 39.0259 23.1086 39.0259H23.9398V44.2409H17.5698V43.8997C17.5698 42.2897 16.2661 40.9859 14.6561 40.9859H6.97355V39.0259H7.6123C7.84855 39.0259 8.04105 38.8334 8.04105 38.5972V33.9859C8.04105 33.7497 7.84855 33.5572 7.6123 33.5572C7.37605 33.5572 7.18355 33.7497 7.18355 33.9859V38.1684H0.857302V35.0272ZM2.0648 42.9022V39.0259H6.1073V41.4234C6.1073 41.6597 6.2998 41.8522 6.53605 41.8522H14.6473C15.7761 41.8522 16.6948 42.7709 16.6948 43.8997V44.2409H11.4361C11.1998 44.2409 11.0073 44.4334 11.0073 44.6697V45.8947H5.0573C3.4123 45.8947 2.0648 44.5559 2.0648 42.9022ZM13.2998 47.7497C12.5123 47.7497 11.8736 47.1109 11.8736 46.3234V45.0984H27.3611L26.0048 47.7497H13.2998ZM47.4423 47.7497H26.9761L28.4548 44.8709L34.6061 32.8922H54.8711L47.4423 47.7497Z" fill="white"/>
<path d="M55.9386 32.2359C55.8598 32.1047 55.7198 32.0347 55.5711 32.0347H34.3436C34.1861 32.0347 34.0373 32.1222 33.9586 32.2709L31.0361 37.9584C30.2398 30.5297 27.0023 26.3909 21.4023 25.6472C21.1748 25.6122 20.9736 25.7609 20.9298 25.9797C20.6761 27.0647 20.1511 27.9134 19.4773 28.5697C18.8823 27.9572 18.9261 26.6272 19.0223 25.9797C20.2561 24.9209 21.0436 23.3547 21.0436 21.6134V17.1334C23.5723 14.9547 23.5548 11.0609 20.9561 7.57842C20.8861 7.48217 20.7811 7.42967 20.6673 7.41217C20.5536 7.39467 20.4398 7.42967 20.3436 7.49967L19.0923 8.45342C18.8036 8.67217 18.4273 8.77717 18.0423 8.75092C13.7723 8.41842 10.5086 9.50342 8.33855 11.9797C7.3323 13.1347 6.8598 14.7009 7.04355 16.2934L7.34105 18.8134C7.34105 18.8484 7.3498 18.8747 7.35855 18.9009V18.9097C7.70855 19.8809 8.44355 20.7384 9.5198 21.4734L9.52855 21.7097C9.5723 23.9234 10.8848 25.8309 12.7573 26.7584C12.9673 27.3797 13.2561 28.7097 12.8973 29.6722C11.4711 29.0947 10.2023 27.9572 9.7998 25.9884C9.75605 25.7872 9.58105 25.6472 9.3798 25.6472C4.2173 25.6297 -0.000198364 29.8472 -0.000198364 35.0272V38.5884C-0.000198364 38.8247 0.192302 39.0172 0.428552 39.0172H1.2073V42.9022C1.2073 45.0284 2.9398 46.7522 5.0573 46.7522H11.0598C11.2611 47.8109 12.1886 48.6072 13.2998 48.6072H47.7048C47.8711 48.6072 48.0198 48.5109 48.0898 48.3709L55.9473 32.6472C56.0173 32.5159 56.0173 32.3584 55.9386 32.2359ZM30.2661 39.0259C30.2748 39.1484 30.2923 39.2709 30.2923 39.4022L27.8073 44.2409H24.7973V39.0259H30.2661ZM7.9098 16.1709C7.7523 14.8234 8.14605 13.4934 8.9948 12.5222C10.7448 10.5272 13.2911 9.52092 16.5898 9.52092C17.0448 9.52092 17.5086 9.53842 17.9811 9.57342C18.5848 9.61717 19.1623 9.45092 19.6173 9.10092L20.5098 8.41842C22.5136 11.3409 22.5573 14.4734 20.6323 16.3022C18.6373 14.2722 16.8961 13.3972 15.2948 13.6334C13.9648 13.8347 12.8186 14.8234 11.8648 16.5909C11.0686 16.2584 10.3073 16.2234 9.5898 16.4684C8.93355 16.6959 8.42605 17.1247 8.0673 17.5359L7.9098 16.1709ZM10.4036 21.6834L10.3948 21.2197C10.3948 21.0797 10.3161 20.9397 10.1936 20.8609C9.2223 20.2397 8.58355 19.5572 8.25105 18.7784C8.44355 18.4284 8.98605 17.5972 9.8698 17.2909C10.4736 17.0809 11.1473 17.1684 11.8648 17.5447C11.9698 17.5972 12.0836 17.6059 12.1973 17.5709C12.3111 17.5359 12.3986 17.4572 12.4511 17.3522C13.3086 15.6197 14.3061 14.6572 15.4261 14.4909C16.7298 14.2984 18.3398 15.1647 20.1773 17.0722V21.5872C20.1773 24.2822 17.9811 26.4784 15.2861 26.4784C12.6436 26.4872 10.4561 24.3347 10.4036 21.6834ZM13.7723 27.1347C14.2536 27.2659 14.7698 27.3447 15.2948 27.3447C16.3186 27.3447 17.2723 27.0734 18.1036 26.6009C18.0861 27.3622 18.1911 28.4122 18.7948 29.0947C17.7273 29.8209 16.4323 30.1622 15.2073 30.1272C14.7348 30.1184 14.2361 30.0484 13.7373 29.9259C14.0786 28.9809 13.9386 27.8784 13.7723 27.1347ZM0.857302 35.0272C0.857302 30.4334 4.4973 26.6797 9.0473 26.5047C9.59855 28.6222 11.1386 29.9347 12.8711 30.5559C12.8798 30.5647 12.8886 30.5734 12.8973 30.5822C12.9498 30.6172 13.0111 30.6259 13.0723 30.6347C13.7636 30.8622 14.4811 30.9847 15.1811 31.0022C16.7298 31.0197 18.3748 30.5384 19.6611 29.5059C19.6873 29.4884 19.7048 29.4709 19.7311 29.4534C20.5886 28.7447 21.2798 27.7997 21.6473 26.5572C26.6786 27.3884 29.4786 31.2034 30.1786 38.1684H23.5373V34.1959C23.5373 33.9597 23.3448 33.7672 23.1086 33.7672C22.8723 33.7672 22.6798 33.9597 22.6798 34.1959V38.5972C22.6798 38.8334 22.8723 39.0259 23.1086 39.0259H23.9398V44.2409H17.5698V43.8997C17.5698 42.2897 16.2661 40.9859 14.6561 40.9859H6.97355V39.0259H7.6123C7.84855 39.0259 8.04105 38.8334 8.04105 38.5972V33.9859C8.04105 33.7497 7.84855 33.5572 7.6123 33.5572C7.37605 33.5572 7.18355 33.7497 7.18355 33.9859V38.1684H0.857302V35.0272ZM2.0648 42.9022V39.0259H6.1073V41.4234C6.1073 41.6597 6.2998 41.8522 6.53605 41.8522H14.6473C15.7761 41.8522 16.6948 42.7709 16.6948 43.8997V44.2409H11.4361C11.1998 44.2409 11.0073 44.4334 11.0073 44.6697V45.8947H5.0573C3.4123 45.8947 2.0648 44.5559 2.0648 42.9022ZM13.2998 47.7497C12.5123 47.7497 11.8736 47.1109 11.8736 46.3234V45.0984H27.3611L26.0048 47.7497H13.2998ZM47.4423 47.7497H26.9761L28.4548 44.8709L34.6061 32.8922H54.8711L47.4423 47.7497Z" stroke="white" stroke-width="0.9" mask="url(#path-1-outside-1_747_998)"/>
<path d="M31.2285 12.072C32.1032 11.0112 33.2614 10.1707 34.592 9.65713L34.6546 9.79716L34.6546 9.79716L34.6556 9.7993C34.8752 10.2767 35.2124 10.6543 35.6487 10.9063L35.6487 10.9063L35.6503 10.9073C35.8865 11.0411 36.1428 11.266 36.2047 11.6169L36.2048 11.6173C36.2541 11.8939 36.3617 12.1547 36.5026 12.399L36.5025 12.399L36.5059 12.4044L36.9258 13.0868C37.2608 13.6325 37.7909 14.0312 38.3884 14.1683L38.3884 14.1683L38.3904 14.1688C38.841 14.2679 39.2861 14.3228 39.7163 14.3228C39.9467 14.3228 40.1748 14.3044 40.399 14.2775L31.2285 12.072ZM31.2285 12.072C31.5539 12.1816 31.8561 12.3729 32.0557 12.6408C32.3504 13.0246 32.495 13.4846 32.495 13.984C32.495 14.3598 32.3951 14.7172 32.2018 15.1222L32.1984 15.1294L32.1982 15.1294C32.1856 15.1536 32.1838 15.1818 32.2011 15.225C32.2198 15.2718 32.2521 15.3104 32.2629 15.3212L32.2728 15.3311L32.2725 15.3314C32.3805 15.4539 32.5092 15.494 32.5811 15.469L32.5882 15.4665L32.5954 15.4646L33.0417 15.3421L33.043 15.3417C33.8459 15.1263 34.6977 15.4176 35.1579 16.0773C35.9437 17.1908 36.0085 18.8256 35.3255 19.995L35.3249 19.9961C34.9154 20.6883 34.1403 21.1215 33.3113 21.1215H32.6638C32.5779 21.1215 32.504 21.1727 32.4736 21.2596L32.473 21.2615L32.473 21.2615L32.3155 21.699L32.3149 21.7006C32.2888 21.7714 32.3068 21.8591 32.3832 21.9259L32.3878 21.93L32.3878 21.9301C33.2025 22.6835 33.5657 23.5711 33.3974 24.5309C34.6284 25.2567 36.0533 25.6765 37.5813 25.6765C37.7019 25.6765 37.813 25.6696 37.9326 25.6622C37.9414 25.6616 37.9503 25.6611 37.9592 25.6605C38.0433 25.2179 38.1761 24.7891 38.3974 24.3787C38.7089 23.7796 38.8399 23.0992 38.7665 22.4278L38.7317 22.1494L38.7311 22.1439L38.7311 22.1439C38.7132 21.9644 38.7038 21.8164 38.7038 21.6665C38.7038 21.0593 38.7558 20.3083 39.0577 19.647C39.3654 18.9729 39.9283 18.403 40.9135 18.1668C41.3595 18.0533 41.8262 18.0461 42.3424 18.1095L42.3468 18.11L42.3468 18.11C43.427 18.2643 43.7527 18.0792 43.8421 17.9925C43.8688 17.9628 43.8985 17.9062 43.9118 17.8022C43.9253 17.6967 43.9199 17.5567 43.8883 17.3808C43.4661 15.5604 44.4483 14.3901 45.0659 13.8519C44.8707 13.4408 44.6421 13.047 44.3849 12.6751L42.5416 13.0324L42.5368 13.0333L42.5368 13.0333C42.2882 13.0759 42.0638 13.2113 41.894 13.4179C41.5039 13.8937 40.9811 14.2083 40.3992 14.2774L31.2285 12.072ZM47.1775 17.379C47.1775 16.1442 46.9363 14.9632 46.5077 13.8807L46.4835 13.8079L46.4838 13.8078L46.4791 13.7959C46.1678 13.0132 45.7513 12.2934 45.2565 11.6363C45.2393 11.6024 45.2199 11.5752 45.2051 11.5559C45.1961 11.5442 45.1871 11.533 45.1805 11.525L45.1791 11.5232C45.1715 11.514 45.1672 11.5086 45.1638 11.504L45.1638 11.504L45.1616 11.5012C43.4061 9.23511 40.6641 7.77402 37.5813 7.77402C36.5871 7.77402 35.6191 7.92628 34.7133 8.21328L34.7537 8.34091L34.7483 8.41546L34.687 8.22205C32.489 8.91897 30.6305 10.3904 29.4299 12.3163C29.38 12.3742 29.3529 12.4372 29.3377 12.4751C28.475 13.9131 27.9675 15.5835 27.9675 17.379C27.9675 22.6745 32.277 26.984 37.5725 26.984C37.8922 26.984 38.202 26.9665 38.5011 26.9403H38.5011H38.5012H38.5012H38.5012H38.5013H38.5013H38.5013H38.5013H38.5014H38.5014H38.5014H38.5014H38.5015H38.5015H38.5015H38.5015H38.5015H38.5015H38.5015H38.5016H38.5016H38.5016H38.5016H38.5016H38.5016H38.5017H38.5017H38.5017H38.5017H38.5017H38.5017H38.5018H38.5018H38.5018H38.5018H38.5018H38.5019H38.5019H38.5019H38.5019H38.5019H38.5019H38.502H38.502H38.502H38.502H38.502H38.5021H38.5021H38.5021H38.5021H38.5021H38.5022H38.5022H38.5022H38.5022H38.5022H38.5023H38.5023H38.5023H38.5023H38.5023H38.5024H38.5024H38.5024H38.5024H38.5025H38.5025H38.5025H38.5025H38.5025H38.5026H38.5026H38.5026H38.5026H38.5027H38.5027H38.5027H38.5027H38.5028H38.5028H38.5028H38.5028H38.5028H38.5029H38.5029H38.5029H38.5029H38.503H38.503H38.503H38.503H38.5031H38.5031H38.5031H38.5031H38.5032H38.5032H38.5032H38.5033H38.5033H38.5033H38.5033H38.5034H38.5034H38.5034H38.5034H38.5035H38.5035H38.5035H38.5036H38.5036H38.5036H38.5036H38.5037H38.5037H38.5037H38.5038H38.5038H38.5038H38.5038H38.5039H38.5039H38.5039H38.504H38.504H38.504H38.5041H38.5041H38.5041H38.5041H38.5042H38.5042H38.5042H38.5043H38.5043H38.5043H38.5044H38.5044H38.5044H38.5045H38.5045H38.5045H38.5046H38.5046H38.5046H38.5047H38.5047H38.5047H38.5048H38.5048H38.5048H38.5049H38.5049H38.5049H38.505H38.505H38.505H38.5051H38.5051H38.5051H38.5052H38.5052H38.5053H38.5053H38.5053H38.5054H38.5054H38.5054H38.5055H38.5055H38.5056H38.5056H38.5056H38.5057H38.5057H38.5057H38.5058H38.5058H38.5059H38.5059H38.5059H38.506H38.506H38.5061H38.5061H38.5061H38.5062H38.5062H38.5063H38.5063H38.5063H38.5064H38.5064H38.5065H38.5065H38.5066H38.5066H38.5066H38.5067H38.5067H38.5068H38.5068H38.5069H38.5069H38.5069H38.507H38.507H38.5071H38.5071H38.5072H38.5072H38.5073H38.5073H38.5073H38.5074H38.5074H38.5075H38.5075H38.5076H38.5076H38.5077H38.5077H38.5078H38.5078H38.5079H38.5079H38.508H38.508H38.5081H38.5081H38.5082H38.5082H38.5083H38.5083H38.5083H38.5084H38.5084H38.5085H38.5085H38.5086H38.5087H38.5087H38.5088H38.52L38.5311 26.9392C43.3786 26.4553 47.1775 22.3521 47.1775 17.379ZM34.5962 8.27769L34.7474 8.42887L34.7466 8.43919C34.7032 8.45299 34.66 8.46711 34.6168 8.48153C34.5913 8.43555 34.5766 8.366 34.5892 8.28583L34.5962 8.27769ZM30.9844 13.4498L30.9844 13.4498L30.9866 13.4528C31.1047 13.6125 31.1613 13.7836 31.1613 14.0103C31.1613 14.155 31.1153 14.3298 30.9991 14.579C30.7367 15.1263 30.8603 15.7554 31.2792 16.2246C31.7224 16.7265 32.3971 16.9327 32.9665 16.7366L33.3783 16.6251C33.3784 16.6251 33.3785 16.625 33.3786 16.625C33.6551 16.5509 33.938 16.657 34.0708 16.8502L34.0717 16.8515C34.3055 17.1866 34.4398 17.631 34.4591 18.0885C34.4784 18.5459 34.382 18.9975 34.1764 19.3469C34.0002 19.6425 33.6646 19.8315 33.2938 19.8315H32.6463C31.9972 19.8315 31.4328 20.2439 31.218 20.8473L31.218 20.8473L31.217 20.8503L31.0688 21.2863C30.8622 21.8668 31.0413 22.5024 31.4972 22.9178L31.4976 22.9182C31.7045 23.1059 31.8536 23.2918 31.9534 23.478C30.3105 21.944 29.275 19.7796 29.275 17.379C29.275 15.9001 29.6722 14.5181 30.3569 13.3113L30.491 13.2865C30.5613 13.2735 30.6676 13.2826 30.7749 13.3196C30.8848 13.3574 30.9564 13.4106 30.9844 13.4498ZM45.5793 15.2129C45.7663 15.9043 45.87 16.6297 45.87 17.379C45.87 21.3432 43.0666 24.6604 39.3463 25.4793C39.3999 25.3141 39.4653 25.1556 39.5475 25.0008L39.5478 25.0002C39.989 24.1638 40.1634 23.2262 40.0625 22.2899L40.0622 22.2877L40.0277 21.9947C40.0191 21.8818 40.0113 21.7776 40.0113 21.6665C40.0113 20.9323 40.1112 20.4277 40.3058 20.0843C40.4927 19.7545 40.78 19.5507 41.2202 19.4443C41.4976 19.3811 41.8108 19.3642 42.1699 19.4131C43.393 19.5902 44.2614 19.455 44.7958 18.9001L44.7967 18.8992C45.215 18.4599 45.3175 17.8499 45.1786 17.1183L45.1787 17.1183L45.177 17.1106C44.981 16.2446 45.257 15.619 45.5793 15.2129ZM36.3024 9.76413C36.1264 9.66257 35.9688 9.49051 35.8634 9.26846C36.4199 9.15079 36.9874 9.08156 37.5721 9.08152C39.8541 9.08963 41.9256 10.0233 43.4259 11.5228L42.2986 11.7418L42.3413 11.9628L42.2983 11.7419L42.2984 11.7419C41.7474 11.8483 41.2466 12.1476 40.8815 12.5895L40.8815 12.5895L40.8793 12.5922C40.703 12.8126 40.4647 12.9472 40.2275 12.9825C39.7335 13.0481 39.219 13.0158 38.6731 12.8898L38.6731 12.8898L38.6713 12.8894C38.4254 12.8347 38.1928 12.6596 38.0352 12.4046C38.0352 12.4046 38.0352 12.4046 38.0352 12.4045L37.6177 11.7262C37.5433 11.5934 37.5012 11.4948 37.4895 11.4011L37.4898 11.4011L37.4879 11.3905C37.3702 10.7136 36.9397 10.1351 36.3032 9.76457L36.3024 9.76413ZM42.315 18.3328C41.8163 18.2715 41.3788 18.2803 40.9675 18.3853L42.315 18.3328Z" fill="white" stroke="white" stroke-width="0.45"/>
<path d="M36.6621 41.3006L37.0821 41.3531C37.1259 41.6331 37.2046 41.9131 37.3096 42.1756L36.9859 42.4293C36.8984 42.4993 36.8196 42.6393 36.8021 42.7531C36.7846 42.8668 36.8284 43.0156 36.8984 43.1031L37.6946 44.1181C37.7646 44.2143 37.8959 44.2843 38.0184 44.3018C38.1321 44.3106 38.2809 44.2756 38.3684 44.2056L38.7009 43.9431C38.9371 44.1093 39.1821 44.2493 39.4446 44.3631L39.4009 44.7743C39.3834 44.8881 39.4271 45.0368 39.4971 45.1331C39.5671 45.2206 39.7071 45.2993 39.8209 45.3168L41.1071 45.4656C41.1246 45.4656 41.1334 45.4656 41.1509 45.4656C41.2559 45.4656 41.3871 45.4218 41.4659 45.3606C41.5534 45.2906 41.6234 45.1593 41.6409 45.0456L41.6934 44.6256C41.9734 44.5818 42.2534 44.5031 42.5159 44.3981L42.7784 44.7306C42.9271 44.9143 43.2596 44.9581 43.4434 44.8093L44.4584 44.0131C44.5459 43.9431 44.6246 43.8031 44.6421 43.6893C44.6596 43.5756 44.6159 43.4268 44.5459 43.3393L44.2834 43.0068C44.4496 42.7793 44.5896 42.5256 44.7034 42.2631L45.1234 42.3156C45.2371 42.3331 45.3859 42.2893 45.4734 42.2106C45.5609 42.1406 45.6309 42.0093 45.6484 41.8956L45.7971 40.6181C45.8146 40.5043 45.7709 40.3556 45.7009 40.2593C45.6309 40.1718 45.4996 40.0931 45.3771 40.0756L44.9571 40.0231C44.9134 39.7431 44.8346 39.4718 44.7296 39.2006L45.0621 38.9381C45.1496 38.8681 45.2284 38.7281 45.2371 38.6143C45.2459 38.5006 45.2109 38.3518 45.1409 38.2643L44.3359 37.2406C44.1871 37.0568 43.8546 37.0218 43.6709 37.1618L43.3384 37.4243C43.1021 37.2581 42.8571 37.1181 42.5946 37.0043L42.6471 36.5931C42.6646 36.4793 42.6209 36.3306 42.5509 36.2431C42.4809 36.1556 42.3496 36.0768 42.2271 36.0593L40.9409 35.9106C40.8271 35.8931 40.6784 35.9368 40.5909 36.0156C40.5034 36.0856 40.4334 36.2168 40.4159 36.3306L40.3459 36.7506C40.0659 36.7943 39.7859 36.8731 39.5234 36.9781L39.2696 36.6543C39.1996 36.5581 39.0684 36.4881 38.9459 36.4706C38.8321 36.4618 38.6834 36.4968 38.5959 36.5668L37.5721 37.3718C37.3884 37.5206 37.3534 37.8531 37.5021 38.0368L37.7646 38.3693C37.5984 38.6056 37.4584 38.8506 37.3446 39.1131L36.9246 39.0606C36.7059 39.0343 36.4259 39.2443 36.3996 39.4806L36.2509 40.7756C36.2246 41.0118 36.4346 41.2743 36.6621 41.3006ZM37.2046 39.9706L37.5371 40.0143C37.7296 40.0406 37.9834 39.8831 38.0446 39.6906C38.1671 39.3231 38.3596 38.9818 38.6046 38.6843C38.7446 38.5268 38.7446 38.2381 38.6221 38.0806L38.4121 37.8181L38.8234 37.4943L39.0246 37.7481C39.1471 37.9143 39.4271 37.9843 39.6196 37.8881C39.9696 37.7131 40.3459 37.6081 40.7309 37.5731C40.9321 37.5556 41.1421 37.3543 41.1684 37.1531L41.2121 36.8206L41.7284 36.8818L41.6846 37.2143C41.6584 37.4156 41.8159 37.6606 42.0084 37.7218C42.3759 37.8443 42.7171 38.0368 43.0146 38.2906C43.1721 38.4218 43.4521 38.4306 43.6184 38.2993L43.8809 38.0893L44.2134 38.5006L43.9509 38.7106C43.7934 38.8418 43.7321 39.1131 43.8196 39.2968C43.9946 39.6468 44.0996 40.0231 44.1346 40.4081C44.1521 40.6093 44.3446 40.8193 44.5546 40.8456L44.8871 40.8893L44.8259 41.4056L44.4934 41.3618C44.2834 41.3356 44.0559 41.4931 43.9859 41.6856C43.8634 42.0618 43.6709 42.3943 43.4171 42.7006C43.2859 42.8581 43.2859 43.1381 43.4084 43.2956L43.6184 43.5581L43.2071 43.8818L42.9971 43.6106C42.8659 43.4531 42.5946 43.3918 42.4196 43.4881C42.0696 43.6631 41.6934 43.7681 41.3084 43.8031C41.1071 43.8206 40.8971 44.0131 40.8709 44.2231L40.8271 44.5556L40.3109 44.4943L40.3459 44.1618C40.3721 43.9606 40.2146 43.7156 40.0221 43.6543C39.6546 43.5318 39.3134 43.3393 39.0071 43.0856C38.8496 42.9543 38.5696 42.9543 38.4121 43.0768L38.1496 43.2868L37.8259 42.8756L38.0796 42.6743C38.2459 42.5518 38.3071 42.2718 38.2196 42.0881C38.0446 41.7381 37.9396 41.3618 37.9046 40.9768C37.8871 40.7756 37.6946 40.5656 37.4846 40.5393L37.1521 40.4956L37.2046 39.9706Z" fill="white"/>
<path d="M40.7486 42.9464C40.8361 42.9551 40.9323 42.9639 41.0198 42.9639C42.1573 42.9639 43.1461 42.1064 43.2773 40.9514C43.3473 40.3476 43.1811 39.7526 42.8048 39.2714C42.4286 38.7901 41.8861 38.4926 41.2823 38.4226C40.6786 38.3526 40.0836 38.5189 39.6023 38.8951C39.1211 39.2714 38.8236 39.8139 38.7536 40.4176C38.6048 41.6601 39.4973 42.7976 40.7486 42.9464ZM39.6111 40.5139C39.6548 40.1376 39.8473 39.8051 40.1448 39.5689C40.3986 39.3676 40.7048 39.2626 41.0198 39.2626C41.0723 39.2626 41.1336 39.2626 41.1861 39.2714C41.9648 39.3676 42.5161 40.0676 42.4286 40.8464C42.3323 41.6251 41.6323 42.1764 40.8536 42.0889C40.0748 42.0014 39.5148 41.2926 39.6111 40.5139Z" fill="white"/>
</g>
<defs>
<clipPath id="clip0_747_998">
<rect width="56" height="56" fill="white"/>
</clipPath>
</defs>
</svg>
