<svg width="56" height="56" viewBox="0 0 56 56" fill="none" xmlns="http://www.w3.org/2000/svg">
<g clip-path="url(#clip0_747_977)">
<path d="M22.6667 13.2942C22.6794 11.9751 23.2148 10.7149 24.1555 9.79004C25.0961 8.86518 26.3652 8.35121 27.6844 8.3609H28.3157C29.6348 8.35121 30.904 8.86518 31.8446 9.79004C32.7853 10.7149 33.3207 11.9751 33.3334 13.2942V15.0276H34.6667V13.2942C34.6536 11.6216 33.9776 10.0225 32.7869 8.84773C31.5963 7.67292 29.9883 7.01833 28.3157 7.02756H27.6844C26.0118 7.01833 24.4038 7.67292 23.2131 8.84773C22.0225 10.0225 21.3465 11.6216 21.3334 13.2942V15.0276H22.6667V13.2942Z" fill="white"/>
<path d="M12.6667 20.3602C13.0349 20.3602 13.3333 20.0617 13.3333 19.6935C13.3333 19.3253 13.0349 19.0269 12.6667 19.0269C12.2985 19.0269 12 19.3253 12 19.6935C12 20.0617 12.2985 20.3602 12.6667 20.3602Z" fill="white"/>
<path d="M17.9999 20.3602C18.3681 20.3602 18.6666 20.0617 18.6666 19.6935C18.6666 19.3253 18.3681 19.0269 17.9999 19.0269C17.6317 19.0269 17.3333 19.3253 17.3333 19.6935C17.3333 20.0617 17.6317 20.3602 17.9999 20.3602Z" fill="white"/>
<path d="M15.3333 20.3602C15.7015 20.3602 16 20.0617 16 19.6935C16 19.3253 15.7015 19.0269 15.3333 19.0269C14.9651 19.0269 14.6666 19.3253 14.6666 19.6935C14.6666 20.0617 14.9651 20.3602 15.3333 20.3602Z" fill="white"/>
<path d="M31.4121 39.7077C31.56 39.5305 31.6594 39.3179 31.7005 39.0908C31.7416 38.8637 31.7231 38.6298 31.6467 38.412C31.5703 38.1942 31.4387 37.9999 31.2647 37.8482C31.0907 37.6966 30.8803 37.5927 30.6541 37.5467L26.5991 36.7213C26.3688 36.6744 26.1301 36.6892 25.9073 36.7643C25.6845 36.8394 25.4855 36.972 25.3305 37.1488C25.1755 37.3255 25.07 37.5401 25.0247 37.7708C24.9794 38.0015 24.9959 38.2401 25.0725 38.4623L26.3268 42.1017C26.4145 42.3562 26.5771 42.5783 26.7934 42.7386C27.0097 42.899 27.2694 42.9901 27.5385 43C27.5548 43.0007 27.5711 43.001 27.5878 43.001C27.7813 43.001 27.9725 42.9588 28.148 42.8775C28.3236 42.7962 28.4793 42.6776 28.6045 42.53L29.2211 43.0487C29.477 43.2639 29.8044 43.3751 30.1384 43.3603C30.4724 43.3454 30.7887 43.2057 31.0245 42.9687L31.9448 42.044C32.075 41.9133 32.1766 41.7569 32.2432 41.5849C32.3098 41.4128 32.34 41.2288 32.3319 41.0445C32.3237 40.8602 32.2774 40.6795 32.1959 40.5141C32.1143 40.3486 31.9993 40.2018 31.8581 40.083L31.4121 39.7077ZM30.0795 42.0277L28.1348 40.3923L27.5875 41.6673L26.3331 38.0277L30.3881 38.8533L29.0551 39.4677L30.9998 41.103L30.0795 42.0277Z" fill="white"/>
<path d="M22.6666 26.0269H14.6666C14.4898 26.0269 14.3202 26.0971 14.1952 26.2221C14.0702 26.3471 13.9999 26.5167 13.9999 26.6935V34.6935C13.9999 34.8703 14.0702 35.0399 14.1952 35.1649C14.3202 35.29 14.4898 35.3602 14.6666 35.3602H22.6666C22.8434 35.3602 23.013 35.29 23.138 35.1649C23.263 35.0399 23.3333 34.8703 23.3333 34.6935V26.6935C23.3333 26.5167 23.263 26.3471 23.138 26.2221C23.013 26.0971 22.8434 26.0269 22.6666 26.0269ZM21.9999 34.0269H15.3333V27.3602H21.9999V34.0269Z" fill="white"/>
<path d="M41.1666 26.0269H25.5C25.3232 26.0269 25.1536 26.0971 25.0286 26.2221C24.9036 26.3471 24.8333 26.5167 24.8333 26.6935C24.8333 26.8703 24.9036 27.0399 25.0286 27.1649C25.1536 27.29 25.3232 27.3602 25.5 27.3602H41.1666C41.3435 27.3602 41.513 27.29 41.6381 27.1649C41.7631 27.0399 41.8333 26.8703 41.8333 26.6935C41.8333 26.5167 41.7631 26.3471 41.6381 26.2221C41.513 26.0971 41.3435 26.0269 41.1666 26.0269Z" fill="white"/>
<path d="M41.1668 28.6943H25.5001C25.3233 28.6943 25.1537 28.7645 25.0287 28.8895C24.9037 29.0146 24.8334 29.1841 24.8334 29.3609C24.8334 29.5378 24.9037 29.7073 25.0287 29.8323C25.1537 29.9574 25.3233 30.0276 25.5001 30.0276H41.1668C41.3436 30.0276 41.5131 29.9574 41.6382 29.8323C41.7632 29.7073 41.8334 29.5378 41.8334 29.3609C41.8334 29.1841 41.7632 29.0146 41.6382 28.8895C41.5131 28.7645 41.3436 28.6943 41.1668 28.6943Z" fill="white"/>
<path d="M41.1668 31.3599H25.5001C25.3233 31.3599 25.1537 31.4301 25.0287 31.5551C24.9037 31.6801 24.8334 31.8497 24.8334 32.0265C24.8334 32.2033 24.9037 32.3729 25.0287 32.4979C25.1537 32.623 25.3233 32.6932 25.5001 32.6932H41.1668C41.3436 32.6932 41.5131 32.623 41.6382 32.4979C41.7632 32.3729 41.8334 32.2033 41.8334 32.0265C41.8334 31.8497 41.7632 31.6801 41.6382 31.5551C41.5131 31.4301 41.3436 31.3599 41.1668 31.3599Z" fill="white"/>
<path d="M41.1668 34.0272H25.5001C25.3233 34.0272 25.1537 34.0974 25.0287 34.2224C24.9037 34.3474 24.8334 34.517 24.8334 34.6938C24.8334 34.8706 24.9037 35.0402 25.0287 35.1652C25.1537 35.2903 25.3233 35.3605 25.5001 35.3605H41.1668C41.3436 35.3605 41.5131 35.2903 41.6382 35.1652C41.7632 35.0402 41.8334 34.8706 41.8334 34.6938C41.8334 34.517 41.7632 34.3474 41.6382 34.2224C41.5131 34.0974 41.3436 34.0272 41.1668 34.0272Z" fill="white"/>
<path d="M0.666667 49.6939C1.03486 49.6939 1.33333 49.3955 1.33333 49.0273C1.33333 48.6591 1.03486 48.3606 0.666667 48.3606C0.298477 48.3606 0 48.6591 0 49.0273C0 49.3955 0.298477 49.6939 0.666667 49.6939Z" fill="white"/>
<path d="M3.66673 48.3606H2.66673C2.48992 48.3606 2.32035 48.4308 2.19532 48.5559C2.0703 48.6809 2.00006 48.8505 2.00006 49.0273C2.00006 49.2041 2.0703 49.3736 2.19532 49.4987C2.32035 49.6237 2.48992 49.6939 2.66673 49.6939H3.66673C3.84354 49.6939 4.01311 49.6237 4.13813 49.4987C4.26316 49.3736 4.33339 49.2041 4.33339 49.0273C4.33339 48.8505 4.26316 48.6809 4.13813 48.5559C4.01311 48.4308 3.84354 48.3606 3.66673 48.3606Z" fill="white"/>
<path d="M39.3846 51.0262H36.6153C36.4474 51.0392 36.2906 51.1151 36.1762 51.2387C36.0618 51.3623 35.9983 51.5245 35.9983 51.6929C35.9983 51.8612 36.0618 52.0234 36.1762 52.147C36.2906 52.2706 36.4474 52.3465 36.6153 52.3595H39.3846C39.5525 52.3465 39.7093 52.2706 39.8237 52.147C39.9381 52.0234 40.0016 51.8612 40.0016 51.6929C40.0016 51.5245 39.9381 51.3623 39.8237 51.2387C39.7093 51.1151 39.5525 51.0392 39.3846 51.0262ZM19.3846 51.0262H16.6153C16.4474 51.0392 16.2906 51.1151 16.1762 51.2387C16.0618 51.3623 15.9983 51.5245 15.9983 51.6929C15.9983 51.8612 16.0618 52.0234 16.1762 52.147C16.2906 52.2706 16.4474 52.3465 16.6153 52.3595H19.3846C19.5525 52.3465 19.7093 52.2706 19.8237 52.147C19.9381 52.0234 20.0016 51.8612 20.0016 51.6929C20.0016 51.5245 19.9381 51.3623 19.8237 51.2387C19.7093 51.1151 19.5525 51.0392 19.3846 51.0262ZM34.6666 51.0262H21.3333C21.1565 51.0262 20.9869 51.0964 20.8619 51.2215C20.7368 51.3465 20.6666 51.516 20.6666 51.6929C20.6666 51.8697 20.7368 52.0392 20.8619 52.1643C20.9869 52.2893 21.1565 52.3595 21.3333 52.3595H26.6466V53.0262H23.9999C23.8231 53.0262 23.6536 53.0964 23.5285 53.2215C23.4035 53.3465 23.3333 53.516 23.3333 53.6929C23.3333 53.8697 23.4035 54.0392 23.5285 54.1643C23.6536 54.2893 23.8231 54.3595 23.9999 54.3595H32.3333C32.5101 54.3595 32.6797 54.2893 32.8047 54.1643C32.9297 54.0392 32.9999 53.8697 32.9999 53.6929C32.9999 53.516 32.9297 53.3465 32.8047 53.2215C32.6797 53.0964 32.5101 53.0262 32.3333 53.0262H29.3533V52.3595H34.6666C34.8434 52.3595 35.013 52.2893 35.138 52.1643C35.263 52.0392 35.3333 51.8697 35.3333 51.6929C35.3333 51.516 35.263 51.3465 35.138 51.2215C35.013 51.0964 34.8434 51.0262 34.6666 51.0262Z" fill="white"/>
<path d="M0.666667 49.6939C1.03486 49.6939 1.33333 49.3955 1.33333 49.0273C1.33333 48.6591 1.03486 48.3606 0.666667 48.3606C0.298477 48.3606 0 48.6591 0 49.0273C0 49.3955 0.298477 49.6939 0.666667 49.6939Z" fill="white"/>
<path d="M3.66673 48.3606H2.66673C2.48992 48.3606 2.32035 48.4308 2.19532 48.5559C2.0703 48.6809 2.00006 48.8505 2.00006 49.0273C2.00006 49.2041 2.0703 49.3736 2.19532 49.4987C2.32035 49.6237 2.48992 49.6939 2.66673 49.6939H3.66673C3.84354 49.6939 4.01311 49.6237 4.13813 49.4987C4.26316 49.3736 4.33339 49.2041 4.33339 49.0273C4.33339 48.8505 4.26316 48.6809 4.13813 48.5559C4.01311 48.4308 3.84354 48.3606 3.66673 48.3606Z" fill="white"/>
<path d="M39.3846 51.0262H36.6153C36.4474 51.0392 36.2906 51.1151 36.1762 51.2387C36.0618 51.3623 35.9983 51.5245 35.9983 51.6929C35.9983 51.8612 36.0618 52.0234 36.1762 52.147C36.2906 52.2706 36.4474 52.3465 36.6153 52.3595H39.3846C39.5525 52.3465 39.7093 52.2706 39.8237 52.147C39.9381 52.0234 40.0016 51.8612 40.0016 51.6929C40.0016 51.5245 39.9381 51.3623 39.8237 51.2387C39.7093 51.1151 39.5525 51.0392 39.3846 51.0262ZM19.3846 51.0262H16.6153C16.4474 51.0392 16.2906 51.1151 16.1762 51.2387C16.0618 51.3623 15.9983 51.5245 15.9983 51.6929C15.9983 51.8612 16.0618 52.0234 16.1762 52.147C16.2906 52.2706 16.4474 52.3465 16.6153 52.3595H19.3846C19.5525 52.3465 19.7093 52.2706 19.8237 52.147C19.9381 52.0234 20.0016 51.8612 20.0016 51.6929C20.0016 51.5245 19.9381 51.3623 19.8237 51.2387C19.7093 51.1151 19.5525 51.0392 19.3846 51.0262ZM34.6666 51.0262H21.3333C21.1565 51.0262 20.9869 51.0964 20.8619 51.2215C20.7368 51.3465 20.6666 51.516 20.6666 51.6929C20.6666 51.8697 20.7368 52.0392 20.8619 52.1643C20.9869 52.2893 21.1565 52.3595 21.3333 52.3595H26.6466V53.0262H23.9999C23.8231 53.0262 23.6536 53.0964 23.5285 53.2215C23.4035 53.3465 23.3333 53.516 23.3333 53.6929C23.3333 53.8697 23.4035 54.0392 23.5285 54.1643C23.6536 54.2893 23.8231 54.3595 23.9999 54.3595H32.3333C32.5101 54.3595 32.6797 54.2893 32.8047 54.1643C32.9297 54.0392 32.9999 53.8697 32.9999 53.6929C32.9999 53.516 32.9297 53.3465 32.8047 53.2215C32.6797 53.0964 32.5101 53.0262 32.3333 53.0262H29.3533V52.3595H34.6666C34.8434 52.3595 35.013 52.2893 35.138 52.1643C35.263 52.0392 35.3333 51.8697 35.3333 51.6929C35.3333 51.516 35.263 51.3465 35.138 51.2215C35.013 51.0964 34.8434 51.0262 34.6666 51.0262Z" fill="white"/>
<path d="M53.3331 48.3606H52.3331C52.1563 48.3606 51.9867 48.4308 51.8617 48.5559C51.7367 48.6809 51.6664 48.8505 51.6664 49.0273C51.6664 49.2041 51.7367 49.3736 51.8617 49.4987C51.9867 49.6237 52.1563 49.6939 52.3331 49.6939H53.3331C53.5099 49.6939 53.6795 49.6237 53.8045 49.4987C53.9295 49.3736 53.9998 49.2041 53.9998 49.0273C53.9998 48.8505 53.9295 48.6809 53.8045 48.5559C53.6795 48.4308 53.5099 48.3606 53.3331 48.3606Z" fill="white"/>
<path d="M55.3335 49.6939C55.7017 49.6939 56.0001 49.3955 56.0001 49.0273C56.0001 48.6591 55.7017 48.3606 55.3335 48.3606C54.9653 48.3606 54.6668 48.6591 54.6668 49.0273C54.6668 49.3955 54.9653 49.6939 55.3335 49.6939Z" fill="white"/>
<path d="M50.2403 48.3602H45.1083C45.32 47.9836 45.4342 47.5601 45.4406 47.1282L48.6623 19.0422C48.6652 19.0171 48.6666 18.9918 48.6666 18.9665C48.6664 18.276 48.3923 17.6138 47.9045 17.1252C47.4166 16.6365 46.7548 16.3614 46.0643 16.3602H9.93561C9.24512 16.3614 8.58332 16.6365 8.09544 17.1252C7.60756 17.6138 7.33346 18.276 7.33328 18.9665C7.33326 18.9918 7.33471 19.0171 7.33761 19.0422L10.5593 47.1282C10.5656 47.5601 10.6799 47.9836 10.8916 48.3602H5.75961C5.66477 48.3478 5.56838 48.3558 5.47687 48.3836C5.38536 48.4114 5.30084 48.4585 5.22896 48.5216C5.15708 48.5847 5.09949 48.6624 5.06003 48.7495C5.02058 48.8367 5.00017 48.9312 5.00017 49.0268C5.00017 49.1225 5.02058 49.217 5.06003 49.3042C5.09949 49.3913 5.15708 49.469 5.22896 49.5321C5.30084 49.5952 5.38536 49.6423 5.47687 49.6701C5.56838 49.6979 5.66477 49.7059 5.75961 49.6935H50.2399C50.3348 49.7059 50.4312 49.6979 50.5227 49.6701C50.6142 49.6423 50.6987 49.5952 50.7706 49.5321C50.8425 49.469 50.9001 49.3913 50.9395 49.3042C50.979 49.217 50.9994 49.1225 50.9994 49.0268C50.9994 48.9312 50.979 48.8367 50.9395 48.7495C50.9001 48.6624 50.8425 48.5847 50.7706 48.5216C50.6987 48.4585 50.6142 48.4114 50.5227 48.3836C50.4312 48.3558 50.3351 48.3478 50.2403 48.3602ZM8.66695 18.9325C8.67562 18.6015 8.813 18.287 9.0499 18.0557C9.28679 17.8244 9.60453 17.6946 9.93561 17.6938H46.0643C46.3954 17.6945 46.7132 17.8243 46.9502 18.0556C47.1872 18.2869 47.3246 18.6015 47.3333 18.9325L47.0166 21.6938H8.98361L8.66695 18.9325ZM13.1613 48.3605C12.8244 48.3596 12.5015 48.2251 12.2636 47.9866C12.0257 47.748 11.8922 47.4248 11.8923 47.0878C11.8923 47.0625 11.8909 47.0371 11.8879 47.0118L9.13695 23.0272H46.8633L44.1119 47.0118C44.109 47.0371 44.1076 47.0625 44.1076 47.0878C44.1077 47.4248 43.9742 47.748 43.7363 47.9866C43.4984 48.2251 43.1755 48.3596 42.8386 48.3605H13.1613ZM20.6666 4.30485C20.8644 4.30485 21.0577 4.2462 21.2222 4.13632C21.3866 4.02644 21.5148 3.87026 21.5905 3.68753C21.6662 3.50481 21.686 3.30374 21.6474 3.10976C21.6088 2.91578 21.5136 2.7376 21.3737 2.59774C21.2339 2.45789 21.0557 2.36265 20.8617 2.32407C20.6677 2.28548 20.4667 2.30528 20.2839 2.38097C20.1012 2.45666 19.945 2.58483 19.8351 2.74928C19.7253 2.91373 19.6666 3.10707 19.6666 3.30485C19.6669 3.56999 19.7723 3.82419 19.9598 4.01166C20.1473 4.19914 20.4015 4.30459 20.6666 4.30485ZM20.6666 2.80485C20.7655 2.80485 20.8622 2.83417 20.9444 2.88912C21.0266 2.94406 21.0907 3.02215 21.1286 3.11351C21.1664 3.20487 21.1763 3.3054 21.157 3.4024C21.1377 3.49939 21.0901 3.58848 21.0202 3.6584C20.9502 3.72833 20.8611 3.77595 20.7642 3.79524C20.6672 3.81454 20.5666 3.80463 20.4753 3.76679C20.3839 3.72895 20.3058 3.66486 20.2509 3.58264C20.1959 3.50041 20.1666 3.40374 20.1666 3.30485C20.1667 3.17227 20.2194 3.04514 20.3132 2.95139C20.4069 2.85765 20.534 2.80494 20.6666 2.80485ZM52.7683 23.3602C52.6364 23.3602 52.5075 23.3993 52.3979 23.4725C52.2883 23.5458 52.2028 23.6499 52.1524 23.7717C52.1019 23.8935 52.0887 24.0276 52.1144 24.1569C52.1401 24.2862 52.2036 24.405 52.2969 24.4983C52.3901 24.5915 52.5089 24.655 52.6382 24.6807C52.7675 24.7064 52.9016 24.6932 53.0234 24.6428C53.1452 24.5923 53.2493 24.5069 53.3226 24.3972C53.3958 24.2876 53.4349 24.1587 53.4349 24.0268C53.4348 23.8501 53.3645 23.6806 53.2395 23.5556C53.1145 23.4307 52.945 23.3604 52.7683 23.3602ZM52.7683 24.3602C52.7024 24.3602 52.6379 24.3406 52.5831 24.304C52.5283 24.2674 52.4855 24.2153 52.4603 24.1544C52.4351 24.0935 52.4285 24.0265 52.4414 23.9618C52.4542 23.8972 52.486 23.8378 52.5326 23.7911C52.5792 23.7445 52.6386 23.7128 52.7033 23.6999C52.7679 23.6871 52.8349 23.6937 52.8958 23.7189C52.9567 23.7441 53.0088 23.7868 53.0454 23.8417C53.0821 23.8965 53.1016 23.9609 53.1016 24.0268C53.1015 24.1152 53.0664 24.2 53.0039 24.2625C52.9414 24.3249 52.8567 24.3601 52.7683 24.3602ZM37.4606 3.63818C37.3288 3.63818 37.1999 3.67728 37.0902 3.75054C36.9806 3.82379 36.8951 3.92791 36.8447 4.04973C36.7942 4.17155 36.781 4.30559 36.8068 4.43491C36.8325 4.56423 36.896 4.68302 36.9892 4.77625C37.0824 4.86949 37.2012 4.93298 37.3306 4.95871C37.4599 4.98443 37.5939 4.97123 37.7157 4.92077C37.8376 4.87031 37.9417 4.78486 38.0149 4.67523C38.0882 4.5656 38.1273 4.4367 38.1273 4.30485C38.1271 4.12809 38.0568 3.95863 37.9318 3.83364C37.8068 3.70865 37.6374 3.63836 37.4606 3.63818ZM37.4606 4.63818C37.3947 4.63818 37.3302 4.61863 37.2754 4.58201C37.2206 4.54538 37.1779 4.49332 37.1527 4.43241C37.1274 4.3715 37.1208 4.30448 37.1337 4.23982C37.1465 4.17516 37.1783 4.11577 37.2249 4.06915C37.2715 4.02253 37.3309 3.99078 37.3956 3.97792C37.4602 3.96506 37.5273 3.97166 37.5882 3.99689C37.6491 4.02212 37.7011 4.06484 37.7378 4.11966C37.7744 4.17448 37.7939 4.23892 37.7939 4.30485C37.7939 4.39323 37.7587 4.47796 37.6962 4.54046C37.6337 4.60295 37.549 4.6381 37.4606 4.63818ZM48.7776 1.63818C48.6458 1.63818 48.5169 1.67728 48.4072 1.75054C48.2976 1.82379 48.2122 1.92791 48.1617 2.04973C48.1112 2.17155 48.098 2.30559 48.1238 2.43491C48.1495 2.56423 48.213 2.68302 48.3062 2.77625C48.3994 2.86949 48.5182 2.93298 48.6476 2.95871C48.7769 2.98443 48.9109 2.97123 49.0327 2.92077C49.1546 2.87031 49.2587 2.78486 49.3319 2.67523C49.4052 2.5656 49.4443 2.4367 49.4443 2.30485C49.4441 2.12809 49.3738 1.95863 49.2488 1.83364C49.1238 1.70865 48.9544 1.63836 48.7776 1.63818ZM48.7776 2.63818C48.7117 2.63818 48.6472 2.61863 48.5924 2.58201C48.5376 2.54538 48.4949 2.49332 48.4697 2.43241C48.4444 2.3715 48.4378 2.30448 48.4507 2.23982C48.4635 2.17516 48.4953 2.11577 48.5419 2.06915C48.5885 2.02253 48.6479 1.99078 48.7126 1.97792C48.7772 1.96506 48.8443 1.97166 48.9052 1.99689C48.9661 2.02212 49.0181 2.06484 49.0548 2.11966C49.0914 2.17448 49.1109 2.23892 49.1109 2.30485C49.1109 2.39323 49.0757 2.47796 49.0132 2.54046C48.9507 2.60295 48.866 2.6381 48.7776 2.63818ZM4.15761 18.3602C4.15761 18.2283 4.11851 18.0994 4.04526 17.9898C3.97201 17.8802 3.86789 17.7947 3.74607 17.7443C3.62425 17.6938 3.49021 17.6806 3.36089 17.7063C3.23157 17.732 3.11278 17.7955 3.01954 17.8888C2.92631 17.982 2.86281 18.1008 2.83709 18.2301C2.81137 18.3594 2.82457 18.4935 2.87503 18.6153C2.92549 18.7371 3.01093 18.8412 3.12057 18.9145C3.2302 18.9877 3.35909 19.0268 3.49095 19.0268C3.6677 19.0267 3.83717 18.9564 3.96216 18.8314C4.08714 18.7064 4.15744 18.5369 4.15761 18.3602ZM3.15761 18.3602C3.15761 18.2943 3.17716 18.2298 3.21379 18.175C3.25042 18.1202 3.30248 18.0775 3.36339 18.0522C3.42429 18.027 3.49132 18.0204 3.55598 18.0333C3.62064 18.0461 3.68003 18.0779 3.72665 18.1245C3.77327 18.1711 3.80501 18.2305 3.81787 18.2952C3.83074 18.3598 3.82414 18.4268 3.79891 18.4877C3.77368 18.5487 3.73095 18.6007 3.67614 18.6373C3.62132 18.674 3.55687 18.6935 3.49095 18.6935C3.40257 18.6934 3.31783 18.6583 3.25534 18.5958C3.19285 18.5333 3.1577 18.4486 3.15761 18.3602Z" fill="white"/>
<path d="M2.70362 4.58224L3.19895 3.93023L2.88595 3.75323L2.56795 4.48324H2.55728L2.23428 3.75823L1.91562 3.9409L2.40628 4.57723V4.58757L1.63928 4.48824V4.8429L2.41128 4.7439V4.75457L1.91562 5.39057L2.21295 5.57857L2.55228 4.8429H2.56262L2.87562 5.57323L3.20428 5.38557L2.70362 4.75957V4.74924L3.49095 4.8429V4.48824L2.70362 4.59257V4.58224ZM13.9113 11.0779L13.6259 11.4442L13.7973 11.5522L13.9926 11.1286H13.9986L14.1786 11.5492L14.3679 11.4412L14.0796 11.0806V11.0746L14.5329 11.1286V10.9246L14.0796 10.9846V10.9786L14.365 10.6032L14.1849 10.5012L14.0016 10.9216H13.9956L13.8096 10.5039L13.6259 10.6092L13.9086 10.9756V10.9816L13.4669 10.9246V11.1286L13.9113 11.0716V11.0779ZM53.343 11.7262V11.3782L52.5706 11.4806V11.4702L53.0566 10.8309L52.7496 10.6569L52.4376 11.3729H52.4273L52.1103 10.6619L51.798 10.8412L52.279 11.4652V11.4756L51.5269 11.3782V11.7262L52.284 11.6289V11.6392L51.798 12.2632L52.0896 12.4476L52.4223 11.7262H52.4323L52.7393 12.4422L53.0616 12.2582L52.5706 11.6442V11.6339L53.343 11.7262ZM39.7016 12.6536L40.1403 12.1172L39.881 11.9579L39.59 12.5656L39.5809 12.5652L39.3296 11.9426L39.0546 12.0876L39.4503 12.6402V12.6492L38.8046 12.5422L38.794 12.8422L39.4496 12.7816V12.7906L39.0113 13.3136L39.2573 13.4812L39.5659 12.8696L39.5746 12.8699L39.8176 13.4966L40.101 13.3476L39.6963 12.8036L39.6966 12.7946L40.3596 12.8976L40.3703 12.5976L39.7013 12.6622L39.7016 12.6536Z" fill="white"/>
</g>
<defs>
<clipPath id="clip0_747_977">
<rect width="56" height="56" fill="white"/>
</clipPath>
</defs>
</svg>
