<svg width="30" height="20" viewBox="0 0 30 20" fill="none" xmlns="http://www.w3.org/2000/svg">
<g clip-path="url(#clip0_747_1158)">
<path d="M0.000198364 2.35111V1.66715C0.000198364 1.22513 0.197742 0.801204 0.549373 0.488644C0.901004 0.176083 1.37792 0.000488281 1.8752 0.000488281L28.1252 0.000488281C28.6225 0.000488281 29.0994 0.176083 29.451 0.488644C29.8027 0.801204 30.0002 1.22513 30.0002 1.66715V2.35111L15.0002 10.6844L0.000198364 2.35111ZM15.4971 12.374C15.348 12.4567 15.1759 12.5005 15.0002 12.5005C14.8245 12.5005 14.6524 12.4567 14.5033 12.374L0.000198364 4.31653V18.3338C0.000198364 18.7758 0.197742 19.1998 0.549373 19.5123C0.901004 19.8249 1.37792 20.0005 1.8752 20.0005H28.1252C28.6225 20.0005 29.0994 19.8249 29.451 19.5123C29.8027 19.1998 30.0002 18.7758 30.0002 18.3338V4.31653L15.4971 12.374Z" fill="white"/>
</g>
<defs>
<clipPath id="clip0_747_1158">
<rect width="30" height="20" fill="white"/>
</clipPath>
</defs>
</svg>
