<svg width="56" height="56" viewBox="0 0 56 56" fill="none" xmlns="http://www.w3.org/2000/svg">
<g clip-path="url(#clip0_747_974)">
<path d="M50.1668 18.5496C50.0851 5.02795 35.3851 -4.46871 22.8201 2.14629C22.4105 1.78544 21.8873 1.57966 21.3416 1.56473C20.7959 1.54981 20.2622 1.7267 19.8335 2.06462C19.7865 1.50037 19.5287 0.974503 19.1115 0.591807C18.6942 0.20911 18.148 -0.00232698 17.5818 -0.000378236H15.0851C14.5189 -0.00232698 13.9728 0.20911 13.5555 0.591807C13.1382 0.974503 12.8804 1.50037 12.8335 2.06462C12.394 1.71427 11.8428 1.53435 11.2812 1.55792C10.7196 1.5815 10.1854 1.807 9.77681 2.19296L8.02681 3.95462C7.62765 4.35371 7.39295 4.88816 7.36918 5.45211C7.34541 6.01606 7.53432 6.56836 7.89848 6.99962C7.33422 7.04656 6.80836 7.30435 6.42566 7.72164C6.04297 8.13893 5.83153 8.68509 5.83348 9.25129V11.748C5.83153 12.3142 6.04297 12.8603 6.42566 13.2776C6.80836 13.6949 7.33422 13.9527 7.89848 13.9996C7.55822 14.4101 7.36882 14.9248 7.36181 15.458C7.36181 16.6246 7.95681 16.9863 9.78848 18.818C10.1971 19.2039 10.7313 19.4294 11.2928 19.453C11.8544 19.4766 12.4056 19.2966 12.8451 18.9463C12.8783 21.1996 13.317 23.4285 14.1401 25.5263C16.6718 31.9663 20.8951 32.3863 22.1201 40.623C21.457 41.2484 21.064 42.1079 21.0247 43.0186C20.9855 43.9294 21.3032 44.8195 21.9101 45.4996C21.4608 46.002 21.166 46.6235 21.0613 47.2894C20.9566 47.9553 21.0464 48.6372 21.32 49.2533C21.5935 49.8694 22.0391 50.3933 22.6033 50.7623C23.1674 51.1312 23.8261 51.3293 24.5001 51.333H25.7835C26.0512 52.6516 26.7667 53.8372 27.8085 54.6887C28.8504 55.5403 30.1546 56.0055 31.5001 56.0055C32.8457 56.0055 34.1499 55.5403 35.1918 54.6887C36.2336 53.8372 36.949 52.6516 37.2168 51.333H38.5001C39.1742 51.3293 39.8329 51.1312 40.397 50.7623C40.9612 50.3933 41.4068 49.8694 41.6803 49.2533C41.9538 48.6372 42.0437 47.9553 41.939 47.2894C41.8343 46.6235 41.5395 46.002 41.0901 45.4996C41.6948 44.8129 42.0065 43.9168 41.9585 43.0031C41.9105 42.0894 41.5067 41.2309 40.8335 40.6113C42.3851 30.6013 50.2251 30.228 50.1668 18.5496ZM11.3868 17.103L9.73015 15.4463C10.0227 15.1305 10.2185 14.7374 10.2945 14.3137C10.3705 13.89 10.3235 13.4534 10.159 13.0557C9.99444 12.6579 9.71935 12.3156 9.36627 12.0693C9.0132 11.8231 8.59694 11.6832 8.16681 11.6663V9.33296C8.59694 9.31602 9.0132 9.17614 9.36627 8.9299C9.71935 8.68365 9.99444 8.34136 10.159 7.94358C10.3235 7.5458 10.3705 7.10919 10.2945 6.6855C10.2185 6.2618 10.0227 5.86876 9.73015 5.55296L11.3868 3.89629C11.7026 4.1888 12.0957 4.38466 12.5194 4.46066C12.9431 4.53665 13.3797 4.48961 13.7774 4.32509C14.1752 4.16058 14.5175 3.88549 14.7638 3.53242C15.01 3.17934 15.1499 2.76308 15.1668 2.33295H17.5001C17.5171 2.76308 17.657 3.17934 17.9032 3.53242C18.1494 3.88549 18.4917 4.16058 18.8895 4.32509C19.2873 4.48961 19.7239 4.53665 20.1476 4.46066C20.5713 4.38466 20.9643 4.1888 21.2801 3.89629L22.9368 5.55296C22.6443 5.86876 22.4484 6.2618 22.3724 6.6855C22.2964 7.10919 22.3435 7.5458 22.508 7.94358C22.6725 8.34136 22.9476 8.68365 23.3007 8.9299C23.6538 9.17614 24.07 9.31602 24.5001 9.33296V11.6663C24.07 11.6832 23.6538 11.8231 23.3007 12.0693C22.9476 12.3156 22.6725 12.6579 22.508 13.0557C22.3435 13.4534 22.2964 13.89 22.3724 14.3137C22.4484 14.7374 22.6443 15.1305 22.9368 15.4463L21.2801 17.103C20.9643 16.8104 20.5713 16.6146 20.1476 16.5386C19.7239 16.4626 19.2873 16.5096 18.8895 16.6741C18.4917 16.8387 18.1494 17.1138 17.9032 17.4668C17.657 17.8199 17.5171 18.2362 17.5001 18.6663H15.1668C15.1499 18.2362 15.01 17.8199 14.7638 17.4668C14.5175 17.1138 14.1752 16.8387 13.7774 16.6741C13.3797 16.5096 12.9431 16.4626 12.5194 16.5386C12.0957 16.6146 11.7026 16.8104 11.3868 17.103ZM28.1985 51.333H34.8018C34.5613 52.0166 34.1145 52.6087 33.5231 53.0276C32.9317 53.4465 32.2249 53.6715 31.5001 53.6715C30.7754 53.6715 30.0686 53.4465 29.4772 53.0276C28.8858 52.6087 28.439 52.0166 28.1985 51.333ZM38.5001 48.9996H24.5001C24.1907 48.9996 23.894 48.8767 23.6752 48.6579C23.4564 48.4391 23.3335 48.1424 23.3335 47.833C23.3335 47.5235 23.4564 47.2268 23.6752 47.008C23.894 46.7892 24.1907 46.6663 24.5001 46.6663H38.5001C38.8096 46.6663 39.1063 46.7892 39.3251 47.008C39.5439 47.2268 39.6668 47.5235 39.6668 47.833C39.6668 48.1424 39.5439 48.4391 39.3251 48.6579C39.1063 48.8767 38.8096 48.9996 38.5001 48.9996ZM38.5001 44.333H24.5001C24.1907 44.333 23.894 44.21 23.6752 43.9912C23.4564 43.7725 23.3335 43.4757 23.3335 43.1663C23.3335 42.8569 23.4564 42.5601 23.6752 42.3413C23.894 42.1225 24.1907 41.9996 24.5001 41.9996H38.5001C38.8096 41.9996 39.1063 42.1225 39.3251 42.3413C39.5439 42.5601 39.6668 42.8569 39.6668 43.1663C39.6668 43.4757 39.5439 43.7725 39.3251 43.9912C39.1063 44.21 38.8096 44.333 38.5001 44.333ZM24.5001 39.6663V25.5263L31.5001 24.6513V39.6663H24.5001ZM33.4368 22.458C33.0051 22.0613 32.6901 22.1546 31.5001 22.3063V17.4996H38.5001V39.6663H33.8335C33.8335 22.0496 34.0085 22.948 33.4368 22.458ZM40.8335 33.658V16.333C40.8335 16.0235 40.7106 15.7268 40.4918 15.508C40.273 15.2892 39.9762 15.1663 39.6668 15.1663H30.3335C30.0241 15.1663 29.7273 15.2892 29.5085 15.508C29.2897 15.7268 29.1668 16.0235 29.1668 16.333V22.598L23.1935 23.333C22.9089 23.3673 22.647 23.5053 22.4576 23.7205C22.2683 23.9356 22.1647 24.213 22.1668 24.4996V33.5296C19.7635 29.1313 16.3335 27.6963 15.3535 20.9996H17.5818C18.148 21.0016 18.6942 20.7901 19.1115 20.4074C19.5287 20.0247 19.7865 19.4989 19.8335 18.9346C20.273 19.285 20.8242 19.4649 21.3858 19.4413C21.9474 19.4177 22.4815 19.1922 22.8901 18.8063L24.6518 17.0446C25.0493 16.644 25.2819 16.1088 25.3035 15.5449C25.3251 14.9809 25.1342 14.4295 24.7685 13.9996C25.3327 13.9527 25.8586 13.6949 26.2413 13.2776C26.624 12.8603 26.8354 12.3142 26.8335 11.748V9.25129C26.8354 8.68509 26.624 8.13893 26.2413 7.72164C25.8586 7.30435 25.3327 7.04656 24.7685 6.99962C25.1492 6.55449 25.3405 5.97791 25.3012 5.39345C25.262 4.809 24.9953 4.26317 24.5585 3.87295C27.0431 2.72973 29.774 2.22545 32.5031 2.40594C35.2322 2.58643 37.8729 3.44597 40.1853 4.90646C42.4978 6.36695 44.4086 8.38209 45.7443 10.7688C47.08 13.1555 47.7981 15.8381 47.8335 18.573C47.8632 22.5642 46.4221 26.4267 43.7851 29.423C42.647 30.7206 41.657 32.1411 40.8335 33.658Z" fill="white"/>
<path d="M20.9999 10.4998C20.9999 9.57682 20.7262 8.67457 20.2134 7.90714C19.7006 7.13971 18.9718 6.54157 18.1191 6.18836C17.2663 5.83515 16.328 5.74274 15.4228 5.9228C14.5175 6.10287 13.686 6.54732 13.0334 7.19997C12.3807 7.85261 11.9363 8.68413 11.7562 9.58938C11.5761 10.4946 11.6686 11.4329 12.0218 12.2857C12.375 13.1384 12.9731 13.8672 13.7405 14.38C14.508 14.8928 15.4102 15.1665 16.3332 15.1665C17.5709 15.1665 18.7579 14.6748 19.633 13.7996C20.5082 12.9245 20.9999 11.7375 20.9999 10.4998ZM16.3332 12.8331C15.8717 12.8331 15.4206 12.6963 15.0369 12.4399C14.6532 12.1835 14.3541 11.8191 14.1775 11.3927C14.0009 10.9664 13.9547 10.4972 14.0447 10.0446C14.1347 9.59197 14.357 9.17621 14.6833 8.84988C15.0096 8.52356 15.4254 8.30133 15.878 8.2113C16.3306 8.12127 16.7998 8.16747 17.2261 8.34408C17.6525 8.52068 18.0169 8.81975 18.2733 9.20347C18.5297 9.58718 18.6665 10.0383 18.6665 10.4998C18.6665 11.1186 18.4207 11.7121 17.9831 12.1497C17.5455 12.5873 16.952 12.8331 16.3332 12.8331Z" fill="white"/>
</g>
<defs>
<clipPath id="clip0_747_974">
<rect width="56" height="56" fill="white"/>
</clipPath>
</defs>
</svg>
