<svg width="32" height="32" viewBox="0 0 32 32" fill="none" xmlns="http://www.w3.org/2000/svg">
<path d="M15.5375 0H16.4713C20.8512 0.151875 24.9663 2.06062 27.8581 5.28062C30.4548 8.17188 31.8354 11.5904 32 15.5363V16.4719C31.8456 20.84 29.9438 24.9531 26.735 27.8438C23.8379 30.4525 20.411 31.8379 16.4544 32H15.5413C11.1663 31.8481 7.05 29.9475 4.15625 26.7344C1.55417 23.8456 0.16875 20.4281 0 16.4819V15.51C0.149583 11.8654 1.35896 8.65417 3.62812 5.87625C6.54437 2.30562 10.8725 0.161875 15.5375 0ZM11.3094 6.25375C11.2577 6.36625 11.2108 6.48021 11.1687 6.59562C11.1617 6.61521 11.1683 6.625 11.1888 6.625H15.0312C15.0395 6.625 15.0475 6.62171 15.0533 6.61585C15.0592 6.60999 15.0625 6.60204 15.0625 6.59375V2.0625C15.0626 2.0589 15.0617 2.05534 15.0601 2.05214C15.0584 2.04894 15.056 2.0462 15.053 2.04416C15.0501 2.04212 15.0466 2.04084 15.043 2.04044C15.0395 2.04005 15.0358 2.04054 15.0325 2.04187C13.2506 2.72312 12.0775 4.575 11.3094 6.25375ZM19.315 3.91812C18.7081 3.11375 17.9181 2.38562 16.9788 2.04875C16.9513 2.03917 16.9375 2.04896 16.9375 2.07812V6.5625C16.9375 6.57908 16.9441 6.59497 16.9558 6.60669C16.9675 6.61842 16.9834 6.625 17 6.625H20.8106C20.834 6.625 20.8413 6.61396 20.8325 6.59188C20.4325 5.62021 19.9267 4.72896 19.315 3.91812ZM9.13937 6.60437C9.65438 5.23063 10.3269 3.91937 11.2081 2.75312C11.2369 2.71521 11.2292 2.70458 11.185 2.72125C8.96458 3.53958 7.0575 4.83333 5.46375 6.6025C5.46212 6.60447 5.46107 6.60686 5.46072 6.60939C5.46038 6.61193 5.46074 6.61451 5.46178 6.61685C5.46282 6.61919 5.46449 6.62119 5.46661 6.62263C5.46872 6.62407 5.47119 6.62489 5.47375 6.625H9.10938C9.11581 6.62503 9.12213 6.62308 9.12748 6.6194C9.13284 6.61572 9.13698 6.61048 9.13937 6.60437ZM26.5356 6.60187C24.9875 4.87937 22.9956 3.48563 20.8031 2.71625C20.766 2.70333 20.7594 2.7125 20.7831 2.74375C21.6681 3.90938 22.34 5.21562 22.8538 6.58875C22.8629 6.61292 22.8804 6.625 22.9062 6.625H26.5256C26.5283 6.62499 26.5309 6.6242 26.5331 6.62273C26.5354 6.62125 26.5371 6.61916 26.5382 6.61671C26.5392 6.61425 26.5396 6.61154 26.5391 6.60891C26.5387 6.60628 26.5374 6.60383 26.5356 6.60187ZM4.02313 8.5225C2.78938 10.4825 2.0675 12.7256 1.91 15.0294C1.90875 15.0515 1.91917 15.0625 1.94125 15.0625H7.55C7.55818 15.0625 7.56604 15.0593 7.57188 15.0536C7.57772 15.0478 7.58109 15.0401 7.58125 15.0319C7.63292 13.1044 7.87771 11.1958 8.31563 9.30625C8.37563 9.04812 8.45312 8.79562 8.5125 8.53687C8.51833 8.51229 8.50875 8.5 8.48375 8.5H4.06437C4.04646 8.5 4.03271 8.5075 4.02313 8.5225ZM10.3006 9.10812C9.79396 11.0352 9.51292 13.0148 9.4575 15.0469C9.45708 15.0573 9.46208 15.0625 9.4725 15.0625H15C15.0166 15.0625 15.0325 15.0559 15.0442 15.0442C15.0559 15.0325 15.0625 15.0166 15.0625 15V8.57812C15.0625 8.5574 15.0543 8.53753 15.0396 8.52288C15.025 8.50823 15.0051 8.5 14.9844 8.5H10.5019C10.4941 8.49997 10.4866 8.50251 10.4803 8.50723C10.474 8.51195 10.4693 8.51862 10.4669 8.52625C10.406 8.72417 10.3506 8.91813 10.3006 9.10812ZM17 15.0625H22.5025C22.5279 15.0625 22.5402 15.05 22.5394 15.025C22.4827 12.8171 22.1494 10.6521 21.5394 8.53C21.5335 8.51 21.5204 8.5 21.5 8.5H16.9688C16.9479 8.5 16.9375 8.51042 16.9375 8.53125V15C16.9375 15.0166 16.9441 15.0325 16.9558 15.0442C16.9675 15.0559 16.9834 15.0625 17 15.0625ZM30.0906 15.0463C29.9338 12.7275 29.2113 10.4981 27.9788 8.52375C27.9688 8.50792 27.9542 8.5 27.935 8.5H23.5169C23.489 8.5 23.4785 8.51354 23.4856 8.54062C24.0475 10.6706 24.3625 12.8456 24.4169 15.0244C24.4177 15.0498 24.4308 15.0625 24.4562 15.0625H30.0756C30.0777 15.0625 30.0798 15.0621 30.0817 15.0613C30.0836 15.0604 30.0853 15.0592 30.0867 15.0577C30.0881 15.0561 30.0892 15.0543 30.0899 15.0524C30.0905 15.0504 30.0908 15.0483 30.0906 15.0463ZM1.90875 16.9556C2.06813 19.28 2.78937 21.5063 4.02375 23.4788C4.02801 23.4853 4.03379 23.4907 4.04056 23.4944C4.04732 23.4981 4.05487 23.5 4.0625 23.5H8.48375C8.48845 23.5 8.49308 23.4988 8.49729 23.4968C8.50149 23.4947 8.50516 23.4917 8.508 23.488C8.51084 23.4843 8.51278 23.48 8.51367 23.4755C8.51456 23.471 8.51437 23.4663 8.51313 23.4619C7.94188 21.3194 7.66125 19.1744 7.57875 16.9713C7.57792 16.9488 7.56604 16.9375 7.54313 16.9375H1.925C1.92276 16.9375 1.92054 16.938 1.91848 16.9389C1.91642 16.9398 1.91457 16.9412 1.91304 16.9429C1.91152 16.9446 1.91035 16.9466 1.90961 16.9488C1.90887 16.951 1.90858 16.9533 1.90875 16.9556ZM10.4563 23.4638C10.4633 23.4879 10.4792 23.5 10.5037 23.5H15.0156C15.0281 23.5 15.04 23.4951 15.0488 23.4863C15.0576 23.4775 15.0625 23.4656 15.0625 23.4531V17.0075C15.0625 16.9889 15.0551 16.9711 15.0418 16.958C15.0286 16.9449 15.0106 16.9375 14.9919 16.9375H9.49625C9.47292 16.9375 9.46146 16.9492 9.46187 16.9725C9.50937 19.1283 9.84083 21.2921 10.4563 23.4638ZM21.6388 23.115C22.1842 21.115 22.4844 19.0683 22.5394 16.975C22.5398 16.95 22.5275 16.9375 22.5025 16.9375H16.9556C16.9508 16.9375 16.9462 16.9393 16.9428 16.9426C16.9394 16.9459 16.9375 16.9504 16.9375 16.955V23.4375C16.9375 23.4541 16.9441 23.47 16.9558 23.4817C16.9675 23.4934 16.9834 23.5 17 23.5H21.4881C21.4987 23.5 21.5089 23.4965 21.5174 23.4903C21.526 23.484 21.5323 23.4751 21.5356 23.465C21.5715 23.3517 21.6058 23.235 21.6388 23.115ZM27.985 23.4656C29.21 21.4981 29.9288 19.2819 30.09 16.9675C30.0912 16.9475 30.0819 16.9375 30.0619 16.9375H24.455C24.43 16.9375 24.4171 16.95 24.4163 16.975C24.3596 19.175 24.05 21.3375 23.4875 23.4625C23.4808 23.4875 23.4904 23.5 23.5163 23.5H27.9231C27.9502 23.5 27.9708 23.4885 27.985 23.4656ZM5.48187 25.4188C7.07375 27.1744 8.99312 28.4681 11.1912 29.2812C11.2267 29.2942 11.2331 29.2854 11.2106 29.255C10.3377 28.0767 9.65187 26.7969 9.15312 25.4156C9.14876 25.4035 9.14077 25.3931 9.13026 25.3857C9.11975 25.3783 9.10722 25.3744 9.09437 25.3744L5.50125 25.375C5.46208 25.375 5.45563 25.3896 5.48187 25.4188ZM13.51 28.9956C13.9306 29.3906 14.4788 29.7694 15.0238 29.9513C15.0496 29.96 15.0625 29.9506 15.0625 29.9231V25.4531C15.0625 25.4324 15.0543 25.4125 15.0396 25.3979C15.025 25.3832 15.0051 25.375 14.9844 25.375H11.1894C11.1623 25.375 11.154 25.3875 11.1644 25.4125C11.7113 26.7106 12.4913 28.0387 13.51 28.9956ZM16.9669 29.9575C18.8781 29.2338 20.0588 27.1812 20.8412 25.4006C20.8487 25.3835 20.8433 25.375 20.825 25.375H16.9531C16.949 25.375 16.945 25.3766 16.9421 25.3796C16.9391 25.3825 16.9375 25.3865 16.9375 25.3906V29.9375C16.9374 29.941 16.9383 29.9444 16.9399 29.9474C16.9415 29.9505 16.9438 29.9531 16.9467 29.9551C16.9496 29.957 16.9529 29.9583 16.9565 29.9587C16.96 29.9591 16.9635 29.9587 16.9669 29.9575ZM20.8056 29.2831C23.0344 28.4619 24.9448 27.1663 26.5369 25.3962C26.5386 25.3945 26.5398 25.3922 26.5403 25.3897C26.5407 25.3873 26.5404 25.3847 26.5394 25.3824C26.5384 25.3802 26.5367 25.3782 26.5346 25.3769C26.5325 25.3756 26.53 25.3749 26.5275 25.375H22.9062C22.8846 25.375 22.8694 25.385 22.8606 25.405C22.8098 25.5258 22.7617 25.6444 22.7162 25.7606C22.2071 27.0585 21.5635 28.2235 20.7856 29.2556C20.7615 29.2877 20.7681 29.2969 20.8056 29.2831Z" fill="white"/>
</svg>
