<svg width="72" height="72" viewBox="0 0 72 72" fill="none" xmlns="http://www.w3.org/2000/svg">
<path d="M43.6026 9.05228L44.0202 20.0971C44.0298 20.3371 43.9146 20.4571 43.6746 20.4571L36.4674 20.4211" stroke="#82A0B6" stroke-width="1.44"/>
<path d="M36.4688 20.4211L36.368 8.05148" stroke="#799197" stroke-width="1.44"/>
<path d="M36.4677 20.4218C35.3925 21.0218 34.6317 22.3274 34.1853 24.3386C33.8781 25.721 33.8661 26.9786 34.1493 28.1114C34.4373 29.2706 34.4301 30.473 35.2941 31.3946C35.4573 31.5674 35.5101 31.769 35.4525 31.9994C35.2749 32.7578 35.7165 33.629 36.7773 34.613" stroke="#F1E4CA" stroke-width="1.44"/>
<path d="M36.7768 34.6132L64.0288 34.786" stroke="#799197" stroke-width="1.44"/>
<path d="M63.5753 42.7859C51.4361 43.5155 39.3017 43.7651 27.1721 43.5347" stroke="#799197" stroke-width="1.44"/>
<path d="M27.1728 43.5328C26.8512 42.8368 26.4192 42.3784 25.8768 42.1576C25.8384 42.1384 25.8144 42.1072 25.8048 42.064C25.7952 42.0016 25.7904 41.9392 25.7904 41.8768C25.8 41.7376 25.7664 41.6104 25.6896 41.4952L22.4424 36.664" stroke="#D5B36E" stroke-width="1.44"/>
<path d="M51.3291 13.046L52.1499 18.842C52.1835 19.0772 52.3179 19.2116 52.5531 19.2452L59.5443 20.2892" stroke="#82A0B6" stroke-width="1.44"/>
<path d="M62.8624 27.8742C54.2992 27.0102 45.76 26.6214 37.2448 26.7078C36.9952 26.7126 36.8704 26.8374 36.8704 27.0822L36.7768 34.6134" stroke="#82A0B6" stroke-width="1.44"/>
<path d="M27.1733 43.5328L20.7365 43.3672C20.6956 43.3662 20.6549 43.3735 20.6169 43.3887C20.5788 43.404 20.5443 43.4267 20.5154 43.4557C20.4864 43.4846 20.4637 43.5191 20.4484 43.5571C20.4332 43.5952 20.4259 43.6359 20.4269 43.6768L20.6285 50.2144C20.6338 50.412 20.7142 50.6001 20.8533 50.7405C20.9924 50.8809 21.1798 50.9631 21.3773 50.9704C34.8509 51.4792 47.9189 51.1336 60.5813 49.9336" stroke="#66705B" stroke-width="1.44"/>
<path d="M54.8861 57.371C42.4157 59.3342 29.8277 59.3606 17.1221 57.4502" stroke="#66705B" stroke-width="1.44"/>
<path d="M28.7712 8.56241C28.008 17.7112 27.6456 26.944 27.684 36.2608C27.684 36.3153 27.6732 36.3693 27.6521 36.4195C27.631 36.4698 27.6002 36.5154 27.5613 36.5536C27.5224 36.5918 27.4763 36.6219 27.4257 36.6421C27.3751 36.6623 27.3209 36.6722 27.2664 36.6712L22.4424 36.664" stroke="#799197" stroke-width="1.44"/>
<path d="M22.4424 36.6639C21.924 36.5247 21.336 36.5079 20.6784 36.6135C20.3232 36.6711 20.1456 36.5199 20.1456 36.1599C20.184 28.0863 20.6064 19.9887 21.4128 11.8671" stroke="#66705B" stroke-width="1.44"/>
<path d="M13.961 17.7991C12.4298 28.1287 12.1898 38.8255 13.241 49.8895C13.3562 51.0703 13.0538 51.7087 12.3338 51.8047" stroke="#66705B" stroke-width="1.44"/>
<path d="M43.6045 9.04912L44.0222 20.0939C44.0318 20.3339 43.9165 20.4539 43.6765 20.4539L36.4694 20.4179L36.3686 8.04832L36.3326 1.08592C36.3326 0.802718 36.4718 0.673118 36.7502 0.697118L41.1206 1.07152C41.3846 1.09552 41.5789 1.22512 41.7037 1.46032C42.4093 2.78992 42.8293 3.98752 42.9637 5.05312C43.2085 7.05472 43.4221 8.38672 43.6045 9.04912Z" fill="#0A4D83"/>
<path d="M28.7723 8.56209C28.0091 17.7109 27.6467 26.9437 27.6851 36.2605C27.6851 36.315 27.6743 36.369 27.6532 36.4192C27.6321 36.4695 27.6013 36.5151 27.5624 36.5533C27.5235 36.5915 27.4774 36.6216 27.4268 36.6417C27.3762 36.6619 27.322 36.6719 27.2675 36.6709L22.4435 36.6637C21.9251 36.5245 21.3371 36.5077 20.6795 36.6133C20.3243 36.6709 20.1467 36.5197 20.1467 36.1597C20.1851 28.0861 20.6075 19.9885 21.4139 11.8669L24.0203 3.91089C24.2843 3.09969 24.8243 2.57409 25.6403 2.33409C27.3827 1.82049 28.6283 1.45329 29.3771 1.23249C30.1115 1.01649 30.3251 1.25889 30.0179 1.95969C29.2643 3.67809 28.8491 5.87889 28.7723 8.56209Z" fill="#0A4D83"/>
<path d="M49.3567 3.38567C52.4719 4.40807 54.6199 6.60407 55.8007 9.97367C55.8049 9.987 55.8055 10.0012 55.8024 10.0148C55.7993 10.0284 55.7927 10.041 55.7832 10.0512C55.7737 10.0615 55.7616 10.069 55.7483 10.0731C55.7349 10.0772 55.7207 10.0776 55.7071 10.0745L50.5735 8.81447C50.5172 8.79939 50.4664 8.76909 50.4269 8.72705C50.3874 8.68501 50.3608 8.63295 50.3503 8.57687C49.9375 6.47927 49.1239 4.65047 47.9095 3.09047C47.6743 2.79287 47.7295 2.72327 48.0751 2.88167C48.4927 3.07367 48.9199 3.24167 49.3567 3.38567Z" fill="#0A4D83"/>
<path d="M13.9614 17.7988C12.4302 28.1284 12.1902 38.8252 13.2414 49.8892C13.3566 51.07 13.0542 51.7084 12.3342 51.8044C11.3454 51.1996 10.0686 50.7916 8.50382 50.5804C8.38996 50.5636 8.28499 50.5099 8.20546 50.4278C8.12594 50.3456 8.07639 50.2397 8.06462 50.1268C7.66622 46.4212 7.33742 42.9268 7.07822 39.6436C6.51662 32.5204 7.28222 24.886 9.37502 16.7404C10.7862 11.2444 13.7382 7.48841 18.231 5.47241C18.5142 5.34281 18.5598 5.40041 18.3678 5.64521C15.819 8.82761 14.6166 13.5148 13.9614 17.7988Z" fill="#0A4D83"/>
<path d="M36.3684 8.04773L36.4692 20.4173C35.394 21.0173 34.6332 22.3229 34.1868 24.3341C33.8796 25.7165 33.8676 26.9741 34.1508 28.1069C34.4388 29.2661 34.4316 30.4685 35.2956 31.3901C35.4588 31.5629 35.5116 31.7645 35.454 31.9949C35.2764 32.7533 35.718 33.6245 36.7788 34.6085L64.0308 34.7813L63.5772 42.7805C51.438 43.5101 39.3036 43.7597 27.174 43.5293C26.8524 42.8333 26.4204 42.3749 25.878 42.1541C25.8396 42.1349 25.8156 42.1037 25.806 42.0605C25.7964 41.9981 25.7916 41.9357 25.7916 41.8733C25.8012 41.7341 25.7676 41.6069 25.6908 41.4917L22.4436 36.6605L27.2676 36.6677C27.3221 36.6687 27.3762 36.6588 27.4269 36.6386C27.4775 36.6184 27.5236 36.5883 27.5625 36.5501C27.6013 36.5119 27.6322 36.4663 27.6533 36.4161C27.6744 36.3658 27.6852 36.3118 27.6852 36.2573C27.6468 26.9405 28.0092 17.7077 28.7724 8.55894C31.458 7.78854 33.3012 7.86773 36.3684 8.04773Z" fill="#E8D4AA"/>
<path d="M43.6041 9.04993C45.4281 9.34273 47.0169 9.93313 48.3705 10.8211C48.7401 11.0659 49.1217 11.5219 49.5153 12.1891C50.0433 13.0915 50.6481 13.3771 51.3297 13.0459L52.1505 18.8419C52.1841 19.0771 52.3185 19.2115 52.5537 19.2451L59.5449 20.2891C61.1673 22.7035 62.2737 25.2307 62.8641 27.8707C54.3009 27.0067 45.7617 26.6179 37.2465 26.7043C36.9969 26.7091 36.8721 26.8339 36.8721 27.0787L36.7785 34.6099C35.7177 33.6259 35.2761 32.7547 35.4537 31.9963C35.5113 31.7659 35.4585 31.5643 35.2953 31.3915C34.4313 30.4699 34.4385 29.2675 34.1505 28.1083C33.8673 26.9755 33.8793 25.7179 34.1865 24.3355C34.6329 22.3243 35.3937 21.0187 36.4689 20.4187L43.6761 20.4547C43.9161 20.4547 44.0313 20.3347 44.0217 20.0947L43.6041 9.04993Z" fill="#F9F3E9"/>
<path d="M21.413 11.8647C20.6066 19.9863 20.1842 28.0839 20.1458 36.1575C20.1458 36.5175 20.3234 36.6687 20.6786 36.6111C21.3362 36.5055 21.9242 36.5223 22.4426 36.6615L25.6898 41.4927C25.7666 41.6079 25.8002 41.7351 25.7906 41.8743C25.7906 41.9367 25.7954 41.9991 25.805 42.0615C25.8146 42.1047 25.8386 42.1359 25.877 42.1551C26.4194 42.3759 26.8514 42.8343 27.173 43.5303L20.7362 43.3647C20.6953 43.3638 20.6546 43.3711 20.6166 43.3863C20.5786 43.4015 20.5441 43.4243 20.5151 43.4532C20.4862 43.4822 20.4634 43.5167 20.4482 43.5547C20.433 43.5927 20.4256 43.6334 20.4266 43.6743L20.6282 50.2119C20.6336 50.4095 20.714 50.5976 20.8531 50.7381C20.9922 50.8785 21.1795 50.9607 21.377 50.9679C34.8506 51.4767 47.9186 51.1311 60.581 49.9311C59.1938 52.5135 57.2954 54.9927 54.8858 57.3687C42.4154 59.3319 29.8274 59.3583 17.1218 57.4479C15.1874 55.7823 13.5914 53.9007 12.3338 51.8031C13.0538 51.7071 13.3562 51.0687 13.241 49.8879C12.1898 38.8239 12.4298 28.1271 13.961 17.7975C16.0442 15.3495 18.5282 13.3719 21.413 11.8647Z" fill="#C19232"/>
<path d="M59.5443 20.2892L52.5531 19.2452C52.3179 19.2116 52.1835 19.0772 52.1499 18.842L51.3291 13.046C53.8491 13.4012 56.3883 13.9172 58.9467 14.594C61.8411 15.3572 64.1907 16.5236 65.9955 18.0932C67.0611 19.0244 67.9971 20.7284 68.8035 23.2052C68.8851 23.4548 68.8155 23.51 68.5947 23.3708C65.9739 21.7052 62.9571 20.678 59.5443 20.2892Z" fill="#0A4D83"/>
<path d="M5.4363 17.8701C5.4507 17.8413 5.4723 17.8341 5.5011 17.8485L5.7171 17.9349C5.7603 17.9493 5.7723 17.9805 5.7531 18.0285C1.6491 29.6205 1.9587 42.5877 5.8611 54.1581C6.0147 54.6045 5.9499 54.6405 5.6667 54.2661C5.1387 53.5557 4.6899 52.8117 4.3203 52.0341C-1.1229 40.5621 -0.750899 29.1741 5.4363 17.8701Z" fill="#0A4D83"/>
<path d="M62.8647 27.8718L70.2015 29.4918C70.5567 29.5686 70.7511 29.787 70.7847 30.147L71.2383 34.5966C71.2767 34.9662 71.1087 35.1414 70.7343 35.1222L64.0311 34.7838L36.7791 34.611L36.8727 27.0798C36.8727 26.835 36.9975 26.7102 37.2471 26.7054C45.7623 26.619 54.3015 27.0078 62.8647 27.8718Z" fill="#0A4D83"/>
<path d="M60.5826 49.9326C47.9202 51.1326 34.8522 51.4782 21.3786 50.9694C21.1811 50.9621 20.9938 50.8799 20.8547 50.7395C20.7156 50.5991 20.6352 50.411 20.6298 50.2134L20.4282 43.6758C20.4272 43.6348 20.4346 43.5941 20.4498 43.5561C20.465 43.5181 20.4878 43.4836 20.5167 43.4547C20.5457 43.4257 20.5802 43.4029 20.6182 43.3877C20.6562 43.3725 20.6969 43.3652 20.7378 43.3662L27.1746 43.5318C39.3042 43.7622 51.4386 43.5126 63.5778 42.783L70.5186 41.5446C70.7586 41.5014 70.8522 41.5974 70.7994 41.8326L69.7626 46.3182C69.7115 46.5509 69.5794 46.7617 69.3882 46.9158C67.2642 48.6294 64.2042 49.047 60.5826 49.9326Z" fill="#0A4D83"/>
<path d="M17.1218 57.4481C29.8274 59.3585 42.4154 59.3321 54.8858 57.3689C59.0426 56.7545 62.8154 55.5329 66.2042 53.7041C66.4778 53.5553 66.5402 53.6177 66.3914 53.8913C64.9898 56.4449 63.5498 58.2545 62.0714 59.3201C60.1082 60.7313 57.4322 61.8185 54.0434 62.5817C43.2866 65.0009 32.1482 65.2025 20.6282 63.1865C17.8298 62.6969 14.7626 61.8161 11.4266 60.5441C11.3498 60.5153 11.2994 60.4625 11.2754 60.3857L9.61221 55.9289C9.60624 55.9152 9.60427 55.9 9.60653 55.8853C9.60879 55.8705 9.61518 55.8567 9.62497 55.8454C9.63476 55.8341 9.64755 55.8258 9.66185 55.8214C9.67616 55.8171 9.6914 55.8169 9.70581 55.8209L17.1218 57.4481Z" fill="#0A4D83"/>
<path d="M21.1616 68.1463C20.0672 67.6807 19.052 67.1431 18.116 66.5335C17.5496 66.1591 17.5904 66.0751 18.2384 66.2815C30.32 70.1167 42.3223 70.0231 54.2455 66.0007C55.0088 65.7415 55.04 65.8135 54.3392 66.2167C43.6832 72.3463 32.624 72.9895 21.1616 68.1463Z" fill="#0A4D83"/>
</svg>
