<svg width="779" height="201" viewBox="0 0 779 201" fill="none" xmlns="http://www.w3.org/2000/svg">
<path d="M580 138.2C581.467 140.6 581.533 143 580.2 145.4C578.867 147.8 576.867 149 574.2 149H556C553.467 149 551.533 147.933 550.2 145.8L519.8 97.6H484.2V142C484.2 143.867 483.467 145.533 482 147C480.667 148.333 479.067 149 477.2 149H462C460.133 149 458.467 148.333 457 147C455.667 145.533 455 143.867 455 142V76.2C455 74.3333 455.667 72.7333 457 71.4C458.467 69.9333 460.133 69.2 462 69.2H523.6C535.333 69.2 543.133 65.8667 547 59.2C548.333 57.0667 549 54 549 50C549 43.7333 546.933 38.8 542.8 35.2C538.533 31.3333 532.4 29.4 524.4 29.4H462C460.133 29.4 458.467 28.7333 457 27.4C455.667 25.9333 455 24.2667 455 22.4V8C455 6.13334 455.667 4.53334 457 3.20001C458.467 1.73333 460.133 1 462 1H526.2C541.667 1 554.133 5.4 563.6 14.2C573.333 23 578.2 34.9333 578.2 50C578.2 69.7333 569.867 83.2667 553.2 90.6C552.667 90.8667 552.133 91.1333 551.6 91.4C551.067 91.5333 550.467 91.7333 549.8 92L580 138.2ZM735.819 139.6C736.752 141.733 736.552 143.933 735.219 146.2C733.752 148.333 731.819 149.4 729.419 149.4H596.219C593.685 149.4 591.752 148.333 590.419 146.2C588.952 144.067 588.752 141.867 589.819 139.6L596.019 125C596.552 123.667 597.352 122.6 598.419 121.8C599.619 121 600.952 120.6 602.419 120.6H695.619L689.619 106.2L662.819 42.2L636.019 106.2C635.485 107.533 634.619 108.6 633.419 109.4C632.352 110.067 631.085 110.4 629.619 110.4H612.819C610.285 110.4 608.285 109.333 606.819 107.2C605.485 105.2 605.285 103 606.219 100.6L646.819 5.4C647.352 3.93334 648.152 2.86667 649.219 2.20001C650.419 1.4 651.752 1 653.219 1H672.419C675.485 1 677.619 2.46667 678.819 5.4L735.819 139.6Z" fill="white"/>
<path d="M108.6 6.2C112.867 7.80001 116.8 9.86667 120.4 12.4C124.133 14.9333 127.533 17.8 130.6 21C144.6 35.2667 151.6 53.3333 151.6 75.2C151.6 97.2 144.6 115.267 130.6 129.4C127.533 132.6 124.133 135.467 120.4 138C116.8 140.533 112.867 142.6 108.6 144.2C100.2 147.667 91.6002 149.4 82.8002 149.4H26.2002C24.3335 149.4 22.6669 148.733 21.2002 147.4C19.8669 145.933 19.2002 144.267 19.2002 142.4V128C19.2002 126 19.8669 124.333 21.2002 123C22.6669 121.533 24.3335 120.8 26.2002 120.8H82.2002C94.0669 120.8 103.733 116.467 111.2 107.8C118.533 99.1333 122.2 88.2667 122.2 75.2C122.2 62.1333 118.533 51.2667 111.2 42.6C103.733 33.9333 94.0669 29.6 82.2002 29.6H26.2002C24.3335 29.6 22.6669 28.9333 21.2002 27.6C19.8669 26.1333 19.2002 24.4 19.2002 22.4V8C19.2002 6.13334 19.8669 4.53334 21.2002 3.20001C22.6669 1.73333 24.3335 1 26.2002 1H82.8002C91.6002 1 100.2 2.73333 108.6 6.2Z" fill="white"/>
<path fill-rule="evenodd" clip-rule="evenodd" d="M294.57 148.988C295.79 146.413 295.519 143.906 293.757 141.466L242.124 74.7906L289.895 12.587C291.792 10.2831 292.063 7.77601 290.708 5.06561C289.352 2.3552 287.184 1 284.203 1H264.485C262.181 1 260.283 1.94864 258.793 3.84592L153.494 141.466C151.732 143.77 151.529 146.345 152.884 149.191C154.104 151.766 156.204 153.053 159.186 153.053H179.107C181.411 153.053 183.308 152.105 184.799 150.208L223.625 98.7777L262.452 150.208C263.942 152.105 265.908 153.053 268.347 153.053H288.065C289.42 153.053 290.64 152.715 291.724 152.037C292.944 151.359 293.892 150.343 294.57 148.988Z" fill="white"/>
<path fill-rule="evenodd" clip-rule="evenodd" d="M217.946 49.5589C219.287 46.7229 219.012 44.1564 217.121 41.8593L188.458 3.84592C187.239 1.94864 185.341 1 182.766 1H163.048C160.067 1 157.898 2.3552 156.543 5.06561C155.188 7.77601 155.459 10.2831 157.356 12.587L186.629 50.6003C187.848 52.4976 189.746 53.4462 192.321 53.4462H211.429C213.1 53.4462 214.516 53.0417 215.676 52.2327L217.946 49.5589Z" fill="#E9B65A"/>
<path d="M416 1H408C399.716 1 393 7.71573 393 16C393 24.2843 399.716 31 408 31H416C424.284 31 431 24.2843 431 16C431 7.71573 424.284 1 416 1Z" fill="#8BAAC1"/>
<path d="M374.5 1H331.5C323.492 1 317 7.49187 317 15.5C317 23.5081 323.492 30 331.5 30H374.5C382.508 30 389 23.5081 389 15.5C389 7.49187 382.508 1 374.5 1Z" fill="white"/>
<path d="M416 61H374C365.716 61 359 67.7157 359 76C359 84.2843 365.716 91 374 91H416C424.284 91 431 84.2843 431 76C431 67.7157 424.284 61 416 61Z" fill="white"/>
<path d="M340 61H332C323.716 61 317 67.7157 317 76C317 84.2843 323.716 91 332 91H340C348.284 91 355 84.2843 355 76C355 67.7157 348.284 61 340 61Z" fill="#EA9798"/>
<path d="M374 121H332C323.716 121 317 127.716 317 136C317 144.284 323.716 151 332 151H374C382.284 151 389 144.284 389 136C389 127.716 382.284 121 374 121Z" fill="white"/>
<path d="M416 121H408C399.716 121 393 127.716 393 136C393 144.284 399.716 151 408 151H416C424.284 151 431 144.284 431 136C431 127.716 424.284 121 416 121Z" fill="#E9B65A"/>
</svg>
