<svg width="280" height="153" viewBox="0 0 280 153" fill="none" xmlns="http://www.w3.org/2000/svg">
<path fill-rule="evenodd" clip-rule="evenodd" d="M142.57 147.989C143.79 145.414 143.519 142.907 141.757 140.467L90.1239 73.7916L137.895 11.5879C139.792 9.2841 140.063 6.77698 138.708 4.06658C137.353 1.35618 135.184 0.000976562 132.203 0.000976562H112.485C110.181 0.000976562 108.284 0.949616 106.793 2.8469L1.49379 140.467C-0.267972 142.771 -0.471252 145.346 0.883948 148.192C2.10363 150.767 4.20419 152.054 7.18563 152.054H27.1071C29.4109 152.054 31.3082 151.106 32.7989 149.209L71.6254 97.7787L110.452 149.209C111.943 151.106 113.908 152.054 116.347 152.054H136.065C137.42 152.054 138.64 151.716 139.724 151.038C140.944 150.36 141.893 149.344 142.57 147.989Z" fill="#14213D"/>
<path fill-rule="evenodd" clip-rule="evenodd" d="M65.9456 48.5599C67.2873 45.7239 67.0123 43.1573 65.1206 40.8603L36.4581 2.8469C35.2384 0.949616 33.3412 0.000976562 30.7663 0.000976562H11.0481C8.06669 0.000976562 5.89837 1.35618 4.54317 4.06658C3.18797 6.77698 3.45901 9.2841 5.35629 11.5879L34.6286 49.6013C35.8483 51.4986 37.7456 52.4472 40.3204 52.4472H59.4288C61.0999 52.4472 62.5156 52.0427 63.6759 51.2337L65.9456 48.5599Z" fill="#E9B65A"/>
<rect x="241.318" width="38" height="30" rx="15" fill="#8BAAC1"/>
<rect x="165.318" width="72" height="29" rx="14.5" fill="#14213D"/>
<rect x="207.318" y="60" width="72" height="30" rx="15" fill="#14213D"/>
<rect x="165.318" y="60" width="38" height="30" rx="15" fill="#EA9798"/>
<rect x="165.318" y="120" width="72" height="30" rx="15" fill="#14213D"/>
<rect x="241.318" y="120" width="38" height="30" rx="15" fill="#E9B65A"/>
</svg>
