<svg width="30" height="30" viewBox="0 0 30 30" fill="none" xmlns="http://www.w3.org/2000/svg">
<g clip-path="url(#clip0_747_1161)">
<path d="M24.0375 19.075L20.8625 18.7125C20.1 18.625 19.35 18.8875 18.8125 19.425L16.5125 21.7249C12.975 19.9249 10.075 17.0375 8.27501 13.4875L10.5875 11.175C11.125 10.6375 11.3875 9.88745 11.3 9.12495L10.9375 5.97495C10.7875 4.71245 9.72501 3.76245 8.45001 3.76245H6.28751C4.87501 3.76245 3.70001 4.93745 3.78751 6.34995C4.45001 17.025 12.9875 25.5499 23.65 26.2125C25.0625 26.2999 26.2375 25.125 26.2375 23.7125V21.5499C26.25 20.2875 25.3 19.225 24.0375 19.075Z" fill="white"/>
</g>
<defs>
<clipPath id="clip0_747_1161">
<rect width="30" height="30" fill="white"/>
</clipPath>
</defs>
</svg>
