<svg width="56" height="56" viewBox="0 0 56 56" fill="none" xmlns="http://www.w3.org/2000/svg">
<path d="M18.8125 32.3755V25.2697C18.8714 24.6431 18.7984 24.0111 18.5982 23.4145C18.398 22.8178 18.075 22.2697 17.6501 21.8055C17.2252 21.3412 16.7077 20.9711 16.1311 20.7191C15.5544 20.467 14.9313 20.3385 14.302 20.3418H13.4094C13.2204 20.3383 13.0356 20.3971 12.8834 20.5091C12.7311 20.6211 12.62 20.7801 12.5672 20.9615L11.7282 23.9101L11.4766 23.4568L12.0714 21.556C12.1125 21.4276 12.1221 21.2912 12.0995 21.1583C12.0769 21.0254 12.0228 20.8998 11.9416 20.7922C11.8594 20.6837 11.7527 20.5962 11.6301 20.5369C11.5076 20.4776 11.3727 20.4482 11.2366 20.4512H10.9389C11.9301 20.2319 12.8169 19.6812 13.453 18.89C14.089 18.0988 14.4363 17.1144 14.4375 16.0993V14.6849C14.4375 13.5101 13.9708 12.3834 13.1401 11.5527C12.3094 10.7219 11.1826 10.2552 10.0078 10.2552C8.83299 10.2552 7.70628 10.7219 6.87556 11.5527C6.04483 12.3834 5.57813 13.5101 5.57813 14.6849V16.0993C5.57813 18.2228 7.13618 20.0137 9.13785 20.4512H8.97904C8.84296 20.4473 8.70793 20.4761 8.58529 20.5352C8.46265 20.5943 8.35596 20.682 8.27418 20.7908C8.19239 20.8996 8.1379 21.0265 8.11526 21.1607C8.09262 21.295 8.1025 21.4327 8.14407 21.5623L8.74344 23.4717L8.60126 23.7446L7.87632 20.9806C7.82668 20.7949 7.71638 20.6312 7.56296 20.5154C7.40953 20.3997 7.22181 20.3386 7.02965 20.3418H6.0234C5.39495 20.3388 4.77287 20.4677 4.19737 20.7202C3.62187 20.9727 3.10574 21.3431 2.68237 21.8075C2.25899 22.272 1.93778 22.8201 1.73949 23.4164C1.54121 24.0128 1.47027 24.6441 1.53126 25.2696V32.3773C1.52439 32.5614 1.57697 32.7429 1.68121 32.8948L4.46076 36.6991L5.07501 48.2106C5.10169 48.9823 5.42808 49.7133 5.9849 50.2483C6.54172 50.7833 7.28513 51.0803 8.05734 51.0762H12.2861C13.0584 51.0805 13.8021 50.784 14.3596 50.2495C14.9172 49.7151 15.2448 48.9846 15.2731 48.2127L15.6899 41.0706L15.8943 36.6933L18.6544 32.8901C18.7606 32.7398 18.816 32.5595 18.8125 32.3755ZM7.32813 16.0993V14.6849C7.32813 13.9742 7.61046 13.2927 8.11299 12.7901C8.61553 12.2876 9.29712 12.0052 10.0078 12.0052C10.7185 12.0052 11.4001 12.2876 11.9026 12.7901C12.4052 13.2927 12.6875 13.9742 12.6875 14.6849V16.0993C12.6875 16.81 12.4052 17.4916 11.9026 17.9941C11.4001 18.4966 10.7185 18.779 10.0078 18.779C9.29712 18.779 8.61553 18.4966 8.11299 17.9941C7.61046 17.4916 7.32813 16.81 7.32813 16.0993ZM17.0765 25.1393C17.0703 25.1685 17.0657 25.198 17.0625 25.2277V32.0908L14.3156 35.8768C14.2163 36.0156 14.16 36.1805 14.1537 36.351L13.94 40.9822L13.5243 48.1273C13.5243 48.1338 13.5243 48.1327 13.5243 48.1391C13.5136 48.4594 13.3782 48.7629 13.1468 48.9847C12.9155 49.2065 12.6066 49.329 12.2861 49.3262H8.05734C7.73683 49.329 7.42793 49.2064 7.19652 48.9846C6.96512 48.7629 6.82952 48.4595 6.81866 48.1391C6.81866 48.134 6.81866 48.1327 6.81801 48.1275L6.18451 36.3434C6.18244 36.1754 6.13072 36.0117 6.03587 35.8731L3.28126 32.091V25.2277C3.28126 25.1982 3.26037 25.1687 3.25741 25.1393C3.21645 24.7529 3.25764 24.3622 3.37828 23.9928C3.49891 23.6234 3.69627 23.2837 3.9574 22.996C4.21854 22.7082 4.53755 22.4789 4.89353 22.3231C5.2495 22.1673 5.63439 22.0884 6.02296 22.0918H6.35349L7.48257 26.4059C7.52445 26.5642 7.6104 26.7074 7.73044 26.8188C7.85049 26.9302 7.99968 27.0053 8.16069 27.0352C8.34721 27.0715 8.54045 27.0459 8.71115 26.9625C8.88185 26.879 9.02071 26.7422 9.10668 26.5728L10.1211 24.6139L11.2317 26.5965C11.3162 26.7474 11.4436 26.8698 11.5976 26.9483C11.7516 27.0269 11.9255 27.058 12.0972 27.0379C12.2677 27.0211 12.4292 26.9536 12.5611 26.8442C12.6929 26.7348 12.789 26.5885 12.8369 26.424L14.0706 22.0918H14.302C14.691 22.0883 15.0763 22.1669 15.4328 22.3226C15.7894 22.4782 16.109 22.7073 16.3709 22.995C16.6328 23.2826 16.831 23.6223 16.9526 23.9918C17.0742 24.3614 17.1164 24.7524 17.0765 25.1393Z" fill="white"/>
<path d="M45.7188 20.7782C46.296 20.7768 46.8672 20.6615 47.3997 20.439C47.9323 20.2164 48.4156 19.8909 48.8221 19.4811C49.2285 19.0713 49.5501 18.5853 49.7683 18.0509C49.9866 17.5166 50.0972 16.9445 50.0938 16.3673V14.9531C50.0938 13.7927 49.6329 12.6799 48.8124 11.8595C47.9919 11.039 46.8791 10.5781 45.7188 10.5781C44.5585 10.5781 43.4457 11.039 42.6252 11.8595C41.8047 12.6799 41.3438 13.7927 41.3438 14.9531V16.3673C41.3404 16.9445 41.451 17.5166 41.6693 18.0509C41.8875 18.5853 42.209 19.0713 42.6155 19.4811C43.022 19.8909 43.5053 20.2164 44.0378 20.439C44.5704 20.6615 45.1416 20.7768 45.7188 20.7782ZM43.0938 14.9531C43.0938 14.2569 43.3704 13.5892 43.8626 13.0969C44.3549 12.6046 45.0226 12.3281 45.7188 12.3281C46.415 12.3281 47.0827 12.6046 47.5749 13.0969C48.0672 13.5892 48.3438 14.2569 48.3438 14.9531V16.3673C48.3438 17.0635 48.0672 17.7312 47.5749 18.2234C47.0827 18.7157 46.415 18.9923 45.7188 18.9923C45.0226 18.9923 44.3549 18.7157 43.8626 18.2234C43.3704 17.7312 43.0938 17.0635 43.0938 16.3673V14.9531Z" fill="white"/>
<path d="M49.9779 20.5612H49.0852C48.9025 20.5639 48.7251 20.6232 48.5776 20.731L45.8472 22.6793L43.225 20.738C43.0751 20.6252 42.8931 20.5633 42.7056 20.5612H41.6993C41.0673 20.5632 40.4426 20.697 39.8652 20.954C39.2878 21.211 38.7703 21.5855 38.3457 22.0537C37.9212 22.5219 37.5989 23.0735 37.3995 23.6732C37.2 24.273 37.1278 24.9077 37.1875 25.5369V32.6447C37.1841 32.8298 37.2401 33.0111 37.3473 33.1621L40.1317 36.9664L40.7485 48.5086C40.7745 49.2838 41.1 50.0187 41.6567 50.5588C42.2133 51.099 42.9576 51.4023 43.7332 51.405H47.962C48.7375 51.4024 49.4819 51.0995 50.0388 50.5598C50.5958 50.0202 50.922 49.2857 50.949 48.5107L51.3658 41.3527L51.5703 36.9675L54.3205 33.1612C54.4237 33.0086 54.4756 32.827 54.4687 32.6429V25.5369C54.5274 24.9116 54.4568 24.281 54.2615 23.6842C54.0661 23.0873 53.75 22.5371 53.333 22.0675C52.9105 21.5954 52.3935 21.2173 51.8155 20.9578C51.2375 20.6983 50.6115 20.5632 49.9779 20.5612ZM52.7426 25.4065C52.7396 25.4358 52.7187 25.4654 52.7187 25.4948V32.3579L49.9817 36.144C49.8839 36.2832 49.8293 36.4481 49.8248 36.6182L49.6135 41.2492L49.199 48.3944C49.199 48.4008 49.199 48.4305 49.199 48.4369C49.1898 48.7603 49.0559 49.0675 48.8253 49.2945C48.5948 49.5215 48.2855 49.6507 47.962 49.655H43.7332C43.4096 49.6508 43.1001 49.5218 42.8693 49.2948C42.6385 49.0679 42.5043 48.7606 42.4947 48.4371C42.4947 48.4319 42.4947 48.4152 42.494 48.4102L41.8605 36.618C41.8547 36.4482 41.7996 36.2838 41.7019 36.1447L38.9375 32.3583V25.495C38.9375 25.4656 38.9265 25.4361 38.9235 25.4067C38.8828 25.0172 38.9241 24.6234 39.0449 24.2508C39.1657 23.8782 39.3631 23.535 39.6246 23.2434C39.8861 22.9517 40.2058 22.7181 40.5631 22.5576C40.9203 22.397 41.3073 22.3131 41.699 22.3112H42.4176L45.3133 24.4566C45.3326 24.4712 45.3526 24.4887 45.3733 24.5016V24.5036L45.3958 24.5052C45.4593 24.5507 45.5322 24.5814 45.609 24.5952L45.5886 24.6013C45.5886 24.6013 45.568 24.6078 45.5684 24.6078H45.82C45.9328 24.6134 46.0459 24.6032 46.1558 24.5772V24.5849C46.1558 24.5849 46.1377 24.5884 46.1383 24.5882C46.1941 24.5687 46.2476 24.5431 46.2976 24.5116C46.3195 24.4987 46.3352 24.4788 46.3553 24.464L49.365 22.3112H49.9775C50.3686 22.3134 50.7549 22.3977 51.1114 22.5585C51.4679 22.7193 51.7868 22.9531 52.0473 23.2448C52.3079 23.5365 52.5043 23.8796 52.624 24.252C52.7437 24.6243 52.7839 25.0177 52.7421 25.4065H52.7426Z" fill="white"/>
<path d="M37.6846 42.7017L36.1971 42.5595C36.0222 41.9802 35.7847 41.4218 35.4888 40.894L36.4178 39.7699C36.5562 39.6025 36.6274 39.3896 36.6176 39.1726C36.6078 38.9556 36.5176 38.75 36.3645 38.5958L34.4048 36.6161C34.2508 36.4604 34.0441 36.3681 33.8254 36.3574C33.6067 36.3466 33.3919 36.4183 33.2235 36.5582L32.0941 37.4944C31.5655 37.2021 31.0075 36.9665 30.4294 36.7915L30.2872 35.3368C30.2656 35.122 30.1642 34.9231 30.0031 34.7795C29.8419 34.6359 29.6328 34.558 29.4169 34.5612H26.6072C26.3913 34.5578 26.182 34.6356 26.0207 34.7792C25.8594 34.9228 25.7579 35.1216 25.7362 35.3365L25.5937 36.7981C25.0138 36.9689 24.4542 37.2025 23.925 37.4947L22.7998 36.5599C22.6323 36.4208 22.4188 36.3491 22.2012 36.359C21.9836 36.3688 21.7775 36.4595 21.6232 36.6133L19.6399 38.5921C19.4856 38.7462 19.3944 38.9523 19.3842 39.1702C19.3739 39.388 19.4454 39.6018 19.5845 39.7696L20.5193 40.897C20.2276 41.4248 19.9922 41.9818 19.8171 42.5588L18.3151 42.7017C18.0961 42.7216 17.8921 42.8214 17.7418 42.982C17.5915 43.1425 17.5054 43.3527 17.5 43.5726V46.3782C17.5055 46.598 17.5917 46.8081 17.742 46.9686C17.8923 47.1291 18.0964 47.2288 18.3154 47.2487L19.8029 47.3909C19.9778 47.9701 20.2153 48.5285 20.5112 49.0562L19.5821 50.1804C19.4431 50.3485 19.3719 50.5625 19.3824 50.7804C19.393 50.9984 19.4846 51.2045 19.6392 51.3584L21.6233 53.338C21.7774 53.4921 21.9835 53.583 22.2012 53.5931C22.4188 53.6033 22.6324 53.5318 22.8002 53.3927L23.9296 52.4565C24.458 52.7487 25.0158 52.9843 25.5937 53.1594L25.7359 54.6454C25.7562 54.8636 25.8563 55.0666 26.0172 55.2154C26.178 55.3643 26.3881 55.4485 26.6072 55.4518H29.4169C29.6359 55.4483 29.846 55.3641 30.0067 55.2153C30.1674 55.0664 30.2675 54.8635 30.2878 54.6454L30.43 53.1682C31.0101 52.9947 31.5697 52.7585 32.0987 52.4637L33.2239 53.3946C33.3917 53.5336 33.6052 53.605 33.8228 53.5948C34.0404 53.5847 34.2464 53.4938 34.4005 53.3399L36.3837 51.3602C36.5382 51.2061 36.6295 50.9999 36.6398 50.7819C36.6501 50.5639 36.5786 50.35 36.4392 50.182L35.5044 49.0544C35.7962 48.5264 36.0316 47.9691 36.2068 47.3919L37.6853 47.2497C37.9044 47.2296 38.1084 47.1297 38.2586 46.969C38.4088 46.8083 38.4947 46.5981 38.5 46.3782V43.5726C38.4945 43.3527 38.4084 43.1425 38.2581 42.9819C38.1078 42.8213 37.9037 42.7216 37.6846 42.7017ZM36.75 45.5846L35.4553 45.7089C35.2702 45.7265 35.0954 45.8017 34.9552 45.9239C34.8151 46.046 34.7168 46.209 34.674 46.3899C34.4911 47.1977 34.164 47.966 33.7086 48.6579C33.6063 48.814 33.5566 48.9988 33.5667 49.1852C33.5769 49.3716 33.6464 49.5498 33.7651 49.6939L34.5846 50.6841L33.7289 51.5372L32.7371 50.7151C32.5925 50.5953 32.4132 50.5252 32.2257 50.515C32.0381 50.5049 31.8523 50.5554 31.6956 50.6589C31.008 51.1144 30.2411 51.4369 29.4346 51.6096C29.252 51.6521 29.0874 51.7509 28.9641 51.8921C28.8408 52.0334 28.765 52.2098 28.7475 52.3964L28.6225 53.7018H27.4015L27.2766 52.3965C27.2588 52.2106 27.1827 52.035 27.059 51.895C26.9353 51.755 26.7704 51.6578 26.588 51.6172C25.7798 51.4367 25.011 51.1113 24.3188 50.6566C24.1628 50.5559 23.9787 50.5075 23.7932 50.5184C23.6078 50.5293 23.4307 50.5989 23.2874 50.7172L22.2961 51.5383L21.4411 50.6846L22.2622 49.6942C22.3822 49.5493 22.4524 49.3696 22.4623 49.1817C22.4721 48.9937 22.4211 48.8076 22.3168 48.651C21.8606 47.9648 21.537 47.1991 21.3629 46.3936C21.3181 46.2109 21.2174 46.0467 21.0748 45.924C20.9323 45.8012 20.755 45.726 20.5676 45.7088L19.25 45.5837V44.367L20.5678 44.242C20.7531 44.2245 20.9282 44.1494 21.0685 44.0272C21.2089 43.905 21.3073 43.7419 21.3501 43.5608C21.533 42.7529 21.8601 41.9846 22.3155 41.2927C22.4178 41.1366 22.4675 40.9518 22.4574 40.7654C22.4472 40.579 22.3777 40.4008 22.259 40.2567L21.4395 39.2666L22.2953 38.4135L23.2871 39.2353C23.4317 39.3551 23.611 39.4253 23.7985 39.4354C23.986 39.4456 24.1718 39.3952 24.3285 39.2917C25.016 38.8361 25.7829 38.5137 26.5894 38.3411C26.7698 38.3054 26.934 38.2127 27.0577 38.0766C27.1815 37.9406 27.2582 37.7683 27.2766 37.5853L27.4015 36.3112H28.6225L28.7474 37.5853C28.7656 37.7695 28.8424 37.9431 28.9664 38.0805C29.0904 38.218 29.2551 38.3121 29.4365 38.3491C30.2443 38.5267 31.0131 38.8495 31.7056 39.3018C31.8621 39.402 32.0464 39.4497 32.2318 39.4381C32.4173 39.4265 32.5942 39.3562 32.737 39.2373L33.7247 38.417L34.5625 39.2633L33.7384 40.2569C33.6184 40.4018 33.5483 40.5814 33.5385 40.7693C33.5286 40.9572 33.5796 41.1432 33.6838 41.2998C34.1399 41.9861 34.4635 42.7518 34.6377 43.5573C34.6825 43.74 34.7832 43.9042 34.9258 44.0269C35.0683 44.1496 35.2457 44.2248 35.433 44.242L36.75 44.367V45.5846Z" fill="white"/>
<path d="M28.0019 39.8923C26.9968 39.8935 26.0145 40.1927 25.1794 40.752C24.3442 41.3113 23.6936 42.1057 23.3098 43.0347C22.926 43.9636 22.8262 44.9855 23.023 45.9712C23.2199 46.9569 23.7045 47.8621 24.4157 48.5724C25.1268 49.2828 26.0326 49.7663 27.0186 49.9619C28.0045 50.1576 29.0263 50.0566 29.9548 49.6716C30.8833 49.2867 31.6769 48.6351 32.2352 47.7993C32.7935 46.9635 33.0915 45.9809 33.0915 44.9758C33.0891 43.6272 32.5519 42.3347 31.5978 41.3817C30.6437 40.4287 29.3505 39.8931 28.0019 39.8923ZM28.0019 48.3091C27.3429 48.3079 26.699 48.1113 26.1516 47.7443C25.6042 47.3773 25.1779 46.8562 24.9266 46.247C24.6752 45.6378 24.6101 44.9678 24.7394 44.3215C24.8687 43.6753 25.1867 43.0819 25.6531 42.6164C26.1196 42.1508 26.7136 41.8339 27.36 41.7058C28.0065 41.5777 28.6764 41.6441 29.2852 41.8966C29.8939 42.1491 30.4141 42.5764 30.7801 43.1244C31.1461 43.6725 31.3415 44.3167 31.3415 44.9758C31.3396 45.8603 30.987 46.7081 30.3609 47.333C29.7349 47.9579 28.8865 48.3089 28.0019 48.3091Z" fill="white"/>
<path d="M19.2237 21.3291C19.3666 21.4233 19.5339 21.4735 19.705 21.4736C19.8453 21.4736 19.9833 21.4383 20.1064 21.3709L22.9687 19.8423V20.9728C22.9721 21.2095 23.0672 21.4357 23.234 21.6038C23.4008 21.7718 23.6263 21.8686 23.8631 21.8737H23.9531V23.919C23.9592 24.1579 24.0568 24.3853 24.2257 24.5542C24.3947 24.7232 24.6221 24.8208 24.8609 24.8268H31.139C31.3779 24.8208 31.6053 24.7232 31.7742 24.5542C31.9432 24.3853 32.0408 24.1579 32.0468 23.919V21.8737H32.1369C32.3736 21.8686 32.5991 21.7718 32.7659 21.6038C32.9327 21.4357 33.0278 21.2095 33.0312 20.9728V19.8423L35.8931 21.3706C36.0179 21.438 36.1576 21.4733 36.2995 21.4733C36.4203 21.473 36.5398 21.4476 36.6504 21.3988C36.7609 21.35 36.8602 21.2787 36.9418 21.1896C37.0234 21.1004 37.0856 20.9953 37.1245 20.8809C37.1634 20.7665 37.1781 20.6452 37.1678 20.5248L36.8825 17.1497C36.6812 14.6609 35.5139 12.3497 33.6303 10.7107L33.0312 10.1804V8.65244C33.0255 7.22604 32.546 5.84197 31.668 4.71779L28.6946 0.913836C28.6124 0.808959 28.5074 0.724154 28.3876 0.665835C28.2678 0.607515 28.1362 0.577209 28.003 0.577209C27.8697 0.577209 27.7382 0.607515 27.6184 0.665835C27.4986 0.724154 27.3936 0.808959 27.3113 0.913836L24.3325 4.71779C23.4544 5.84195 22.9747 7.22599 22.9687 8.65244V10.1804L22.37 10.711C20.4851 12.3496 19.3162 14.6607 19.1132 17.15L18.831 20.5251C18.8182 20.682 18.848 20.8395 18.9171 20.981C18.9862 21.1224 19.0921 21.2427 19.2237 21.3291ZM24.7187 20.1237V16.2956H31.2812V20.1237H24.7187ZM30.2968 23.0768H25.7031V21.8737H30.2968V23.0768ZM35.1477 17.2969L35.3022 19.0713L33.0312 17.8596V12.5495C34.2492 13.8498 34.9946 15.5218 35.1477 17.2969ZM25.7115 5.79448L27.9952 2.87416L30.2859 5.79448C30.9251 6.61058 31.2752 7.61584 31.2812 8.65244V14.5456H24.7187V8.65244C24.7239 7.6161 25.0731 6.61082 25.7115 5.79448ZM20.8522 17.2969C21.0054 15.5219 21.7508 13.85 22.9687 12.5497V17.8596L20.6978 19.0712L20.8522 17.2969Z" fill="white"/>
<path d="M28 11.9517H28.0193C28.6921 11.9491 29.3364 11.6797 29.8108 11.2026C30.2852 10.7255 30.5509 10.0796 30.5497 9.40682C30.5484 8.734 30.2802 8.08918 29.804 7.61389C29.3278 7.13859 28.6825 6.87164 28.0097 6.87164C27.3368 6.87164 26.6915 7.13859 26.2153 7.61389C25.7391 8.08918 25.4709 8.734 25.4696 9.40682C25.4684 10.0796 25.7341 10.7255 26.2085 11.2026C26.6829 11.6797 27.3272 11.9491 28 11.9517ZM28 8.58389C28.1601 8.58389 28.3165 8.63136 28.4496 8.72029C28.5827 8.80923 28.6865 8.93564 28.7477 9.08353C28.809 9.23142 28.825 9.39416 28.7938 9.55117C28.7626 9.70817 28.6855 9.85239 28.5723 9.96558C28.4591 10.0788 28.3149 10.1559 28.1579 10.1871C28.0009 10.2183 27.8381 10.2023 27.6902 10.141C27.5423 10.0798 27.4159 9.97603 27.327 9.84293C27.2381 9.70983 27.1906 9.55334 27.1906 9.39327C27.1959 9.18026 27.2828 8.97744 27.4335 8.82678C27.5841 8.67612 27.787 8.58916 28 8.58389Z" fill="white"/>
<path d="M27.125 26.2222V30.3437C27.125 30.5758 27.2172 30.7983 27.3813 30.9624C27.5453 31.1265 27.7679 31.2187 28 31.2187C28.232 31.2187 28.4546 31.1265 28.6187 30.9624C28.7828 30.7983 28.875 30.5758 28.875 30.3437V26.2222C28.875 25.9902 28.7828 25.7676 28.6187 25.6035C28.4546 25.4394 28.232 25.3472 28 25.3472C27.7679 25.3472 27.5453 25.4394 27.3813 25.6035C27.2172 25.7676 27.125 25.9902 27.125 26.2222Z" fill="white"/>
<path d="M30.3795 25.3937C30.1598 25.4684 29.9788 25.6272 29.8762 25.8354C29.7737 26.0435 29.758 26.2839 29.8326 26.5036L30.7319 29.1492C30.8066 29.3689 30.9655 29.55 31.1737 29.6525C31.3819 29.7551 31.6223 29.7707 31.842 29.6961C32.0617 29.6214 32.2428 29.4625 32.3453 29.2543C32.4479 29.0461 32.4635 28.8057 32.3889 28.586L31.4892 25.9406C31.4146 25.7209 31.2557 25.5399 31.0476 25.4374C30.8395 25.3348 30.5992 25.3191 30.3795 25.3937Z" fill="white"/>
<path d="M24.5109 25.94L23.6116 28.5855C23.5746 28.6943 23.5595 28.8093 23.5669 28.9239C23.5744 29.0386 23.6044 29.1507 23.6552 29.2538C23.7059 29.3568 23.7765 29.4489 23.8629 29.5247C23.9493 29.6005 24.0497 29.6585 24.1585 29.6955C24.2673 29.7325 24.3823 29.7477 24.497 29.7402C24.6116 29.7327 24.7237 29.7028 24.8268 29.652C24.9299 29.6012 25.0219 29.5306 25.0977 29.4442C25.1735 29.3579 25.2316 29.2574 25.2685 29.1486L26.1678 26.5031C26.2412 26.2837 26.2247 26.0442 26.122 25.8369C26.0192 25.6296 25.8386 25.4715 25.6196 25.3971C25.4005 25.3226 25.1609 25.338 24.9532 25.4397C24.7454 25.5415 24.5864 25.7213 24.5109 25.94Z" fill="white"/>
</svg>
