<svg width="592" height="128" viewBox="0 0 592 128" fill="none" xmlns="http://www.w3.org/2000/svg">
<path d="M566.878 18.1945C564.759 17.2887 562.681 16.2618 560.645 15.1137C560.437 14.9961 560.268 14.8302 560.155 14.6336C560.042 14.4369 559.989 14.2166 560.002 13.9957C560.015 13.7747 560.093 13.5612 560.228 13.3774C560.363 13.1936 560.55 13.0462 560.77 12.9506C563.104 11.9337 565.492 10.8074 567.931 9.57194C568.993 9.03166 569.838 8.25301 570.465 7.23601C571.659 5.30929 572.822 3.35479 573.954 1.37245C574.195 0.955325 574.529 0.573964 574.954 0.228346C575.063 0.140202 575.193 0.0749533 575.333 0.037256C575.473 -0.000441284 575.621 -0.00968788 575.765 0.0102328C575.91 0.0301535 576.048 0.0787286 576.169 0.152477C576.291 0.226226 576.393 0.323347 576.468 0.436894C577.894 2.60992 579.257 4.83459 580.555 7.1109C581.152 8.15967 582.012 8.95814 583.136 9.50636C585.773 10.7975 588.256 12.0548 590.586 13.2784C590.756 13.368 590.897 13.4962 590.996 13.6502C591.095 13.8043 591.147 13.9789 591.148 14.1569C591.15 14.3349 591.1 14.5102 591.004 14.6654C590.907 14.8206 590.768 14.9505 590.6 15.0422C588.384 16.2459 586.016 17.4218 583.498 18.5699C582.396 19.0665 581.492 19.859 580.786 20.9475C579.513 22.902 578.14 25.1426 576.666 27.6692C576.545 27.8776 576.346 28.0405 576.105 28.1289C575.864 28.2172 575.596 28.2254 575.349 28.1519C574.783 27.985 574.344 27.6215 574.033 27.0614C572.773 24.8129 571.569 22.7908 570.419 20.9952C569.616 19.7557 568.326 18.8142 566.878 18.1945Z" fill="#FFAA0F"/>
<path d="M11.8717 40.5433C10.7461 38.3385 9.57456 36.8309 7.04707 35.7464C4.89256 34.8168 2.80388 33.8038 0.78101 32.7073C0.447522 32.5246 0.212764 32.2803 0.0767365 31.9744C-0.021063 31.7529 -0.0255258 31.5065 0.0641874 31.2815C0.153901 31.0565 0.331598 30.8684 0.563805 30.7528C3.04302 29.5332 5.45423 28.3772 7.79742 27.2847C10.6869 25.9439 12.4311 21.7846 13.866 19.2461C14.1776 18.6939 14.5769 18.2092 15.0639 17.7921C15.1699 17.702 15.2966 17.6344 15.4351 17.594C15.5736 17.5537 15.7204 17.5416 15.865 17.5587C16.0096 17.5757 16.1485 17.6216 16.2717 17.6928C16.3949 17.7641 16.4994 17.859 16.5778 17.9709C19.1909 21.7071 20.2176 26.0631 25.0883 28.0236C27.0827 28.8221 28.9519 29.847 30.841 30.8481C30.9819 30.922 31.1014 31.0251 31.1895 31.1491C31.2777 31.273 31.3321 31.4141 31.3482 31.5608C31.3643 31.7075 31.3416 31.8555 31.282 31.9927C31.2224 32.1299 31.1277 32.2523 31.0055 32.3498C30.5272 32.7312 29.9765 33.0748 29.3535 33.3807C27.2472 34.4215 25.1739 35.4325 23.1335 36.4137C22.1198 36.8984 21.2664 37.7406 20.5731 38.9404C19.4892 40.8154 18.322 42.7839 17.0714 44.8456C16.7994 45.2906 16.433 45.5945 15.9723 45.7574C15.7475 45.837 15.499 45.8424 15.2703 45.7727C15.0416 45.7029 14.8474 45.5625 14.7217 45.376C13.6686 43.8108 12.7186 42.1999 11.8717 40.5433Z" fill="#FFAA0F"/>
<path d="M239.016 105.99C241.01 109.44 244.748 110.513 248.237 112.3C248.821 112.602 249.334 112.962 249.777 113.379C249.896 113.491 249.985 113.627 250.036 113.776C250.087 113.925 250.099 114.083 250.07 114.237C250.042 114.392 249.975 114.538 249.874 114.665C249.773 114.792 249.641 114.897 249.488 114.97C246.951 116.166 244.402 117.429 241.839 118.76C240.83 119.284 239.873 120.321 238.969 121.87C237.851 123.789 236.723 125.638 235.586 127.418C235.47 127.602 235.302 127.753 235.098 127.857C234.895 127.96 234.664 128.012 234.43 128.006C234.196 128.001 233.968 127.938 233.77 127.825C233.571 127.712 233.41 127.553 233.302 127.364C232.056 125.156 230.777 122.971 229.465 120.81C228.816 119.745 227.905 118.937 226.734 118.384C224.307 117.24 221.905 116.076 219.526 114.892C219.403 114.831 219.295 114.747 219.21 114.646C219.124 114.545 219.063 114.429 219.029 114.306C218.996 114.183 218.991 114.054 219.015 113.93C219.04 113.805 219.093 113.686 219.171 113.581C219.522 113.113 220.013 112.725 220.645 112.419C222.945 111.311 225.296 110.117 227.701 108.838C228.298 108.52 229.05 107.609 229.959 106.103C231.069 104.26 232.113 102.51 233.092 100.853C233.333 100.44 233.678 100.124 234.125 99.9057C234.267 99.836 234.423 99.7926 234.583 99.778C234.744 99.7634 234.906 99.7779 235.06 99.8207C235.214 99.8634 235.356 99.9336 235.48 100.027C235.603 100.12 235.704 100.235 235.777 100.365C236.835 102.22 237.914 104.095 239.016 105.99Z" fill="#FFAA0F"/>
</svg>
