<svg width="693" height="199" viewBox="0 0 693 199" fill="none" xmlns="http://www.w3.org/2000/svg">
<path d="M431.261 184.959C430.806 184.793 430.352 184.651 429.898 184.53C429.773 184.096 429.627 183.664 429.455 183.23C428.726 181.486 427.767 179.743 425.84 178C423.913 179.743 422.956 181.486 422.226 183.23C422.054 183.666 421.905 184.105 421.78 184.542C421.327 184.662 420.873 184.804 420.42 184.971C418.613 185.676 416.807 186.6 415 188.459C416.807 190.319 418.613 191.243 420.42 191.947C420.87 192.113 421.319 192.254 421.768 192.374C421.893 192.812 422.041 193.251 422.213 193.689C422.94 195.432 423.902 197.175 425.84 198.918C427.779 197.175 428.74 195.432 429.468 193.689C429.639 193.255 429.786 192.819 429.909 192.385C430.359 192.265 430.811 192.124 431.261 191.959C433.067 191.257 434.874 190.33 436.681 188.459C434.874 186.59 433.067 185.661 431.261 184.959Z" fill="#BCDFEB"/>
<path d="M644.36 41.9692C644.132 41.8863 643.905 41.8144 643.677 41.7549C643.615 41.5379 643.541 41.3209 643.456 41.1038C643.091 40.2301 642.609 39.3565 641.644 38.4828C640.678 39.3565 640.198 40.2301 639.831 41.1038C639.745 41.3236 639.671 41.542 639.608 41.7618C639.38 41.8227 639.153 41.8932 638.926 41.9775C638.02 42.33 637.115 42.7931 636.209 43.7262C637.115 44.658 638.02 45.1211 638.926 45.4736C639.151 45.5565 639.376 45.627 639.601 45.6879C639.664 45.9077 639.737 46.1275 639.823 46.3473C640.188 47.2209 640.669 48.0946 641.641 48.9683C642.612 48.0946 643.094 47.2209 643.459 46.3473C643.545 46.1288 643.618 45.9118 643.68 45.6934C643.906 45.6339 644.131 45.5621 644.357 45.4805C645.263 45.128 646.168 44.6635 647.074 43.7262C646.171 42.7862 645.266 42.3217 644.36 41.9692Z" fill="#DBF6FF"/>
<path d="M329.67 102.808C329.442 102.725 329.214 102.653 328.987 102.592C328.925 102.375 328.85 102.158 328.764 101.941C328.399 101.068 327.919 100.194 326.953 99.3203C325.988 100.194 325.508 101.068 325.142 101.941C325.056 102.161 324.982 102.38 324.919 102.599C324.691 102.66 324.465 102.731 324.237 102.815C323.331 103.168 322.426 103.631 321.52 104.562C322.426 105.494 323.331 105.957 324.237 106.31C324.462 106.393 324.687 106.463 324.912 106.524C324.975 106.744 325.048 106.964 325.135 107.183C325.501 108.057 325.982 108.931 326.953 109.804C327.925 108.931 328.406 108.057 328.772 107.183C328.858 106.965 328.931 106.748 328.992 106.53C329.219 106.47 329.444 106.4 329.668 106.317C330.574 105.964 331.48 105.5 332.385 104.562C331.481 103.625 330.575 103.161 329.67 102.808Z" fill="#BCDFEB"/>
<path d="M66.5398 13.8331C66.3119 13.7502 66.0841 13.6783 65.8563 13.6174C65.7947 13.4004 65.7202 13.1834 65.6342 12.9663C65.2674 12.0927 64.7875 11.219 63.8218 10.3453C62.8561 11.219 62.3761 12.0927 62.0107 12.9663C61.9248 13.1861 61.8503 13.4046 61.7872 13.6244C61.5594 13.6852 61.333 13.7557 61.1052 13.84C60.1997 14.1925 59.2942 14.6556 58.3887 15.5874C59.2942 16.5191 60.1997 16.9822 61.1052 17.3347C61.3302 17.4177 61.5551 17.4882 61.7815 17.549C61.8445 17.7688 61.9176 17.9886 62.005 18.2084C62.3704 19.0821 62.8518 19.9558 63.8232 20.8294C64.7946 19.9558 65.276 19.0821 65.6414 18.2084C65.7274 17.99 65.8004 17.7729 65.862 17.5545C66.0884 17.4951 66.3134 17.4232 66.5398 17.3416C67.4453 16.9891 68.3508 16.5246 69.2563 15.5874C68.3508 14.6501 67.4467 14.1856 66.5398 13.8331Z" fill="#BCDFEB"/>
<path d="M359.967 157.963C359.74 157.88 359.512 157.808 359.284 157.747C359.221 157.53 359.148 157.313 359.062 157.096C358.697 156.222 358.217 155.349 357.251 154.475C356.285 155.349 355.805 156.222 355.438 157.096C355.353 157.316 355.278 157.534 355.215 157.754C354.989 157.815 354.761 157.885 354.533 157.97C353.627 158.322 352.722 158.785 351.816 159.717C352.722 160.649 353.627 161.112 354.533 161.466C354.758 161.549 354.983 161.619 355.208 161.68C355.271 161.9 355.344 162.12 355.431 162.339C355.797 163.213 356.278 164.087 357.25 164.96C358.221 164.087 358.702 163.213 359.068 162.339C359.154 162.121 359.227 161.904 359.288 161.686C359.515 161.626 359.74 161.554 359.966 161.473C360.872 161.12 361.777 160.656 362.683 159.718C361.779 158.78 360.873 158.315 359.967 157.963Z" fill="#DBF6FF"/>
<path d="M257.537 54.2403C257.137 54.0938 256.737 53.9694 256.337 53.8629C256.228 53.4814 256.1 53.1012 255.949 52.7197C255.307 51.1866 254.465 49.6549 252.771 48.1218C251.078 49.6549 250.235 51.1866 249.593 52.7197C249.441 53.104 249.311 53.4883 249.201 53.8726C248.802 53.9791 248.404 54.1035 248.006 54.25C246.418 54.8693 244.829 55.6822 243.24 57.3162C244.829 58.9502 246.417 59.763 248.006 60.3823C248.401 60.5275 248.795 60.6519 249.191 60.757C249.301 61.1427 249.43 61.5283 249.582 61.9127C250.222 63.4457 251.068 64.9774 252.771 66.5105C254.475 64.9788 255.32 63.4457 255.961 61.9127C256.111 61.5311 256.24 61.1482 256.349 60.7666C256.744 60.6616 257.141 60.5372 257.537 60.392C259.124 59.7741 260.713 58.9585 262.302 57.3148C260.713 55.6739 259.126 54.8583 257.537 54.2403Z" fill="#BCDFEB"/>
<path d="M14.2948 165.853C13.8951 165.706 13.4954 165.582 13.0956 165.475C12.9867 165.094 12.8578 164.714 12.7073 164.332C12.0654 162.799 11.223 161.267 9.52943 159.734C7.83588 161.266 6.9934 162.799 6.35152 164.332C6.19964 164.717 6.06924 165.101 5.96035 165.485C5.56204 165.592 5.16373 165.716 4.76541 165.863C3.17646 166.482 1.58895 167.295 0 168.929C1.58752 170.563 3.17646 171.376 4.76541 171.995C5.16086 172.14 5.55489 172.264 5.95034 172.369C6.05923 172.755 6.18961 173.141 6.34148 173.525C6.98193 175.058 7.82727 176.59 9.53085 178.123C11.2344 176.59 12.0798 175.058 12.7202 173.525C12.8707 173.144 12.9996 172.761 13.1085 172.379C13.5039 172.274 13.9008 172.15 14.2963 172.005C15.8852 171.387 17.4728 170.571 19.0617 168.927C17.4713 167.285 15.8824 166.471 14.2948 165.853Z" fill="#BCDFEB"/>
<path d="M528.397 128.722C527.997 128.575 527.597 128.451 527.199 128.344C527.09 127.963 526.961 127.583 526.811 127.201C526.169 125.669 525.326 124.136 523.633 122.605C521.939 124.136 521.097 125.669 520.455 127.201C520.303 127.585 520.173 127.97 520.064 128.354C519.665 128.46 519.267 128.585 518.869 128.731C517.28 129.351 515.692 130.164 514.103 131.798C515.692 133.432 517.28 134.244 518.869 134.864C519.264 135.009 519.658 135.133 520.054 135.238C520.164 135.624 520.293 136.01 520.445 136.395C521.085 137.927 521.931 139.46 523.634 140.992C525.338 139.46 526.183 137.927 526.824 136.395C526.974 136.014 527.103 135.631 527.212 135.249C527.607 135.144 528.004 135.02 528.4 134.875C529.989 134.257 531.576 133.441 533.165 131.798C531.573 130.155 529.986 129.34 528.397 128.722Z" fill="#DBF6FF"/>
<path d="M516.687 6.11851C516.287 5.97197 515.887 5.84755 515.489 5.74111C515.38 5.35956 515.251 4.9794 515.1 4.59786C514.459 3.06478 513.616 1.53308 511.923 0C510.229 1.53308 509.387 3.06478 508.745 4.59786C508.593 4.98217 508.462 5.36648 508.353 5.75078C507.955 5.85723 507.557 5.98165 507.157 6.12818C505.57 6.7475 503.981 7.56035 502.393 9.19434C503.982 10.8283 505.57 11.6412 507.157 12.2605C507.553 12.4057 507.947 12.5301 508.342 12.6351C508.452 13.0208 508.581 13.4065 508.733 13.7922C509.374 15.3239 510.219 16.857 511.923 18.3887C513.626 16.857 514.471 15.3239 515.112 13.7922C515.262 13.4107 515.391 13.0277 515.5 12.6462C515.896 12.5411 516.293 12.4167 516.688 12.2716C518.277 11.6536 519.864 10.838 521.453 9.19434C519.863 7.55205 518.274 6.73644 516.687 6.11851Z" fill="#DBF6FF"/>
<path d="M690.151 102.488C689.923 102.405 689.696 102.333 689.468 102.272C689.406 102.055 689.332 101.838 689.246 101.621C688.88 100.747 688.4 99.8737 687.435 99C686.469 99.8737 685.989 100.747 685.622 101.621C685.536 101.841 685.462 102.059 685.399 102.279C685.171 102.34 684.944 102.41 684.717 102.495C683.811 102.849 682.906 103.31 682 104.243C682.906 105.175 683.811 105.638 684.717 105.991C684.941 106.074 685.166 106.144 685.391 106.205C685.454 106.425 685.528 106.645 685.615 106.864C685.98 107.738 686.462 108.612 687.433 109.485C688.405 108.612 688.886 107.738 689.251 106.864C689.337 106.646 689.41 106.429 689.472 106.211C689.697 106.151 689.923 106.079 690.15 105.998C691.055 105.645 691.961 105.181 692.866 104.243C691.962 103.305 691.057 102.84 690.151 102.488Z" fill="#BCDFEB"/>
</svg>
