<svg width="132" height="132" viewBox="0 0 132 132" fill="none" xmlns="http://www.w3.org/2000/svg">
<path d="M99.3381 6.64198L100.102 8.16791L105.867 23.5005C106.32 24.708 107.272 25.6607 108.48 26.1137L123.28 31.6675C129.775 34.1046 133.266 41.0463 131.535 47.614L131.118 48.9212L124.233 64.1522C123.699 65.3263 123.699 66.6737 124.233 67.8478L130.772 82.2425C133.642 88.5594 131.202 95.9363 125.335 99.3563L123.809 100.121L108.48 105.886C107.272 106.339 106.32 107.292 105.867 108.499L100.314 123.303C97.8774 129.799 90.937 133.29 84.3705 131.559L83.0636 131.142L67.8354 124.256C66.6615 123.722 65.3143 123.722 64.1404 124.256L49.7484 130.796C43.4327 133.666 36.0571 131.226 32.6377 125.358L31.8735 123.832L26.1089 108.499C25.656 107.292 24.7034 106.339 23.4962 105.886L8.69549 100.333C2.20046 97.8954 -1.28977 90.9537 0.440967 84.386L0.857385 83.0788L7.74305 67.8478C8.27643 66.6737 8.27643 65.3263 7.74305 64.1522L1.20374 49.7575C-1.66592 43.4406 0.773694 36.0637 6.64076 32.6437L8.16641 31.8793L23.4962 26.1137C24.7034 25.6607 25.656 24.708 26.1089 23.5005L31.6617 8.69708C34.0984 2.20086 41.0388 -1.29001 47.6053 0.441048L48.9122 0.857543L64.1404 7.74447C65.3143 8.27795 66.6615 8.27795 67.8354 7.74447L82.2274 1.20396C88.5431 -1.66623 95.9187 0.773836 99.3381 6.64198ZM87.6269 43.0549L55.7704 79.469L44.1459 67.8424C42.4018 66.098 39.574 66.098 37.8299 67.8424C36.0859 69.5868 36.0859 72.415 37.8299 74.1595L52.8299 89.1622C54.6567 90.9893 57.6477 90.8897 59.3489 88.9451L94.3489 48.9378C95.9731 47.0812 95.785 44.2592 93.9288 42.6347C92.0726 41.0102 89.2511 41.1983 87.6269 43.0549Z" fill="#2E612D"/>
</svg>
