<svg width="56" height="56" viewBox="0 0 56 56" fill="none" xmlns="http://www.w3.org/2000/svg">
<g clip-path="url(#clip0_747_972)">
<path d="M21.4377 -0.000793457C20.9736 -0.000793457 20.5285 0.183581 20.2003 0.51177C19.8721 0.839958 19.6877 1.28508 19.6877 1.74921V16.6242C19.6877 17.0883 19.8721 17.5335 20.2003 17.8616C20.5285 18.1898 20.9736 18.3742 21.4377 18.3742H33.6877C34.1518 18.3742 34.597 18.1898 34.9252 17.8616C35.2533 17.5335 35.4377 17.0883 35.4377 16.6242V1.74921C35.4377 1.28508 35.2533 0.839958 34.9252 0.51177C34.597 0.183581 34.1518 -0.000793457 33.6877 -0.000793457L21.4377 -0.000793457ZM31.9377 38.4992C32.8657 38.4982 33.7553 38.1291 34.4114 37.4729C35.0676 36.8168 35.4367 35.9271 35.4377 34.9992V23.6242C35.4367 22.6963 35.0676 21.8066 34.4114 21.1505C33.7553 20.4943 32.8657 20.1252 31.9377 20.1242H23.1877C22.2598 20.1253 21.3702 20.4943 20.714 21.1505C20.0579 21.8066 19.6888 22.6963 19.6877 23.6242V34.9992C19.6888 35.9271 20.0579 36.8168 20.714 37.4729C21.3702 38.1291 22.2598 38.4982 23.1877 38.4992H31.9377ZM27.5627 55.9992C29.1202 55.9992 30.6428 55.5373 31.9378 54.672C33.2329 53.8067 34.2422 52.5768 34.8383 51.1378C35.4343 49.6989 35.5903 48.1155 35.2864 46.5879C34.9825 45.0603 34.2325 43.6571 33.1312 42.5557C32.0298 41.4544 30.6267 40.7044 29.0991 40.4005C27.5714 40.0967 25.9881 40.2526 24.5491 40.8487C23.1101 41.4447 21.8802 42.4541 21.0149 43.7491C20.1496 45.0441 19.6877 46.5667 19.6877 48.1242C19.6901 50.2121 20.5205 52.2137 21.9969 53.6901C23.4732 55.1664 25.4749 55.9968 27.5627 55.9992ZM49.0002 19.2492C49.0002 13.2182 44.29 8.31171 38.5002 8.31171C38.2681 8.31171 38.0456 8.40389 37.8815 8.56799C37.7174 8.73208 37.6252 8.95464 37.6252 9.18671C37.6252 9.41877 37.7174 9.64133 37.8815 9.80542C38.0456 9.96952 38.2681 10.0617 38.5002 10.0617C43.3249 10.0617 47.2502 14.1834 47.2502 19.2492C47.2502 23.7499 44.1494 27.4978 40.0747 28.2797L41.4527 25.7993C41.5654 25.5964 41.593 25.3571 41.5292 25.1339C41.4655 24.9107 41.3157 24.722 41.1128 24.6092C40.9099 24.4965 40.6706 24.4689 40.4474 24.5327C40.2242 24.5964 40.0355 24.7462 39.9227 24.9491L37.7352 28.8866C37.7204 28.9162 37.7074 28.9466 37.6961 28.9776C37.6921 28.9871 37.6848 28.9944 37.6812 29.0041C37.6792 29.0092 37.6797 29.0147 37.6779 29.0199C37.6514 29.094 37.6352 29.1714 37.6297 29.2499C37.6286 29.2646 37.6295 29.2788 37.6292 29.2935C37.6276 29.3631 37.6344 29.4326 37.6493 29.5005C37.6518 29.5117 37.6526 29.523 37.6555 29.5341C37.6756 29.6083 37.7054 29.6795 37.744 29.7459C37.7522 29.7601 37.7613 29.7732 37.7702 29.7871C37.8117 29.8525 37.8617 29.9121 37.9191 29.9642L37.9241 29.9701L37.9283 29.9738L37.9312 29.9763L41.4241 33.0326C41.5105 33.1083 41.611 33.1661 41.7199 33.203C41.8287 33.2398 41.9437 33.2548 42.0584 33.2472C42.173 33.2395 42.285 33.2094 42.388 33.1585C42.491 33.1075 42.5829 33.0368 42.6586 32.9504C42.7342 32.8639 42.7921 32.7634 42.8289 32.6545C42.8658 32.5457 42.8808 32.4307 42.8731 32.3161C42.8655 32.2014 42.8354 32.0894 42.7844 31.9864C42.7335 31.8834 42.6628 31.7915 42.5763 31.7158L40.5822 29.971C45.3778 28.9618 49.0002 24.5377 49.0002 19.2492ZM15.4182 48.7835L13.4241 50.5283C13.3376 50.604 13.2669 50.6959 13.216 50.7989C13.165 50.9019 13.1349 51.0139 13.1273 51.1286C13.1196 51.2432 13.1346 51.3582 13.1715 51.467C13.2083 51.5759 13.2662 51.6764 13.3418 51.7629C13.4175 51.8493 13.5094 51.92 13.6124 51.9709C13.7154 52.0219 13.8274 52.052 13.9421 52.0597C14.0567 52.0673 14.1717 52.0523 14.2805 52.0155C14.3894 51.9786 14.4899 51.9208 14.5764 51.8451L18.0692 48.7888L18.0722 48.7863L18.0763 48.7826L18.0813 48.7767C18.1387 48.7246 18.1887 48.665 18.2302 48.5995C18.2392 48.5857 18.2482 48.5726 18.2564 48.5584C18.295 48.492 18.3248 48.4208 18.3449 48.3466C18.3478 48.3355 18.3486 48.3242 18.3511 48.313C18.366 48.2451 18.3728 48.1756 18.3712 48.106C18.3709 48.0913 18.3718 48.0771 18.3707 48.0624C18.3652 47.9839 18.349 47.9065 18.3225 47.8324C18.3207 47.8272 18.3212 47.8217 18.3192 47.8166C18.3156 47.8069 18.3083 47.7996 18.3044 47.7901C18.2931 47.7591 18.28 47.7287 18.2652 47.6991L16.0777 43.7616C15.9649 43.5587 15.7762 43.4089 15.553 43.3452C15.3298 43.2814 15.0905 43.309 14.8876 43.4217C14.6847 43.5345 14.5349 43.7232 14.4712 43.9464C14.4074 44.1696 14.435 44.4089 14.5477 44.6118L15.9257 47.0922C11.851 46.3103 8.75021 42.5624 8.75021 38.0617C8.75021 32.9958 12.6755 28.8742 17.5002 28.8742C17.7323 28.8742 17.9548 28.782 18.1189 28.6179C18.283 28.4538 18.3752 28.2313 18.3752 27.9992C18.3752 27.7671 18.283 27.5446 18.1189 27.3805C17.9548 27.2164 17.7323 27.1242 17.5002 27.1242C11.7104 27.1242 7.00021 32.0307 7.00021 38.0617C7.00021 43.3502 10.6226 47.7743 15.4182 48.7835Z" fill="white"/>
</g>
<defs>
<clipPath id="clip0_747_972">
<rect width="56" height="56" fill="white"/>
</clipPath>
</defs>
</svg>
