<svg width="145" height="33" viewBox="0 0 145 33" fill="none" xmlns="http://www.w3.org/2000/svg">
<rect x="15.2381" y="24.3809" width="15.2381" height="7.61905" rx="0.609524" fill="#FF9F19"/>
<path d="M29.8667 16.7619C30.2033 16.7619 30.4775 17.0349 30.464 17.3713C30.352 20.1715 29.4694 22.891 27.9081 25.2277C26.2337 27.7336 23.8539 29.6867 21.0695 30.8401C18.2851 31.9934 15.2212 32.2952 12.2653 31.7072C9.30939 31.1192 6.59423 29.6679 4.46314 27.5369C2.33205 25.4058 0.880768 22.6906 0.292802 19.7347C-0.295163 16.7788 0.0066024 13.7149 1.15994 10.9305C2.31327 8.14613 4.26638 5.76627 6.77227 4.09189C9.10897 2.53055 11.8285 1.64804 14.6287 1.53599C14.9651 1.52253 15.2381 1.7967 15.2381 2.13333V8.53333C15.2381 8.86996 14.9648 9.14031 14.6292 9.16721C13.3369 9.27082 12.0887 9.70289 11.0052 10.4269C9.75224 11.2641 8.77569 12.454 8.19902 13.8462C7.62235 15.2384 7.47147 16.7703 7.76545 18.2483C8.05943 19.7262 8.78508 21.0838 9.85062 22.1494C10.9162 23.2149 12.2737 23.9406 13.7517 24.2345C15.2296 24.5285 16.7616 24.3776 18.1538 23.801C19.546 23.2243 20.7359 22.2478 21.5731 20.9948C22.2971 19.9113 22.7292 18.6631 22.8328 17.3708C22.8597 17.0352 23.13 16.7619 23.4667 16.7619H29.8667Z" fill="#05CCA8"/>
<path d="M16.7619 0.609524C16.7619 0.272893 17.0349 -0.00127274 17.3713 0.0121888C19.1644 0.0839504 20.9324 0.47197 22.5933 1.15993C24.4421 1.92572 26.1219 3.04815 27.5369 4.46313C28.9519 5.87812 30.0743 7.55796 30.8401 9.40673C31.528 11.0676 31.9161 12.8356 31.9878 14.6287C32.0013 14.9651 31.7271 15.2381 31.3905 15.2381L24.9905 15.2381C24.6539 15.2381 24.3835 14.9648 24.3566 14.6292C24.2931 13.8372 24.106 13.0588 23.801 12.3224C23.4181 11.398 22.8569 10.5581 22.1494 9.85061C21.4419 9.14312 20.602 8.5819 19.6776 8.19901C18.9412 7.894 18.1628 7.70691 17.3708 7.64341C17.0352 7.61651 16.7619 7.34615 16.7619 7.00952L16.7619 0.609524Z" fill="#6553F6"/>
<path fill-rule="evenodd" clip-rule="evenodd" d="M60.9008 7.47281C60.9008 8.98187 60.4522 10.386 59.6812 11.5592L61.0811 12.9592L59.0947 14.9456L57.7249 13.5759C56.5149 14.4249 55.0408 14.9232 53.4504 14.9232C49.3357 14.9232 46 11.5876 46 7.47281C46 3.35807 49.3357 0.0224304 53.4504 0.0224304C57.5652 0.0224304 60.9008 3.35807 60.9008 7.47281ZM56.5361 8.41413L57.6356 9.5136C57.9366 8.89743 58.1056 8.20492 58.1056 7.47281C58.1056 4.90172 56.0214 2.81752 53.4504 2.81752C50.8795 2.81752 48.7952 4.90172 48.7952 7.47281C48.7952 10.0439 50.8795 12.1281 53.4504 12.1281C54.2659 12.1281 55.0325 11.9184 55.699 11.5499L54.5497 10.4005L56.5361 8.41413Z" fill="#272848"/>
<path fill-rule="evenodd" clip-rule="evenodd" d="M70.3635 14.9232H73.0505V4.1751H70.3635V5.05439C69.573 4.5167 68.6553 4.1751 67.6765 4.1751C64.7085 4.1751 62.3025 6.58111 62.3025 9.54914C62.3025 12.5172 64.7085 14.9232 67.6765 14.9232C68.6553 14.9232 69.573 14.5816 70.3635 14.0439V14.9232ZM65.0969 9.54914C65.0969 10.9738 66.2518 12.1286 67.6765 12.1286C69.1012 12.1286 70.2561 10.9738 70.2561 9.54914C70.2561 8.12453 69.1012 6.96971 67.6765 6.96971C66.2518 6.96971 65.0969 8.12453 65.0969 9.54914Z" fill="#272848"/>
<path d="M76.9198 14.5792C77.3996 14.756 77.8997 14.8647 78.4201 14.9055C79.1297 14.9668 79.7988 14.8683 80.4273 14.6097C81.0625 14.3447 81.5796 13.9604 81.9783 13.4573C82.3771 12.9473 82.5764 12.3557 82.5764 11.6825C82.5967 11.1045 82.448 10.6011 82.1303 10.1727C81.8127 9.74428 81.3937 9.38407 80.8733 9.09161C80.3597 8.79247 79.8089 8.54748 79.2209 8.35711C79.025 8.28913 78.7985 8.2314 78.5417 8.18369C78.2849 8.1293 78.0585 8.05105 77.8625 7.94919C77.7434 7.88312 77.6605 7.79557 77.6138 7.68655C77.5836 7.61642 77.5686 7.53746 77.5686 7.44943C77.5686 7.32229 77.5869 7.20945 77.6237 7.11117C77.6538 7.03078 77.6962 6.95993 77.751 6.89862C77.8242 6.82085 77.9118 6.75764 78.0137 6.70897C78.0904 6.67224 78.1751 6.64361 78.268 6.6231C78.3465 6.6033 78.428 6.58851 78.5127 6.57873C78.57 6.57205 78.6287 6.56751 78.6888 6.56537C78.7849 6.56203 78.8845 6.56417 78.9877 6.57205C79.1905 6.58564 79.3797 6.63669 79.5554 6.7252C79.7379 6.80678 79.8967 6.90864 80.0319 7.03102C80.1738 7.14671 80.2887 7.26909 80.3766 7.39838L82.5866 6.08254C82.1743 5.47734 81.6303 5.00812 80.9544 4.67486C80.2786 4.34161 79.5453 4.1751 78.7546 4.1751C78.0856 4.1751 77.4604 4.31107 76.8792 4.58302C76.3047 4.85521 75.8384 5.24261 75.4802 5.74595C75.1288 6.24237 74.9531 6.83397 74.9531 7.52076C74.9531 8.14624 75.1254 8.68345 75.4701 9.1324C75.8147 9.58111 76.2608 9.94848 76.8082 10.234C77.3624 10.5126 77.9504 10.7066 78.5721 10.8154C78.7749 10.8562 78.9844 10.9072 79.2006 10.9683C79.3551 11.006 79.4934 11.0584 79.6154 11.1255C79.6467 11.1427 79.6769 11.1608 79.706 11.1799L79.7325 11.1978C79.7447 11.2061 79.7566 11.2145 79.7683 11.2233C79.9238 11.339 80.0015 11.5055 80.0015 11.7233C80.0015 11.9203 79.9407 12.0802 79.819 12.2025C79.6974 12.3182 79.5386 12.4032 79.3426 12.4575C79.1466 12.5053 78.9439 12.5291 78.7343 12.5291C78.4505 12.5291 78.2004 12.4814 77.9842 12.3862C77.7747 12.291 77.5956 12.1823 77.4469 12.0599C77.2982 11.9306 77.1867 11.8115 77.1123 11.7028L74.7605 12.7228C74.97 13.1579 75.2606 13.532 75.6323 13.8447C76.0108 14.1508 76.4399 14.3955 76.9198 14.5792Z" fill="#272848"/>
<path d="M87.4685 14.9055C86.9481 14.8647 86.448 14.756 85.9682 14.5792C85.4883 14.3955 85.0592 14.1508 84.6807 13.8447C84.309 13.532 84.0184 13.1579 83.8089 12.7228L86.1608 11.7028C86.1762 11.7252 86.1933 11.7481 86.2119 11.7715C86.2308 11.7953 86.2512 11.8197 86.2733 11.8442C86.3347 11.9127 86.4087 11.9845 86.4953 12.0599C86.5582 12.1116 86.6265 12.161 86.7003 12.208C86.801 12.2719 86.9117 12.3313 87.0326 12.3862C87.1233 12.4261 87.22 12.4578 87.3225 12.4809C87.4645 12.5131 87.6179 12.5291 87.7828 12.5291C87.9923 12.5291 88.195 12.5053 88.391 12.4575C88.587 12.4032 88.7458 12.3182 88.8675 12.2025C88.9891 12.0802 89.0499 11.9203 89.0499 11.7233C89.0499 11.6894 89.048 11.6567 89.0443 11.6252C89.036 11.5561 89.0185 11.4926 88.9919 11.4356C88.979 11.4079 88.964 11.3817 88.9468 11.3569C88.9122 11.3065 88.8688 11.2619 88.8168 11.2233C88.6613 11.1078 88.4721 11.0227 88.2491 10.9683C88.1807 10.949 88.1131 10.9306 88.0461 10.9134C87.996 10.9005 87.9462 10.8881 87.8969 10.8764C87.8034 10.854 87.7113 10.8337 87.6206 10.8154C86.9988 10.7066 86.4108 10.5126 85.8567 10.234C85.3092 9.94848 84.8632 9.58111 84.5185 9.1324C84.1738 8.68345 84.0015 8.14624 84.0015 7.52076C84.0015 6.83397 84.1772 6.24237 84.5287 5.74595C84.8868 5.24261 85.3531 4.85521 85.9276 4.58302C86.5088 4.31107 87.134 4.1751 87.803 4.1751C88.5937 4.1751 89.327 4.34161 90.0028 4.67486C90.6787 5.00812 91.2227 5.47734 91.635 6.08254L89.425 7.39838C89.3892 7.34566 89.3488 7.29414 89.3039 7.24356C89.2389 7.17033 89.1643 7.09948 89.0804 7.03102C89.0482 7.00191 89.0146 6.974 88.9797 6.94705C88.9168 6.89862 88.8496 6.85401 88.7779 6.81322L88.7482 6.79676L88.7191 6.78102L88.6712 6.75692L88.6365 6.74022L88.6039 6.7252C88.4282 6.63669 88.2389 6.58564 88.0362 6.57205C87.7726 6.55177 87.5327 6.56871 87.3165 6.6231C87.1002 6.67081 86.9278 6.76241 86.7994 6.89862C86.7587 6.94418 86.7248 6.995 86.6977 7.05105C86.6872 7.073 86.6777 7.09566 86.6692 7.11904C86.6634 7.13526 86.6579 7.15196 86.6531 7.16914C86.6485 7.18488 86.6445 7.2011 86.6408 7.21732C86.6249 7.28841 86.617 7.3657 86.617 7.44943C86.617 7.67367 86.715 7.84041 86.9109 7.94919C87.1069 8.05105 87.3333 8.1293 87.5901 8.18369C87.7992 8.22257 87.9881 8.2679 88.1568 8.32014C88.1954 8.33207 88.2329 8.34447 88.2694 8.35711C88.8573 8.54748 89.4081 8.79247 89.9217 9.09161C90.4421 9.38407 90.8611 9.74428 91.1788 10.1727C91.4964 10.6011 91.6451 11.1045 91.6248 11.6825C91.6248 12.3557 91.4255 12.9473 91.0267 13.4573C90.628 13.9604 90.111 14.3447 89.4757 14.6097C88.8472 14.8683 88.1781 14.9668 87.4685 14.9055Z" fill="#272848"/>
<path fill-rule="evenodd" clip-rule="evenodd" d="M103.638 10.349C103.84 9.05747 103.561 7.7348 102.853 6.63229C102.117 5.48767 100.973 4.66639 99.653 4.3356C98.3332 4.00482 96.9369 4.18939 95.7484 4.85175C94.5598 5.5141 93.6683 6.60447 93.2553 7.90094C92.8423 9.1974 92.9388 10.6025 93.5252 11.8303C94.1117 13.0581 95.1439 14.0163 96.4119 14.5099C97.6798 15.0035 99.0882 14.9954 100.35 14.4873C101.554 14.0028 102.538 13.0986 103.123 11.9457L100.426 11.3909C100.144 11.7043 99.7923 11.9525 99.3944 12.1127C98.7362 12.3777 98.0017 12.3819 97.3405 12.1245C96.6792 11.8671 96.1409 11.3674 95.8351 10.7271C95.7765 10.6043 95.7272 10.4781 95.6874 10.3495H103.638L103.638 10.3489L103.638 10.349ZM100.957 8.52464C100.889 8.3481 100.803 8.1777 100.699 8.01634C100.316 7.41942 99.719 6.99113 99.0307 6.81862C98.3424 6.64612 97.6143 6.74237 96.9945 7.08779C96.4221 7.40677 95.9818 7.9161 95.7481 8.52464H100.957Z" fill="#272848"/>
<path d="M129.329 14.9232V8.5501C129.329 7.95492 129.142 7.47042 128.768 7.09662C128.395 6.72281 127.91 6.53603 127.315 6.53603C126.927 6.53603 126.581 6.61904 126.277 6.78507C126.17 6.84328 126.071 6.90983 125.98 6.98498C125.81 7.12453 125.667 7.29318 125.55 7.49118C125.384 7.79557 125.301 8.14862 125.301 8.5501V14.9232H122.581V0.0224304H125.301V5.19251C125.537 4.94681 125.807 4.73712 126.111 4.56346C126.706 4.2314 127.384 4.06513 128.145 4.06513C128.907 4.06513 129.578 4.2314 130.159 4.56346C130.755 4.89576 131.218 5.35258 131.551 5.93393C131.883 6.51527 132.049 7.18655 132.049 7.948V14.9232H129.329Z" fill="#272848"/>
<path d="M105.07 4.38312V14.9232H107.79V8.50311C107.79 8.11475 107.873 7.78197 108.039 7.50454C108.134 7.34566 108.25 7.20945 108.386 7.09614C108.443 7.04795 108.505 7.00382 108.57 6.96398C108.619 6.93369 108.671 6.90578 108.724 6.88025C109.015 6.72758 109.34 6.65125 109.7 6.65125C110.24 6.65125 110.69 6.81775 111.05 7.15077C111.424 7.46971 111.61 7.92057 111.61 8.50311V14.9232H114.33V8.50311C114.33 8.47042 114.331 8.43798 114.332 8.40602C114.334 8.36785 114.336 8.3304 114.339 8.29342C114.353 8.12429 114.385 7.96685 114.434 7.82109C114.472 7.7085 114.521 7.60306 114.58 7.50454C114.746 7.22687 114.974 7.01885 115.265 6.88025C115.569 6.72758 115.895 6.65125 116.241 6.65125C116.781 6.65125 117.23 6.81775 117.59 7.15077C117.964 7.46971 118.151 7.92057 118.151 8.50311V14.9232H120.871V8.06632C120.871 7.26169 120.698 6.56799 120.352 5.98545C120.006 5.40268 119.535 4.95897 118.94 4.65363C118.345 4.33469 117.673 4.1751 116.926 4.1751C116.178 4.1751 115.5 4.34161 114.891 4.67439C114.407 4.9282 113.997 5.26957 113.662 5.69872C113.483 5.44466 113.277 5.22138 113.043 5.02887C112.871 4.88717 112.684 4.76217 112.483 4.65363C111.915 4.33469 111.285 4.1751 110.593 4.1751C109.859 4.1751 109.202 4.33469 108.621 4.65363C108.31 4.81656 108.033 5.01718 107.79 5.25525V4.38312H105.07Z" fill="#272848"/>
<path fill-rule="evenodd" clip-rule="evenodd" d="M144.507 14.9232H141.82V14.0439C141.03 14.5816 140.112 14.9232 139.133 14.9232C136.165 14.9232 133.759 12.5172 133.759 9.54914C133.759 6.58111 136.165 4.1751 139.133 4.1751C140.112 4.1751 141.03 4.5167 141.82 5.05439V4.1751H144.507V14.9232ZM139.133 12.1286C137.708 12.1286 136.553 10.9738 136.553 9.54914C136.553 8.12453 137.708 6.96971 139.133 6.96971C140.558 6.96971 141.713 8.12453 141.713 9.54914C141.713 10.9738 140.558 12.1286 139.133 12.1286Z" fill="#272848"/>
<path d="M48.7496 29.5729L46 32.0762V17.7128H48.7496V29.5729Z" fill="#272848"/>
<path d="M93.0539 29.5729V32.0762H46L48.7496 29.5729H75.7791V29.183C75.7791 28.458 75.9569 27.7672 76.3126 27.1106C76.6819 26.454 77.1949 25.9273 77.8515 25.5306C78.5081 25.1202 79.24 24.915 80.047 24.915C80.8541 24.915 81.5791 25.1202 82.2221 25.5306C82.865 25.9273 83.3643 26.454 83.72 27.1106C84.0893 27.7672 84.274 28.4512 84.274 29.1625V29.5729H86.2028V27.6236C86.2028 25.7632 85.6966 24.4773 84.6844 23.766C83.6858 23.0546 82.5504 22.699 81.2782 22.699C80.7173 22.699 80.0744 22.7537 79.3494 22.8631C78.6381 22.9589 77.6942 23.1025 76.5178 23.294L76.292 21.0985C77.3317 20.8386 78.3166 20.6266 79.2468 20.4624C80.177 20.2983 81.0593 20.2162 81.8938 20.2162C83.3848 20.2162 84.657 20.5308 85.7103 21.1601C86.7773 21.7756 87.5844 22.6443 88.1316 23.766C88.6787 24.874 88.9523 26.1599 88.9523 27.6236V29.5729H93.0539ZM80.0265 27.4184C79.6025 27.4184 79.2468 27.5894 78.9595 27.9314C78.6859 28.2597 78.5491 28.6632 78.5491 29.142V29.5729H81.5244V29.1215C81.5244 28.6427 81.3808 28.2391 81.0935 27.9108C80.8062 27.5825 80.4506 27.4184 80.0265 27.4184Z" fill="#272848"/>
<path d="M108.486 29.5729V32.0762H107.557C107.324 32.0762 107.106 31.9941 106.9 31.83C106.695 31.6658 106.545 31.4538 106.449 31.1939V32.0762H93.0539V29.5729H96.7434C96.5519 28.588 96.4561 27.7193 96.4561 26.967C96.4561 26.2146 96.5314 25.4075 96.6818 24.5457C96.8323 23.6839 97.0033 22.9384 97.1948 22.3091C97.5642 22.1313 98.1113 21.974 98.8363 21.8372C99.5614 21.7004 100.368 21.632 101.258 21.632C102.667 21.632 103.747 21.8372 104.5 22.2476C105.266 22.6579 105.779 23.2393 106.039 23.9917C106.312 24.7441 106.449 25.729 106.449 26.9464V28.6906C106.545 28.9641 106.695 29.183 106.9 29.3472C107.106 29.4976 107.324 29.5729 107.557 29.5729H108.486ZM99.1236 26.967C99.1236 27.4321 99.151 27.9108 99.2057 28.4033C99.2741 28.8821 99.3425 29.2719 99.4109 29.5729H103.699V26.8849C103.699 25.9273 103.508 25.2228 103.125 24.7714C102.755 24.32 102.037 24.0943 100.97 24.0943C100.451 24.0943 99.9307 24.149 99.4109 24.2584C99.2194 25.2844 99.1236 26.1872 99.1236 26.967Z" fill="#272848"/>
<path d="M128.818 29.5729V32.0762H123.076C122.625 32.0762 122.187 32.001 121.763 31.8505C121.353 31.7 121.017 31.5222 120.757 31.317C120.21 31.8231 119.526 32.0762 118.706 32.0762H108.486V29.5729H114.068V22.8426H116.818V29.5729H117.762C118.282 29.5729 118.678 29.3677 118.952 28.9573C119.239 28.5332 119.383 27.9929 119.383 27.3363V22.8426H122.132V27.3363C122.132 28.0339 122.064 28.6564 121.927 29.2035C122.05 29.2993 122.207 29.3882 122.399 29.4703C122.604 29.5387 122.809 29.5729 123.015 29.5729H124.553V22.8426H127.303V29.5729H128.818Z" fill="#272848"/>
<path d="M144.4 22.1039V32.0762H128.818V29.5729H135.166C134.934 28.7384 134.817 27.7946 134.817 26.7412C134.817 25.4964 135.009 24.5183 135.392 23.807C135.789 23.0957 136.384 22.5896 137.177 22.2886C137.971 21.9877 139.017 21.8372 140.317 21.8372C141.466 21.8372 142.471 21.8851 143.333 21.9808L144.4 22.1039ZM137.608 27.2542C137.608 27.774 137.642 28.1981 137.711 28.5264C137.779 28.841 137.875 29.1899 137.998 29.5729H141.65V24.3405C141.048 24.2995 140.577 24.279 140.235 24.279C139.496 24.279 138.942 24.361 138.572 24.5252C138.217 24.6893 137.964 24.9766 137.813 25.387C137.676 25.7974 137.608 26.4198 137.608 27.2542ZM137.198 17.3435H139.311V19.9084H137.198V17.3435ZM140.317 17.3435H142.43V19.9084H140.317V17.3435Z" fill="#272848"/>
</svg>
