<svg width="2208" height="1242" viewBox="0 0 2208 1242" fill="none" xmlns="http://www.w3.org/2000/svg">
<rect width="2208" height="1242" fill="white"/>
<rect x="1096.38" y="704.81" width="152.381" height="76.1905" rx="6.09524" fill="#FF9F19"/>
<path d="M1242.67 628.619C1246.03 628.619 1248.77 631.349 1248.64 634.713C1247.52 662.715 1238.69 689.91 1223.08 713.277C1206.34 738.336 1182.54 757.867 1154.69 769.401C1126.85 780.934 1096.21 783.952 1066.65 778.072C1037.09 772.192 1009.94 757.679 988.631 736.369C967.321 715.058 952.808 687.906 946.928 658.347C941.048 628.788 944.066 598.149 955.599 570.305C967.133 542.461 986.664 518.663 1011.72 501.919C1035.09 486.305 1062.28 477.48 1090.29 476.36C1093.65 476.225 1096.38 478.967 1096.38 482.333V546.333C1096.38 549.7 1093.65 552.403 1090.29 552.672C1077.37 553.708 1064.89 558.029 1054.05 565.269C1041.52 573.641 1031.76 585.54 1025.99 599.462C1020.22 613.384 1018.71 628.704 1021.65 643.483C1024.59 658.263 1031.85 671.838 1042.51 682.494C1053.16 693.149 1066.74 700.406 1081.52 703.346C1096.3 706.285 1111.62 704.777 1125.54 699.01C1139.46 693.243 1151.36 683.478 1159.73 670.948C1166.97 660.113 1171.29 647.631 1172.33 634.708C1172.6 631.352 1175.3 628.619 1178.67 628.619H1242.67Z" fill="#05CCA8"/>
<path d="M1111.62 467.095C1111.62 463.729 1114.35 460.987 1117.71 461.122C1135.64 461.84 1153.32 465.72 1169.93 472.599C1188.42 480.257 1205.22 491.481 1219.37 505.631C1233.52 519.781 1244.74 536.58 1252.4 555.067C1259.28 571.676 1263.16 589.356 1263.88 607.287C1264.01 610.651 1261.27 613.381 1257.9 613.381L1193.9 613.381C1190.54 613.381 1187.83 610.648 1187.57 607.292C1186.93 599.372 1185.06 591.588 1182.01 584.224C1178.18 574.98 1172.57 566.581 1165.49 559.506C1158.42 552.431 1150.02 546.819 1140.78 542.99C1133.41 539.94 1125.63 538.069 1117.71 537.434C1114.35 537.165 1111.62 534.462 1111.62 531.095L1111.62 467.095Z" fill="#6553F6"/>
</svg>
